<?xml version="1.0" encoding="utf-8"?>
<!-- Generator: Adobe Illustrator 29.7.1, SVG Export Plug-In . SVG Version: 9.03 Build 0)  -->
<svg version="1.1" id="Layer_1" xmlns="http://www.w3.org/2000/svg" xmlns:xlink="http://www.w3.org/1999/xlink" x="0px" y="0px"
	 viewBox="0 0 424.5 29.2" style="enable-background:new 0 0 424.5 29.2;" xml:space="preserve">
<style type="text/css">
	.st0{fill:#0050D8;}
	.st1{fill:#FFFFFF;}
	
		.st2{clip-path:url(#SVGID_00000103957105900969370030000013092897048992826518_);fill-rule:evenodd;clip-rule:evenodd;fill:#0050D8;}
	
		.st3{clip-path:url(#SVGID_00000119802545444671207950000016544563531009134259_);fill-rule:evenodd;clip-rule:evenodd;fill:#0050D8;}
	.st4{fill-rule:evenodd;clip-rule:evenodd;fill:none;}
	
		.st5{clip-path:url(#SVGID_00000060748868731463968780000005290736305277880739_);fill-rule:evenodd;clip-rule:evenodd;fill:#0050D8;}
	.st6{fill-rule:evenodd;clip-rule:evenodd;fill:#0050D8;}
	
		.st7{clip-path:url(#SVGID_00000141446664484356688760000013497492611594330768_);fill-rule:evenodd;clip-rule:evenodd;fill:#C9C9C9;}
	.st8{fill:#757575;}
</style>
<path class="st0" d="M0,26.2V3c0-0.4,0.1-0.8,0.2-1.1c0.2-0.4,0.4-0.7,0.7-1c0.3-0.3,0.6-0.5,1-0.7C2.2,0.1,2.6,0,3,0h69.8
	c0.4,0,0.8,0.1,1.1,0.2c0.4,0.2,0.7,0.4,1,0.7c0.3,0.3,0.5,0.6,0.7,1c0.2,0.4,0.2,0.8,0.2,1.1v23.2c0,0.4-0.1,0.8-0.2,1.1
	c-0.2,0.4-0.4,0.7-0.7,1s-0.6,0.5-1,0.7c-0.4,0.2-0.8,0.2-1.1,0.2H3c-0.4,0-0.8-0.1-1.1-0.2c-0.4-0.2-0.7-0.4-1-0.7
	c-0.3-0.3-0.5-0.6-0.7-1C0.1,27,0,26.6,0,26.2z"/>
<g>
	<path class="st1" d="M34.3,10.5h2.8c0.4,0,0.8,0,1.2,0.1s0.7,0.2,1,0.3c0.3,0.2,0.5,0.4,0.6,0.6s0.2,0.6,0.2,1c0,0.2,0,0.4-0.1,0.6
		c-0.1,0.2-0.1,0.4-0.2,0.5c-0.1,0.2-0.3,0.3-0.4,0.4c-0.2,0.1-0.4,0.2-0.6,0.3v0.1c0.6,0.1,1,0.3,1.3,0.6s0.5,0.8,0.5,1.3
		c0,0.4-0.1,0.8-0.2,1.1c-0.2,0.3-0.4,0.6-0.7,0.8c-0.3,0.2-0.6,0.3-1,0.4c-0.4,0.1-0.8,0.1-1.3,0.1h-3.1V10.5z M37.1,13.8
		c0.5,0,0.8-0.1,1-0.3s0.3-0.4,0.3-0.7c0-0.3-0.1-0.5-0.3-0.7c-0.2-0.1-0.5-0.2-1-0.2h-0.9v1.9H37.1z M37.2,17.3
		c1,0,1.5-0.4,1.5-1.1c0-0.4-0.1-0.6-0.4-0.8c-0.3-0.2-0.6-0.2-1.2-0.2h-1.1v2.2H37.2z"/>
</g>
<g>
	<path class="st1" d="M41.6,17c0-0.7,0.3-1.2,0.8-1.6s1.5-0.6,2.7-0.8c0-0.3-0.1-0.5-0.3-0.7c-0.2-0.2-0.4-0.2-0.7-0.2
		c-0.3,0-0.5,0.1-0.8,0.2c-0.3,0.1-0.6,0.2-0.9,0.4l-0.7-1.2c0.4-0.2,0.8-0.4,1.3-0.6c0.4-0.2,0.9-0.2,1.4-0.2
		c0.8,0,1.4,0.2,1.9,0.7c0.4,0.5,0.6,1.2,0.6,2.2v3.6h-1.5l-0.1-0.6h0c-0.3,0.2-0.6,0.4-0.9,0.6c-0.3,0.1-0.6,0.2-1,0.2
		c-0.3,0-0.5,0-0.8-0.1c-0.2-0.1-0.4-0.2-0.6-0.4s-0.3-0.4-0.4-0.6C41.7,17.5,41.6,17.3,41.6,17z M43.4,16.9c0,0.2,0.1,0.4,0.2,0.5
		c0.1,0.1,0.3,0.1,0.5,0.1c0.2,0,0.4,0,0.6-0.1c0.2-0.1,0.3-0.2,0.5-0.4v-1.1c-0.7,0.1-1.1,0.2-1.4,0.4
		C43.5,16.4,43.4,16.6,43.4,16.9z"/>
</g>
<g>
	<path class="st1" d="M48.2,15.6c0-0.5,0.1-1,0.3-1.4c0.2-0.4,0.4-0.8,0.7-1c0.3-0.3,0.7-0.5,1-0.6s0.8-0.2,1.2-0.2
		c0.4,0,0.7,0.1,1.1,0.2s0.6,0.3,0.8,0.5l-0.9,1.2c-0.3-0.2-0.6-0.4-0.9-0.4c-0.5,0-0.8,0.2-1.1,0.5c-0.3,0.3-0.4,0.8-0.4,1.3
		c0,0.6,0.1,1,0.4,1.3c0.3,0.3,0.6,0.5,1,0.5c0.2,0,0.4,0,0.6-0.1s0.4-0.2,0.5-0.3l0.8,1.2c-0.3,0.3-0.6,0.5-1,0.6
		c-0.4,0.1-0.7,0.2-1.1,0.2c-0.4,0-0.8-0.1-1.2-0.2c-0.4-0.1-0.7-0.4-1-0.6s-0.5-0.6-0.7-1C48.3,16.6,48.2,16.1,48.2,15.6z"/>
</g>
<g>
	<path class="st1" d="M54.5,9.8h1.8v5.1h0.1l2-2.5h2L58.2,15l2.4,3.7h-2l-1.4-2.5l-0.8,0.9v1.6h-1.8V9.8z"/>
</g>
<g>
	<defs>
		<path id="SVGID_1_" d="M251.2,26.2V3c0-0.8,0.3-1.5,0.9-2.1s1.3-0.9,2.1-0.9h65.2c0.8,0,1.5,0.3,2.1,0.9c0.6,0.6,0.9,1.3,0.9,2.1
			v23.2c0,0.8-0.3,1.5-0.9,2.1c-0.6,0.6-1.3,0.9-2.1,0.9h-65.2c-0.8,0-1.5-0.3-2.1-0.9C251.5,27.8,251.2,27.1,251.2,26.2z"/>
	</defs>
	<clipPath id="SVGID_00000099631170510886762270000007510661946227402932_">
		<use xlink:href="#SVGID_1_"  style="overflow:visible;"/>
	</clipPath>
	
		<path style="clip-path:url(#SVGID_00000099631170510886762270000007510661946227402932_);fill-rule:evenodd;clip-rule:evenodd;fill:#0050D8;" d="
		M252.8,26.2V3c0-0.2,0-0.4,0.1-0.6c0.1-0.2,0.2-0.3,0.3-0.5c0.1-0.1,0.3-0.2,0.5-0.3c0.2-0.1,0.4-0.1,0.6-0.1h65.2
		c0.2,0,0.4,0,0.6,0.1c0.2,0.1,0.3,0.2,0.5,0.3c0.1,0.1,0.2,0.3,0.3,0.5C321,2.6,321,2.8,321,3v23.2c0,0.2,0,0.4-0.1,0.6
		c-0.1,0.2-0.2,0.3-0.3,0.5c-0.1,0.1-0.3,0.2-0.5,0.3c-0.2,0.1-0.4,0.1-0.6,0.1h-65.2c-0.2,0-0.4,0-0.6-0.1
		c-0.2-0.1-0.3-0.2-0.5-0.3c-0.1-0.1-0.2-0.3-0.3-0.5C252.8,26.6,252.7,26.4,252.8,26.2z M251.2,29.2V0h71.2v29.2H251.2z"/>
</g>
<g>
	<path class="st0" d="M285.7,10.5h5.2V12h-3.3v1.7h2.8v1.6h-2.8v1.9h3.4v1.6h-5.3V10.5z"/>
</g>
<g>
	<path class="st0" d="M292.1,15.6c0-0.5,0.1-1,0.2-1.4c0.1-0.4,0.3-0.8,0.6-1c0.2-0.3,0.5-0.5,0.8-0.7c0.3-0.2,0.6-0.2,1-0.2
		c0.4,0,0.6,0.1,0.9,0.2s0.5,0.3,0.7,0.5l-0.1-1V9.8h1.9v8.9h-1.5l-0.1-0.6h-0.1c-0.2,0.2-0.5,0.4-0.8,0.6c-0.3,0.1-0.6,0.2-0.9,0.2
		c-0.4,0-0.7-0.1-1.1-0.2c-0.3-0.2-0.6-0.4-0.8-0.7c-0.2-0.3-0.4-0.6-0.5-1C292.1,16.6,292.1,16.1,292.1,15.6z M294,15.6
		c0,0.6,0.1,1.1,0.3,1.4c0.2,0.3,0.5,0.4,0.8,0.4c0.2,0,0.4,0,0.6-0.1c0.2-0.1,0.3-0.2,0.5-0.4v-2.6c-0.2-0.2-0.3-0.3-0.5-0.3
		c-0.2-0.1-0.4-0.1-0.5-0.1c-0.3,0-0.6,0.1-0.8,0.4C294.1,14.5,294,15,294,15.6z"/>
</g>
<g>
	<path class="st0" d="M300.6,11.5c-0.3,0-0.6-0.1-0.8-0.3c-0.2-0.2-0.3-0.4-0.3-0.7c0-0.3,0.1-0.5,0.3-0.7c0.2-0.2,0.5-0.3,0.8-0.3
		c0.3,0,0.6,0.1,0.8,0.3c0.2,0.2,0.3,0.4,0.3,0.7c0,0.3-0.1,0.5-0.3,0.7C301.2,11.4,300.9,11.5,300.6,11.5z M299.7,12.4h1.9v6.3
		h-1.9V12.4z"/>
</g>
<g>
	<path class="st0" d="M303.4,13.9h-0.9v-1.4l1-0.1l0.2-1.7h1.6v1.7h1.5v1.5h-1.5v2.5c0,0.4,0.1,0.6,0.2,0.8c0.1,0.2,0.3,0.2,0.6,0.2
		c0.1,0,0.2,0,0.3,0s0.2-0.1,0.3-0.1l0.3,1.4c-0.2,0.1-0.4,0.1-0.6,0.2c-0.2,0.1-0.5,0.1-0.8,0.1c-0.4,0-0.7-0.1-1-0.2
		s-0.5-0.3-0.7-0.5s-0.3-0.5-0.4-0.8c-0.1-0.3-0.1-0.6-0.1-1V13.9z"/>
</g>
<g>
	<defs>
		<path id="SVGID_00000164486512733012800960000012873583079135043465_" d="M328.5,26.2V3c0-0.8,0.3-1.5,0.9-2.1s1.3-0.9,2.1-0.9h90
			c0.8,0,1.5,0.3,2.1,0.9c0.6,0.6,0.9,1.3,0.9,2.1v23.2c0,0.8-0.3,1.5-0.9,2.1c-0.6,0.6-1.3,0.9-2.1,0.9h-90c-0.8,0-1.5-0.3-2.1-0.9
			C328.8,27.8,328.5,27.1,328.5,26.2z"/>
	</defs>
	<clipPath id="SVGID_00000059302739652381230070000007216315378153344920_">
		<use xlink:href="#SVGID_00000164486512733012800960000012873583079135043465_"  style="overflow:visible;"/>
	</clipPath>
	
		<path style="clip-path:url(#SVGID_00000059302739652381230070000007216315378153344920_);fill-rule:evenodd;clip-rule:evenodd;fill:#0050D8;" d="
		M330,26.2V3c0-0.2,0-0.4,0.1-0.6c0.1-0.2,0.2-0.3,0.3-0.5c0.1-0.1,0.3-0.2,0.5-0.3c0.2-0.1,0.4-0.1,0.6-0.1h90c0.2,0,0.4,0,0.6,0.1
		c0.2,0.1,0.3,0.2,0.5,0.3c0.1,0.1,0.2,0.3,0.3,0.5S423,2.8,423,3v23.2c0,0.2,0,0.4-0.1,0.6c-0.1,0.2-0.2,0.3-0.3,0.5
		c-0.1,0.1-0.3,0.2-0.5,0.3c-0.2,0.1-0.4,0.1-0.6,0.1h-90c-0.2,0-0.4,0-0.6-0.1c-0.2-0.1-0.3-0.2-0.5-0.3c-0.1-0.1-0.2-0.3-0.3-0.5
		C330,26.6,330,26.4,330,26.2z M328.5,29.2V0h96v29.2H328.5z"/>
</g>
<g>
	<path class="st0" d="M343.1,10.5h2l1,3.9c0.1,0.5,0.2,0.9,0.3,1.3c0.1,0.4,0.2,0.9,0.3,1.3h0.1c0.1-0.5,0.2-0.9,0.3-1.3
		c0.1-0.4,0.2-0.9,0.3-1.3l1-3.9h1.9l-2.5,8.3h-2.2L343.1,10.5z"/>
</g>
<g>
	<path class="st0" d="M350.5,15.6c0-0.5,0.1-1,0.3-1.4c0.2-0.4,0.4-0.8,0.7-1c0.3-0.3,0.6-0.5,0.9-0.7c0.4-0.2,0.7-0.2,1.1-0.2
		c0.4,0,0.8,0.1,1.2,0.2c0.3,0.2,0.6,0.4,0.8,0.6c0.2,0.3,0.4,0.6,0.5,1c0.1,0.4,0.2,0.8,0.2,1.2c0,0.2,0,0.3,0,0.5
		c0,0.1,0,0.2-0.1,0.3h-3.8c0.1,0.5,0.3,0.8,0.6,1c0.3,0.2,0.7,0.3,1.1,0.3c0.4,0,0.9-0.1,1.4-0.4l0.6,1.1c-0.3,0.2-0.7,0.4-1.1,0.5
		s-0.8,0.2-1.2,0.2c-0.4,0-0.9-0.1-1.3-0.2c-0.4-0.1-0.7-0.4-1-0.6c-0.3-0.3-0.5-0.6-0.7-1C350.6,16.6,350.5,16.1,350.5,15.6z
		 M354.6,14.9c0-0.4-0.1-0.7-0.2-0.9c-0.2-0.2-0.4-0.3-0.8-0.3c-0.3,0-0.6,0.1-0.8,0.3s-0.4,0.5-0.4,0.9H354.6z"/>
</g>
<g>
	<path class="st0" d="M357.5,12.4h1.5l0.1,1.1h0.1c0.2-0.4,0.5-0.8,0.8-1c0.3-0.2,0.6-0.3,1-0.3c0.2,0,0.3,0,0.4,0
		c0.1,0,0.2,0.1,0.3,0.1l-0.3,1.6c-0.1,0-0.2-0.1-0.3-0.1s-0.2,0-0.4,0c-0.2,0-0.5,0.1-0.7,0.3c-0.3,0.2-0.5,0.5-0.6,0.9v3.7h-1.9
		V12.4z"/>
</g>
<g>
	<path class="st0" d="M362.7,16.9c0.3,0.2,0.6,0.4,0.8,0.5c0.3,0.1,0.5,0.2,0.8,0.2c0.3,0,0.5,0,0.6-0.1c0.1-0.1,0.2-0.2,0.2-0.4
		c0-0.1,0-0.2-0.1-0.3c-0.1-0.1-0.2-0.2-0.3-0.2s-0.3-0.1-0.4-0.2c-0.2-0.1-0.3-0.1-0.5-0.2c-0.2-0.1-0.4-0.2-0.6-0.3
		c-0.2-0.1-0.4-0.2-0.5-0.4c-0.2-0.1-0.3-0.3-0.4-0.5c-0.1-0.2-0.2-0.4-0.2-0.7c0-0.3,0.1-0.6,0.2-0.8c0.1-0.2,0.3-0.5,0.5-0.6
		s0.5-0.3,0.8-0.4c0.3-0.1,0.6-0.1,1-0.1c0.5,0,0.9,0.1,1.3,0.2c0.4,0.2,0.7,0.3,1,0.6l-0.8,1.1c-0.2-0.2-0.5-0.3-0.7-0.4
		c-0.2-0.1-0.4-0.1-0.7-0.1c-0.5,0-0.7,0.2-0.7,0.5c0,0.1,0,0.2,0.1,0.3c0.1,0.1,0.2,0.1,0.3,0.2c0.1,0.1,0.2,0.1,0.4,0.2
		s0.3,0.1,0.5,0.2c0.2,0.1,0.4,0.2,0.6,0.3c0.2,0.1,0.4,0.2,0.5,0.4c0.2,0.1,0.3,0.3,0.4,0.5s0.2,0.5,0.2,0.7s-0.1,0.6-0.2,0.8
		c-0.1,0.2-0.3,0.5-0.5,0.6c-0.2,0.2-0.5,0.3-0.8,0.4s-0.7,0.2-1.1,0.2c-0.4,0-0.8-0.1-1.3-0.2c-0.4-0.2-0.8-0.4-1.1-0.6L362.7,16.9
		z"/>
	<path class="st0" d="M369,11.5c-0.3,0-0.6-0.1-0.8-0.3c-0.2-0.2-0.3-0.4-0.3-0.7c0-0.3,0.1-0.5,0.3-0.7c0.2-0.2,0.5-0.3,0.8-0.3
		c0.3,0,0.6,0.1,0.8,0.3c0.2,0.2,0.3,0.4,0.3,0.7c0,0.3-0.1,0.5-0.3,0.7C369.6,11.4,369.3,11.5,369,11.5z M368.1,12.4h1.9v6.3h-1.9
		V12.4z"/>
</g>
<g>
	<path class="st0" d="M371.2,15.6c0-0.5,0.1-1,0.3-1.4c0.2-0.4,0.4-0.8,0.7-1c0.3-0.3,0.6-0.5,1-0.6s0.8-0.2,1.2-0.2
		s0.8,0.1,1.2,0.2c0.4,0.1,0.7,0.4,1,0.6c0.3,0.3,0.5,0.6,0.7,1c0.2,0.4,0.3,0.9,0.3,1.4c0,0.5-0.1,1-0.3,1.4
		c-0.2,0.4-0.4,0.8-0.7,1s-0.6,0.5-1,0.6c-0.4,0.1-0.8,0.2-1.2,0.2s-0.8-0.1-1.2-0.2c-0.4-0.1-0.7-0.4-1-0.6c-0.3-0.3-0.5-0.6-0.7-1
		C371.3,16.6,371.2,16.1,371.2,15.6z M373.1,15.6c0,0.6,0.1,1,0.3,1.3s0.5,0.5,0.9,0.5c0.4,0,0.7-0.2,0.9-0.5s0.3-0.8,0.3-1.3
		c0-0.6-0.1-1-0.3-1.3c-0.2-0.3-0.5-0.5-0.9-0.5c-0.4,0-0.7,0.2-0.9,0.5C373.2,14.6,373.1,15,373.1,15.6z"/>
</g>
<g>
	<path class="st0" d="M378.6,12.4h1.5l0.1,0.8h0.1c0.3-0.3,0.6-0.5,0.9-0.7c0.3-0.2,0.7-0.3,1.1-0.3c0.7,0,1.2,0.2,1.5,0.7
		s0.5,1.1,0.5,1.9v3.9h-1.9v-3.7c0-0.5-0.1-0.8-0.2-0.9c-0.1-0.2-0.3-0.3-0.6-0.3c-0.2,0-0.4,0.1-0.6,0.2c-0.2,0.1-0.4,0.3-0.6,0.5
		v4.3h-1.9V12.4z"/>
</g>
<g>
	<path class="st0" d="M386.2,16.9c0.3,0.2,0.6,0.4,0.8,0.5c0.3,0.1,0.5,0.2,0.8,0.2c0.3,0,0.5,0,0.6-0.1c0.1-0.1,0.2-0.2,0.2-0.4
		c0-0.1,0-0.2-0.1-0.3c-0.1-0.1-0.2-0.2-0.3-0.2s-0.3-0.1-0.4-0.2c-0.2-0.1-0.3-0.1-0.5-0.2c-0.2-0.1-0.4-0.2-0.6-0.3
		c-0.2-0.1-0.4-0.2-0.5-0.4c-0.2-0.1-0.3-0.3-0.4-0.5c-0.1-0.2-0.2-0.4-0.2-0.7c0-0.3,0.1-0.6,0.2-0.8c0.1-0.2,0.3-0.5,0.5-0.6
		s0.5-0.3,0.8-0.4c0.3-0.1,0.6-0.1,1-0.1c0.5,0,0.9,0.1,1.3,0.2c0.4,0.2,0.7,0.3,1,0.6l-0.8,1.1c-0.2-0.2-0.5-0.3-0.7-0.4
		c-0.2-0.1-0.4-0.1-0.7-0.1c-0.5,0-0.7,0.2-0.7,0.5c0,0.1,0,0.2,0.1,0.3c0.1,0.1,0.2,0.1,0.3,0.2c0.1,0.1,0.2,0.1,0.4,0.2
		s0.3,0.1,0.5,0.2c0.2,0.1,0.4,0.2,0.6,0.3c0.2,0.1,0.4,0.2,0.5,0.4c0.2,0.1,0.3,0.3,0.4,0.5s0.2,0.5,0.2,0.7s-0.1,0.6-0.2,0.8
		c-0.1,0.2-0.3,0.5-0.5,0.6c-0.2,0.2-0.5,0.3-0.8,0.4s-0.7,0.2-1.1,0.2c-0.4,0-0.8-0.1-1.3-0.2c-0.4-0.2-0.8-0.4-1.1-0.6L386.2,16.9
		z"/>
</g>
<polygon class="st1" points="25.6,14.1 19.1,14.1 22.1,11.1 21.4,10.4 17.1,14.6 21.4,18.8 22.1,18.1 19.1,15.1 25.6,15.1 "/>
<rect x="15" y="8.2" class="st4" width="12" height="12.8"/>
<g>
	<defs>
		<path id="SVGID_00000054240707760681930110000018149187515943715242_" d="M81.8,26.2V3c0-0.8,0.3-1.5,0.9-2.1S83.9,0,84.8,0H135
			v29.2H84.8c-0.8,0-1.5-0.3-2.1-0.9C82,27.8,81.7,27.1,81.8,26.2z"/>
	</defs>
	<clipPath id="SVGID_00000083066053967793831370000006311701357779234726_">
		<use xlink:href="#SVGID_00000054240707760681930110000018149187515943715242_"  style="overflow:visible;"/>
	</clipPath>
	
		<path style="clip-path:url(#SVGID_00000083066053967793831370000006311701357779234726_);fill-rule:evenodd;clip-rule:evenodd;fill:#0050D8;" d="
		M83.2,26.2V3c0-0.2,0-0.4,0.1-0.6c0.1-0.2,0.2-0.3,0.3-0.5c0.1-0.1,0.3-0.2,0.5-0.3c0.2-0.1,0.4-0.1,0.6-0.1h48.8v26.2H84.8
		c-0.2,0-0.4,0-0.6-0.1c-0.2-0.1-0.3-0.2-0.5-0.3c-0.1-0.1-0.2-0.3-0.3-0.5C83.3,26.6,83.2,26.4,83.2,26.2z M81.8,29.2V0H135v29.2
		H81.8z"/>
</g>
<g>
	<path class="st0" d="M99.2,12H97v-1.6h6.4V12h-2.3v6.7h-1.9V12z"/>
</g>
<g>
	<path class="st0" d="M103.2,15.6c0-0.5,0.1-1,0.3-1.4c0.2-0.4,0.4-0.8,0.7-1c0.3-0.3,0.6-0.5,0.9-0.7c0.4-0.2,0.7-0.2,1.1-0.2
		c0.4,0,0.8,0.1,1.2,0.2c0.3,0.2,0.6,0.4,0.8,0.6c0.2,0.3,0.4,0.6,0.5,1c0.1,0.4,0.2,0.8,0.2,1.2c0,0.2,0,0.3,0,0.5
		c0,0.1,0,0.2-0.1,0.3H105c0.1,0.5,0.3,0.8,0.6,1c0.3,0.2,0.7,0.3,1.1,0.3c0.4,0,0.9-0.1,1.4-0.4l0.6,1.1c-0.3,0.2-0.7,0.4-1.1,0.5
		s-0.8,0.2-1.2,0.2c-0.4,0-0.9-0.1-1.3-0.2c-0.4-0.1-0.7-0.4-1-0.6c-0.3-0.3-0.5-0.6-0.7-1C103.3,16.6,103.2,16.1,103.2,15.6z
		 M107.3,14.9c0-0.4-0.1-0.7-0.2-0.9c-0.2-0.2-0.4-0.3-0.8-0.3c-0.3,0-0.6,0.1-0.8,0.3s-0.4,0.5-0.4,0.9H107.3z"/>
</g>
<g>
	<path class="st0" d="M111.2,15.5l-1.8-3h2l0.6,1c0.1,0.2,0.2,0.4,0.3,0.5c0.1,0.2,0.2,0.4,0.3,0.5h0.1c0.1-0.2,0.1-0.4,0.2-0.5
		s0.1-0.4,0.2-0.5l0.4-1h1.9l-1.8,3.2l1.9,3.1h-2l-0.6-1c-0.1-0.2-0.2-0.4-0.3-0.5c-0.1-0.2-0.2-0.4-0.3-0.5h-0.1
		c-0.1,0.2-0.2,0.4-0.2,0.5c-0.1,0.2-0.2,0.4-0.2,0.6l-0.5,1h-1.9L111.2,15.5z"/>
</g>
<g>
	<path class="st0" d="M116.4,13.9h-0.9v-1.4l1-0.1l0.2-1.7h1.6v1.7h1.5v1.5h-1.5v2.5c0,0.4,0.1,0.6,0.2,0.8c0.1,0.2,0.3,0.2,0.6,0.2
		c0.1,0,0.2,0,0.3,0s0.2-0.1,0.3-0.1l0.3,1.4c-0.2,0.1-0.4,0.1-0.6,0.2c-0.2,0.1-0.5,0.1-0.8,0.1c-0.4,0-0.7-0.1-1-0.2
		s-0.5-0.3-0.7-0.5s-0.3-0.5-0.4-0.8c-0.1-0.3-0.1-0.6-0.1-1V13.9z"/>
</g>
<path class="st6" d="M135,27.8V1.5h57.8v26.2H135z M133.5,29.2V0h60.8v29.2H133.5z"/>
<rect x="133.5" class="st4" width="60.8" height="29.2"/>
<g>
	<path class="st0" d="M150.2,16.5c0.2,0.3,0.3,0.5,0.5,0.6c0.2,0.1,0.4,0.2,0.6,0.2c0.3,0,0.6-0.1,0.8-0.3c0.2-0.2,0.3-0.6,0.3-1.1
		v-5.4h1.9V16c0,0.4-0.1,0.8-0.2,1.1c-0.1,0.4-0.3,0.7-0.5,0.9c-0.2,0.3-0.5,0.5-0.8,0.6c-0.3,0.2-0.7,0.2-1.2,0.2
		c-0.6,0-1.2-0.1-1.6-0.4c-0.4-0.2-0.8-0.6-1.1-1.1L150.2,16.5z"/>
</g>
<g>
	<path class="st0" d="M156.7,16.4c0.3,0.3,0.6,0.5,1,0.6c0.4,0.2,0.7,0.2,1.1,0.2c0.4,0,0.7-0.1,0.9-0.2c0.2-0.1,0.3-0.3,0.3-0.6
		c0-0.1,0-0.2-0.1-0.3s-0.1-0.2-0.2-0.2c-0.1-0.1-0.2-0.1-0.4-0.2c-0.1-0.1-0.3-0.1-0.5-0.2l-1.1-0.5c-0.2-0.1-0.4-0.2-0.6-0.3
		s-0.4-0.3-0.5-0.5c-0.2-0.2-0.3-0.4-0.4-0.6c-0.1-0.2-0.1-0.5-0.1-0.8c0-0.3,0.1-0.7,0.2-1c0.1-0.3,0.3-0.6,0.6-0.8
		s0.6-0.4,0.9-0.5c0.4-0.1,0.8-0.2,1.2-0.2c0.5,0,1,0.1,1.4,0.3c0.5,0.2,0.9,0.5,1.2,0.8l-1,1.2c-0.3-0.2-0.5-0.4-0.8-0.5
		c-0.3-0.1-0.6-0.2-0.9-0.2c-0.3,0-0.6,0.1-0.8,0.2c-0.2,0.1-0.3,0.3-0.3,0.6c0,0.1,0,0.2,0.1,0.3c0.1,0.1,0.2,0.2,0.3,0.2
		c0.1,0.1,0.2,0.1,0.4,0.2c0.2,0.1,0.3,0.1,0.5,0.2l1.1,0.4c0.5,0.2,0.9,0.5,1.2,0.8s0.4,0.8,0.4,1.4c0,0.3-0.1,0.7-0.2,1
		c-0.1,0.3-0.3,0.6-0.6,0.8c-0.3,0.2-0.6,0.4-1,0.6c-0.4,0.1-0.8,0.2-1.3,0.2c-0.5,0-1.1-0.1-1.6-0.3c-0.5-0.2-1-0.5-1.4-0.9
		L156.7,16.4z"/>
</g>
<g>
	<path class="st0" d="M166.6,18.9c-0.6,0-1.1-0.1-1.5-0.3c-0.5-0.2-0.9-0.5-1.2-0.9c-0.3-0.4-0.6-0.8-0.8-1.4
		c-0.2-0.5-0.3-1.1-0.3-1.8c0-0.7,0.1-1.3,0.3-1.8c0.2-0.5,0.4-1,0.8-1.3c0.3-0.4,0.7-0.6,1.2-0.8c0.5-0.2,1-0.3,1.5-0.3
		s1.1,0.1,1.5,0.3c0.5,0.2,0.9,0.5,1.2,0.8c0.3,0.4,0.6,0.8,0.8,1.3c0.2,0.5,0.3,1.1,0.3,1.8c0,0.7-0.1,1.3-0.3,1.8
		c-0.2,0.5-0.4,1-0.8,1.4c-0.3,0.4-0.7,0.7-1.2,0.9C167.6,18.8,167.1,18.9,166.6,18.9z M166.6,17.3c0.6,0,1-0.2,1.3-0.7
		s0.5-1.2,0.5-2c0-0.8-0.2-1.5-0.5-1.9c-0.3-0.5-0.8-0.7-1.3-0.7s-1,0.2-1.3,0.7c-0.3,0.5-0.5,1.1-0.5,1.9c0,0.8,0.2,1.5,0.5,2
		S166,17.3,166.6,17.3z"/>
</g>
<g>
	<path class="st0" d="M171.9,10.5h1.9l2.2,4.1l0.8,1.8h0.1c0-0.4-0.1-0.9-0.1-1.5c-0.1-0.5-0.1-1.1-0.1-1.6v-2.9h1.8v8.3h-1.9
		l-2.2-4.1l-0.8-1.8h-0.1c0,0.5,0.1,0.9,0.1,1.5s0.1,1,0.1,1.5v2.9h-1.8V10.5z"/>
</g>
<g>
	<defs>
		<path id="SVGID_00000053508623520386488380000000658728891773898402_" d="M192.8,29.2V0h49.5c0.8,0,1.5,0.3,2.1,0.9
			c0.6,0.6,0.9,1.3,0.9,2.1v23.2c0,0.8-0.3,1.5-0.9,2.1c-0.6,0.6-1.3,0.9-2.1,0.9H192.8z"/>
	</defs>
	<clipPath id="SVGID_00000007423044463257825270000010661016223049599895_">
		<use xlink:href="#SVGID_00000053508623520386488380000000658728891773898402_"  style="overflow:visible;"/>
	</clipPath>
	
		<path style="clip-path:url(#SVGID_00000007423044463257825270000010661016223049599895_);fill-rule:evenodd;clip-rule:evenodd;fill:#C9C9C9;" d="
		M194.2,27.8V1.5h48c0.2,0,0.4,0,0.6,0.1c0.2,0.1,0.3,0.2,0.5,0.3c0.1,0.1,0.2,0.3,0.3,0.5s0.1,0.4,0.1,0.6v23.2
		c0,0.2,0,0.4-0.1,0.6c-0.1,0.2-0.2,0.3-0.3,0.5c-0.1,0.1-0.3,0.2-0.5,0.3c-0.2,0.1-0.4,0.1-0.6,0.1H194.2z M192.8,29.2V0h52.5v29.2
		H192.8z"/>
</g>
<g>
	<path class="st8" d="M208.5,14.7c0-0.7,0.1-1.3,0.3-1.8s0.5-1,0.9-1.4c0.4-0.4,0.8-0.7,1.3-0.9c0.5-0.2,1-0.3,1.5-0.3
		c0.5,0,1,0.1,1.4,0.3c0.4,0.2,0.8,0.5,1,0.8l-1,1.2c-0.2-0.2-0.4-0.3-0.6-0.5c-0.2-0.1-0.5-0.2-0.8-0.2c-0.3,0-0.6,0.1-0.8,0.2
		c-0.2,0.1-0.5,0.3-0.7,0.5c-0.2,0.2-0.3,0.5-0.4,0.8s-0.2,0.7-0.2,1.1c0,0.9,0.2,1.5,0.5,2c0.4,0.5,0.9,0.7,1.5,0.7
		c0.3,0,0.6-0.1,0.9-0.2c0.3-0.1,0.5-0.3,0.7-0.5l1,1.1c-0.3,0.4-0.7,0.7-1.2,0.9c-0.4,0.2-0.9,0.3-1.4,0.3c-0.5,0-1-0.1-1.5-0.3
		s-0.9-0.5-1.2-0.8s-0.6-0.8-0.8-1.3C208.6,16,208.5,15.4,208.5,14.7z"/>
</g>
<g>
	<path class="st8" d="M217,11.5c-0.3,0-0.6-0.1-0.8-0.3c-0.2-0.2-0.3-0.4-0.3-0.7c0-0.3,0.1-0.5,0.3-0.7c0.2-0.2,0.5-0.3,0.8-0.3
		c0.3,0,0.6,0.1,0.8,0.3c0.2,0.2,0.3,0.4,0.3,0.7c0,0.3-0.1,0.5-0.3,0.7C217.6,11.4,217.3,11.5,217,11.5z M216.1,12.4h1.9v6.3h-1.9
		V12.4z"/>
</g>
<g>
	<path class="st8" d="M219.9,13.9H219v-1.4l1-0.1l0.2-1.7h1.6v1.7h1.5v1.5h-1.5v2.5c0,0.4,0.1,0.6,0.2,0.8c0.1,0.2,0.3,0.2,0.6,0.2
		c0.1,0,0.2,0,0.3,0s0.2-0.1,0.3-0.1l0.3,1.4c-0.2,0.1-0.4,0.1-0.6,0.2c-0.2,0.1-0.5,0.1-0.8,0.1c-0.4,0-0.7-0.1-1-0.2
		s-0.5-0.3-0.7-0.5s-0.3-0.5-0.4-0.8c-0.1-0.3-0.1-0.6-0.1-1V13.9z"/>
</g>
<g>
	<path class="st8" d="M223.9,15.6c0-0.5,0.1-1,0.3-1.4c0.2-0.4,0.4-0.8,0.7-1c0.3-0.3,0.6-0.5,0.9-0.7c0.4-0.2,0.7-0.2,1.1-0.2
		c0.4,0,0.8,0.1,1.2,0.2c0.3,0.2,0.6,0.4,0.8,0.6c0.2,0.3,0.4,0.6,0.5,1c0.1,0.4,0.2,0.8,0.2,1.2c0,0.2,0,0.3,0,0.5
		c0,0.1,0,0.2-0.1,0.3h-3.8c0.1,0.5,0.3,0.8,0.6,1c0.3,0.2,0.7,0.3,1.1,0.3c0.4,0,0.9-0.1,1.4-0.4l0.6,1.1c-0.3,0.2-0.7,0.4-1.1,0.5
		s-0.8,0.2-1.2,0.2c-0.4,0-0.9-0.1-1.3-0.2c-0.4-0.1-0.7-0.4-1-0.6c-0.3-0.3-0.5-0.6-0.7-1C224,16.6,223.9,16.1,223.9,15.6z
		 M227.9,14.9c0-0.4-0.1-0.7-0.2-0.9c-0.2-0.2-0.4-0.3-0.8-0.3c-0.3,0-0.6,0.1-0.8,0.3s-0.4,0.5-0.4,0.9H227.9z"/>
</g>
<path class="st0" d="M277.2,12c0.1-0.1,0.2-0.2,0.2-0.4c0-0.1-0.1-0.3-0.2-0.4L276,10c-0.1-0.1-0.2-0.2-0.4-0.2s-0.3,0.1-0.4,0.2
	l-1,1l2,2L277.2,12z M267.8,17.4v2h2l5.9-5.9l-2-2L267.8,17.4z"/>
<rect x="266.2" y="8.2" class="st4" width="12.8" height="12.8"/>
<polygon class="st0" points="405.5,12.8 403.1,15.2 400.7,12.8 399.9,13.5 403.1,16.7 406.3,13.5 "/>
<rect x="396.8" y="8.2" class="st4" width="12.8" height="12.8"/>
</svg>
