<?xml version="1.0" encoding="utf-8"?>
<!-- Generator: Adobe Illustrator 29.7.1, SVG Export Plug-In . SVG Version: 9.03 Build 0)  -->
<svg version="1.1" id="Layer_1" xmlns="http://www.w3.org/2000/svg" xmlns:xlink="http://www.w3.org/1999/xlink" x="0px" y="0px"
	 viewBox="0 0 353.2 29.2" style="enable-background:new 0 0 353.2 29.2;" xml:space="preserve">
<style type="text/css">
	.st0{fill:#0050D8;}
	.st1{fill:#FFFFFF;}
	
		.st2{clip-path:url(#SVGID_00000033351934080165249330000005210674755575039907_);fill-rule:evenodd;clip-rule:evenodd;fill:#0050D8;}
	.st3{fill-rule:evenodd;clip-rule:evenodd;fill:none;}
	
		.st4{clip-path:url(#SVGID_00000119103714979020523020000008035940121028013700_);fill-rule:evenodd;clip-rule:evenodd;fill:#0050D8;}
	.st5{fill-rule:evenodd;clip-rule:evenodd;fill:#0050D8;}
	
		.st6{clip-path:url(#SVGID_00000039105690058962642590000011679494449721089962_);fill-rule:evenodd;clip-rule:evenodd;fill:#C9C9C9;}
	.st7{fill:#757575;}
</style>
<path class="st0" d="M0,26.2V3c0-0.4,0.1-0.8,0.2-1.1c0.2-0.4,0.4-0.7,0.7-1c0.3-0.3,0.6-0.5,1-0.7C2.2,0.1,2.6,0,3,0h69.8
	c0.4,0,0.8,0.1,1.1,0.2c0.4,0.2,0.7,0.4,1,0.7c0.3,0.3,0.5,0.6,0.7,1c0.2,0.4,0.2,0.8,0.2,1.1v23.2c0,0.4-0.1,0.8-0.2,1.1
	c-0.2,0.4-0.4,0.7-0.7,1s-0.6,0.5-1,0.7c-0.4,0.2-0.8,0.2-1.1,0.2H3c-0.4,0-0.8-0.1-1.1-0.2c-0.4-0.2-0.7-0.4-1-0.7
	c-0.3-0.3-0.5-0.6-0.7-1C0.1,27,0,26.6,0,26.2z"/>
<g>
	<path class="st1" d="M34.3,10.5h2.8c0.4,0,0.8,0,1.2,0.1s0.7,0.2,1,0.3c0.3,0.2,0.5,0.4,0.6,0.6s0.2,0.6,0.2,1c0,0.2,0,0.4-0.1,0.6
		c-0.1,0.2-0.1,0.4-0.2,0.5c-0.1,0.2-0.3,0.3-0.4,0.4c-0.2,0.1-0.4,0.2-0.6,0.3v0.1c0.6,0.1,1,0.3,1.3,0.6s0.5,0.8,0.5,1.3
		c0,0.4-0.1,0.8-0.2,1.1c-0.2,0.3-0.4,0.6-0.7,0.8c-0.3,0.2-0.6,0.3-1,0.4c-0.4,0.1-0.8,0.1-1.3,0.1h-3.1V10.5z M37.1,13.8
		c0.5,0,0.8-0.1,1-0.3s0.3-0.4,0.3-0.7c0-0.3-0.1-0.5-0.3-0.7c-0.2-0.1-0.5-0.2-1-0.2h-0.9v1.9H37.1z M37.2,17.3
		c1,0,1.5-0.4,1.5-1.1c0-0.4-0.1-0.6-0.4-0.8c-0.3-0.2-0.6-0.2-1.2-0.2h-1.1v2.2H37.2z"/>
</g>
<g>
	<path class="st1" d="M41.6,17c0-0.7,0.3-1.2,0.8-1.6s1.5-0.6,2.7-0.8c0-0.3-0.1-0.5-0.3-0.7c-0.2-0.2-0.4-0.2-0.7-0.2
		c-0.3,0-0.5,0.1-0.8,0.2c-0.3,0.1-0.6,0.2-0.9,0.4l-0.7-1.2c0.4-0.2,0.8-0.4,1.3-0.6c0.4-0.2,0.9-0.2,1.4-0.2
		c0.8,0,1.4,0.2,1.9,0.7c0.4,0.5,0.6,1.2,0.6,2.2v3.6h-1.5l-0.1-0.6h0c-0.3,0.2-0.6,0.4-0.9,0.6c-0.3,0.1-0.6,0.2-1,0.2
		c-0.3,0-0.5,0-0.8-0.1c-0.2-0.1-0.4-0.2-0.6-0.4s-0.3-0.4-0.4-0.6C41.7,17.5,41.6,17.3,41.6,17z M43.4,16.9c0,0.2,0.1,0.4,0.2,0.5
		c0.1,0.1,0.3,0.1,0.5,0.1c0.2,0,0.4,0,0.6-0.1c0.2-0.1,0.3-0.2,0.5-0.4v-1.1c-0.7,0.1-1.1,0.2-1.4,0.4
		C43.5,16.4,43.4,16.6,43.4,16.9z"/>
</g>
<g>
	<path class="st1" d="M48.2,15.6c0-0.5,0.1-1,0.3-1.4c0.2-0.4,0.4-0.8,0.7-1c0.3-0.3,0.7-0.5,1-0.6s0.8-0.2,1.2-0.2
		c0.4,0,0.7,0.1,1.1,0.2s0.6,0.3,0.8,0.5l-0.9,1.2c-0.3-0.2-0.6-0.4-0.9-0.4c-0.5,0-0.8,0.2-1.1,0.5c-0.3,0.3-0.4,0.8-0.4,1.3
		c0,0.6,0.1,1,0.4,1.3c0.3,0.3,0.6,0.5,1,0.5c0.2,0,0.4,0,0.6-0.1s0.4-0.2,0.5-0.3l0.8,1.2c-0.3,0.3-0.6,0.5-1,0.6
		c-0.4,0.1-0.7,0.2-1.1,0.2c-0.4,0-0.8-0.1-1.2-0.2c-0.4-0.1-0.7-0.4-1-0.6s-0.5-0.6-0.7-1C48.3,16.6,48.2,16.1,48.2,15.6z"/>
</g>
<g>
	<path class="st1" d="M54.5,9.8h1.8v5.1h0.1l2-2.5h2L58.2,15l2.4,3.7h-2l-1.4-2.5l-0.8,0.9v1.6h-1.8V9.8z"/>
</g>
<g>
	<defs>
		<path id="SVGID_1_" d="M257.2,26.2V3c0-0.8,0.3-1.5,0.9-2.1s1.3-0.9,2.1-0.9h90c0.8,0,1.5,0.3,2.1,0.9c0.6,0.6,0.9,1.3,0.9,2.1
			v23.2c0,0.8-0.3,1.5-0.9,2.1c-0.6,0.6-1.3,0.9-2.1,0.9h-90c-0.8,0-1.5-0.3-2.1-0.9C257.5,27.8,257.2,27.1,257.2,26.2z"/>
	</defs>
	<clipPath id="SVGID_00000054237877959605008480000009566885433738596239_">
		<use xlink:href="#SVGID_1_"  style="overflow:visible;"/>
	</clipPath>
	
		<path style="clip-path:url(#SVGID_00000054237877959605008480000009566885433738596239_);fill-rule:evenodd;clip-rule:evenodd;fill:#0050D8;" d="
		M258.8,26.2V3c0-0.2,0-0.4,0.1-0.6s0.2-0.3,0.3-0.5c0.1-0.1,0.3-0.2,0.5-0.3c0.2-0.1,0.4-0.1,0.6-0.1h90c0.2,0,0.4,0,0.6,0.1
		c0.2,0.1,0.3,0.2,0.5,0.3c0.1,0.1,0.2,0.3,0.3,0.5c0.1,0.2,0.1,0.4,0.1,0.6v23.2c0,0.2,0,0.4-0.1,0.6c-0.1,0.2-0.2,0.3-0.3,0.5
		c-0.1,0.1-0.3,0.2-0.5,0.3c-0.2,0.1-0.4,0.1-0.6,0.1h-90c-0.2,0-0.4,0-0.6-0.1c-0.2-0.1-0.3-0.2-0.5-0.3c-0.1-0.1-0.2-0.3-0.3-0.5
		C258.8,26.6,258.7,26.4,258.8,26.2z M257.2,29.2V0h96v29.2H257.2z"/>
</g>
<g>
	<path class="st0" d="M271.9,10.5h2l1,3.9c0.1,0.5,0.2,0.9,0.3,1.3c0.1,0.4,0.2,0.9,0.3,1.3h0.1c0.1-0.5,0.2-0.9,0.3-1.3
		c0.1-0.4,0.2-0.9,0.3-1.3l1-3.9h1.9l-2.5,8.3h-2.2L271.9,10.5z"/>
</g>
<g>
	<path class="st0" d="M279.3,15.6c0-0.5,0.1-1,0.3-1.4c0.2-0.4,0.4-0.8,0.7-1c0.3-0.3,0.6-0.5,0.9-0.7c0.4-0.2,0.7-0.2,1.1-0.2
		c0.4,0,0.8,0.1,1.2,0.2c0.3,0.2,0.6,0.4,0.8,0.6c0.2,0.3,0.4,0.6,0.5,1c0.1,0.4,0.2,0.8,0.2,1.2c0,0.2,0,0.3,0,0.5
		c0,0.1,0,0.2-0.1,0.3h-3.8c0.1,0.5,0.3,0.8,0.6,1c0.3,0.2,0.7,0.3,1.1,0.3c0.4,0,0.9-0.1,1.4-0.4l0.6,1.1c-0.3,0.2-0.7,0.4-1.1,0.5
		s-0.8,0.2-1.2,0.2c-0.4,0-0.9-0.1-1.3-0.2c-0.4-0.1-0.7-0.4-1-0.6c-0.3-0.3-0.5-0.6-0.7-1C279.4,16.6,279.3,16.1,279.3,15.6z
		 M283.4,14.9c0-0.4-0.1-0.7-0.2-0.9c-0.2-0.2-0.4-0.3-0.8-0.3c-0.3,0-0.6,0.1-0.8,0.3s-0.4,0.5-0.4,0.9H283.4z"/>
</g>
<g>
	<path class="st0" d="M286.2,12.4h1.5l0.1,1.1h0.1c0.2-0.4,0.5-0.8,0.8-1s0.6-0.3,1-0.3c0.2,0,0.3,0,0.4,0c0.1,0,0.2,0.1,0.3,0.1
		l-0.3,1.6c-0.1,0-0.2-0.1-0.3-0.1c-0.1,0-0.2,0-0.4,0c-0.2,0-0.5,0.1-0.7,0.3c-0.3,0.2-0.5,0.5-0.6,0.9v3.7h-1.9V12.4z"/>
</g>
<g>
	<path class="st0" d="M291.5,16.9c0.3,0.2,0.6,0.4,0.8,0.5c0.3,0.1,0.5,0.2,0.8,0.2c0.3,0,0.5,0,0.6-0.1c0.1-0.1,0.2-0.2,0.2-0.4
		c0-0.1,0-0.2-0.1-0.3c-0.1-0.1-0.2-0.2-0.3-0.2c-0.1-0.1-0.3-0.1-0.4-0.2c-0.2-0.1-0.3-0.1-0.5-0.2c-0.2-0.1-0.4-0.2-0.6-0.3
		c-0.2-0.1-0.4-0.2-0.5-0.4s-0.3-0.3-0.4-0.5c-0.1-0.2-0.2-0.4-0.2-0.7c0-0.3,0.1-0.6,0.2-0.8c0.1-0.2,0.3-0.5,0.5-0.6
		s0.5-0.3,0.8-0.4c0.3-0.1,0.6-0.1,1-0.1c0.5,0,0.9,0.1,1.3,0.2c0.4,0.2,0.7,0.3,1,0.6l-0.8,1.1c-0.2-0.2-0.5-0.3-0.7-0.4
		c-0.2-0.1-0.4-0.1-0.7-0.1c-0.5,0-0.7,0.2-0.7,0.5c0,0.1,0,0.2,0.1,0.3c0.1,0.1,0.2,0.1,0.3,0.2c0.1,0.1,0.2,0.1,0.4,0.2
		c0.1,0.1,0.3,0.1,0.5,0.2c0.2,0.1,0.4,0.2,0.6,0.3c0.2,0.1,0.4,0.2,0.5,0.4c0.2,0.1,0.3,0.3,0.4,0.5s0.2,0.5,0.2,0.7
		s-0.1,0.6-0.2,0.8c-0.1,0.2-0.3,0.5-0.5,0.6c-0.2,0.2-0.5,0.3-0.8,0.4c-0.3,0.1-0.7,0.2-1.1,0.2c-0.4,0-0.8-0.1-1.3-0.2
		c-0.4-0.2-0.8-0.4-1.1-0.6L291.5,16.9z"/>
	<path class="st0" d="M297.8,11.5c-0.3,0-0.6-0.1-0.8-0.3c-0.2-0.2-0.3-0.4-0.3-0.7c0-0.3,0.1-0.5,0.3-0.7c0.2-0.2,0.5-0.3,0.8-0.3
		c0.3,0,0.6,0.1,0.8,0.3c0.2,0.2,0.3,0.4,0.3,0.7c0,0.3-0.1,0.5-0.3,0.7C298.3,11.4,298.1,11.5,297.8,11.5z M296.8,12.4h1.9v6.3
		h-1.9V12.4z"/>
</g>
<g>
	<path class="st0" d="M300,15.6c0-0.5,0.1-1,0.3-1.4c0.2-0.4,0.4-0.8,0.7-1c0.3-0.3,0.6-0.5,1-0.6c0.4-0.1,0.8-0.2,1.2-0.2
		c0.4,0,0.8,0.1,1.2,0.2s0.7,0.4,1,0.6c0.3,0.3,0.5,0.6,0.7,1c0.2,0.4,0.3,0.9,0.3,1.4c0,0.5-0.1,1-0.3,1.4c-0.2,0.4-0.4,0.8-0.7,1
		c-0.3,0.3-0.6,0.5-1,0.6c-0.4,0.1-0.8,0.2-1.2,0.2c-0.4,0-0.8-0.1-1.2-0.2c-0.4-0.1-0.7-0.4-1-0.6c-0.3-0.3-0.5-0.6-0.7-1
		S300,16.1,300,15.6z M301.9,15.6c0,0.6,0.1,1,0.3,1.3c0.2,0.3,0.5,0.5,0.9,0.5c0.4,0,0.7-0.2,0.9-0.5s0.3-0.8,0.3-1.3
		c0-0.6-0.1-1-0.3-1.3c-0.2-0.3-0.5-0.5-0.9-0.5c-0.4,0-0.7,0.2-0.9,0.5C302,14.6,301.9,15,301.9,15.6z"/>
</g>
<g>
	<path class="st0" d="M307.4,12.4h1.5l0.1,0.8h0.1c0.3-0.3,0.6-0.5,0.9-0.7c0.3-0.2,0.7-0.3,1.1-0.3c0.7,0,1.2,0.2,1.5,0.7
		c0.3,0.4,0.5,1.1,0.5,1.9v3.9h-1.9v-3.7c0-0.5-0.1-0.8-0.2-0.9c-0.1-0.2-0.3-0.3-0.6-0.3c-0.2,0-0.4,0.1-0.6,0.2s-0.4,0.3-0.6,0.5
		v4.3h-1.9V12.4z"/>
</g>
<g>
	<path class="st0" d="M314.9,16.9c0.3,0.2,0.6,0.4,0.8,0.5c0.3,0.1,0.5,0.2,0.8,0.2c0.3,0,0.5,0,0.6-0.1c0.1-0.1,0.2-0.2,0.2-0.4
		c0-0.1,0-0.2-0.1-0.3c-0.1-0.1-0.2-0.2-0.3-0.2c-0.1-0.1-0.3-0.1-0.4-0.2c-0.2-0.1-0.3-0.1-0.5-0.2c-0.2-0.1-0.4-0.2-0.6-0.3
		c-0.2-0.1-0.4-0.2-0.5-0.4s-0.3-0.3-0.4-0.5c-0.1-0.2-0.2-0.4-0.2-0.7c0-0.3,0.1-0.6,0.2-0.8c0.1-0.2,0.3-0.5,0.5-0.6
		s0.5-0.3,0.8-0.4c0.3-0.1,0.6-0.1,1-0.1c0.5,0,0.9,0.1,1.3,0.2c0.4,0.2,0.7,0.3,1,0.6l-0.8,1.1c-0.2-0.2-0.5-0.3-0.7-0.4
		c-0.2-0.1-0.4-0.1-0.7-0.1c-0.5,0-0.7,0.2-0.7,0.5c0,0.1,0,0.2,0.1,0.3c0.1,0.1,0.2,0.1,0.3,0.2c0.1,0.1,0.2,0.1,0.4,0.2
		c0.1,0.1,0.3,0.1,0.5,0.2c0.2,0.1,0.4,0.2,0.6,0.3c0.2,0.1,0.4,0.2,0.5,0.4c0.2,0.1,0.3,0.3,0.4,0.5s0.2,0.5,0.2,0.7
		s-0.1,0.6-0.2,0.8c-0.1,0.2-0.3,0.5-0.5,0.6c-0.2,0.2-0.5,0.3-0.8,0.4c-0.3,0.1-0.7,0.2-1.1,0.2c-0.4,0-0.8-0.1-1.3-0.2
		c-0.4-0.2-0.8-0.4-1.1-0.6L314.9,16.9z"/>
</g>
<polygon class="st1" points="25.6,14.1 19.1,14.1 22.1,11.1 21.4,10.4 17.1,14.6 21.4,18.8 22.1,18.1 19.1,15.1 25.6,15.1 "/>
<rect x="15" y="8.2" class="st3" width="12" height="12.8"/>
<g>
	<defs>
		<path id="SVGID_00000121972006356396356800000014239894044839381391_" d="M81.8,26.2V3c0-0.8,0.3-1.5,0.9-2.1S83.9,0,84.8,0H135
			v29.2H84.8c-0.8,0-1.5-0.3-2.1-0.9C82,27.8,81.7,27.1,81.8,26.2z"/>
	</defs>
	<clipPath id="SVGID_00000143596663816230222220000012979585432219590045_">
		<use xlink:href="#SVGID_00000121972006356396356800000014239894044839381391_"  style="overflow:visible;"/>
	</clipPath>
	
		<path style="clip-path:url(#SVGID_00000143596663816230222220000012979585432219590045_);fill-rule:evenodd;clip-rule:evenodd;fill:#0050D8;" d="
		M83.2,26.2V3c0-0.2,0-0.4,0.1-0.6c0.1-0.2,0.2-0.3,0.3-0.5c0.1-0.1,0.3-0.2,0.5-0.3c0.2-0.1,0.4-0.1,0.6-0.1h48.8v26.2H84.8
		c-0.2,0-0.4,0-0.6-0.1c-0.2-0.1-0.3-0.2-0.5-0.3c-0.1-0.1-0.2-0.3-0.3-0.5C83.3,26.6,83.2,26.4,83.2,26.2z M81.8,29.2V0H135v29.2
		H81.8z"/>
</g>
<g>
	<path class="st0" d="M99.2,12H97v-1.6h6.4V12h-2.3v6.7h-1.9V12z"/>
</g>
<g>
	<path class="st0" d="M103.2,15.6c0-0.5,0.1-1,0.3-1.4c0.2-0.4,0.4-0.8,0.7-1c0.3-0.3,0.6-0.5,0.9-0.7c0.4-0.2,0.7-0.2,1.1-0.2
		c0.4,0,0.8,0.1,1.2,0.2c0.3,0.2,0.6,0.4,0.8,0.6c0.2,0.3,0.4,0.6,0.5,1c0.1,0.4,0.2,0.8,0.2,1.2c0,0.2,0,0.3,0,0.5
		c0,0.1,0,0.2-0.1,0.3H105c0.1,0.5,0.3,0.8,0.6,1c0.3,0.2,0.7,0.3,1.1,0.3c0.4,0,0.9-0.1,1.4-0.4l0.6,1.1c-0.3,0.2-0.7,0.4-1.1,0.5
		s-0.8,0.2-1.2,0.2c-0.4,0-0.9-0.1-1.3-0.2c-0.4-0.1-0.7-0.4-1-0.6c-0.3-0.3-0.5-0.6-0.7-1C103.3,16.6,103.2,16.1,103.2,15.6z
		 M107.3,14.9c0-0.4-0.1-0.7-0.2-0.9c-0.2-0.2-0.4-0.3-0.8-0.3c-0.3,0-0.6,0.1-0.8,0.3s-0.4,0.5-0.4,0.9H107.3z"/>
</g>
<g>
	<path class="st0" d="M111.2,15.5l-1.8-3h2l0.6,1c0.1,0.2,0.2,0.4,0.3,0.5c0.1,0.2,0.2,0.4,0.3,0.5h0.1c0.1-0.2,0.1-0.4,0.2-0.5
		s0.1-0.4,0.2-0.5l0.4-1h1.9l-1.8,3.2l1.9,3.1h-2l-0.6-1c-0.1-0.2-0.2-0.4-0.3-0.5c-0.1-0.2-0.2-0.4-0.3-0.5h-0.1
		c-0.1,0.2-0.2,0.4-0.2,0.5c-0.1,0.2-0.2,0.4-0.2,0.6l-0.5,1h-1.9L111.2,15.5z"/>
</g>
<g>
	<path class="st0" d="M116.4,13.9h-0.9v-1.4l1-0.1l0.2-1.7h1.6v1.7h1.5v1.5h-1.5v2.5c0,0.4,0.1,0.6,0.2,0.8c0.1,0.2,0.3,0.2,0.6,0.2
		c0.1,0,0.2,0,0.3,0s0.2-0.1,0.3-0.1l0.3,1.4c-0.2,0.1-0.4,0.1-0.6,0.2c-0.2,0.1-0.5,0.1-0.8,0.1c-0.4,0-0.7-0.1-1-0.2
		s-0.5-0.3-0.7-0.5s-0.3-0.5-0.4-0.8c-0.1-0.3-0.1-0.6-0.1-1V13.9z"/>
</g>
<path class="st5" d="M135,27.8V1.5h57.8v26.2H135z M133.5,29.2V0h60.8v29.2H133.5z"/>
<rect x="133.5" class="st3" width="60.8" height="29.2"/>
<g>
	<path class="st0" d="M150.2,16.5c0.2,0.3,0.3,0.5,0.5,0.6c0.2,0.1,0.4,0.2,0.6,0.2c0.3,0,0.6-0.1,0.8-0.3c0.2-0.2,0.3-0.6,0.3-1.1
		v-5.4h1.9V16c0,0.4-0.1,0.8-0.2,1.1c-0.1,0.4-0.3,0.7-0.5,0.9c-0.2,0.3-0.5,0.5-0.8,0.6c-0.3,0.2-0.7,0.2-1.2,0.2
		c-0.6,0-1.2-0.1-1.6-0.4c-0.4-0.2-0.8-0.6-1.1-1.1L150.2,16.5z"/>
</g>
<g>
	<path class="st0" d="M156.7,16.4c0.3,0.3,0.6,0.5,1,0.6c0.4,0.2,0.7,0.2,1.1,0.2c0.4,0,0.7-0.1,0.9-0.2c0.2-0.1,0.3-0.3,0.3-0.6
		c0-0.1,0-0.2-0.1-0.3s-0.1-0.2-0.2-0.2c-0.1-0.1-0.2-0.1-0.4-0.2c-0.1-0.1-0.3-0.1-0.5-0.2l-1.1-0.5c-0.2-0.1-0.4-0.2-0.6-0.3
		s-0.4-0.3-0.5-0.5c-0.2-0.2-0.3-0.4-0.4-0.6c-0.1-0.2-0.1-0.5-0.1-0.8c0-0.3,0.1-0.7,0.2-1c0.1-0.3,0.3-0.6,0.6-0.8
		s0.6-0.4,0.9-0.5c0.4-0.1,0.8-0.2,1.2-0.2c0.5,0,1,0.1,1.4,0.3c0.5,0.2,0.9,0.5,1.2,0.8l-1,1.2c-0.3-0.2-0.5-0.4-0.8-0.5
		c-0.3-0.1-0.6-0.2-0.9-0.2c-0.3,0-0.6,0.1-0.8,0.2c-0.2,0.1-0.3,0.3-0.3,0.6c0,0.1,0,0.2,0.1,0.3c0.1,0.1,0.2,0.2,0.3,0.2
		c0.1,0.1,0.2,0.1,0.4,0.2c0.2,0.1,0.3,0.1,0.5,0.2l1.1,0.4c0.5,0.2,0.9,0.5,1.2,0.8s0.4,0.8,0.4,1.4c0,0.3-0.1,0.7-0.2,1
		c-0.1,0.3-0.3,0.6-0.6,0.8c-0.3,0.2-0.6,0.4-1,0.6c-0.4,0.1-0.8,0.2-1.3,0.2c-0.5,0-1.1-0.1-1.6-0.3c-0.5-0.2-1-0.5-1.4-0.9
		L156.7,16.4z"/>
</g>
<g>
	<path class="st0" d="M166.6,18.9c-0.6,0-1.1-0.1-1.5-0.3c-0.5-0.2-0.9-0.5-1.2-0.9c-0.3-0.4-0.6-0.8-0.8-1.4
		c-0.2-0.5-0.3-1.1-0.3-1.8c0-0.7,0.1-1.3,0.3-1.8c0.2-0.5,0.4-1,0.8-1.3c0.3-0.4,0.7-0.6,1.2-0.8c0.5-0.2,1-0.3,1.5-0.3
		s1.1,0.1,1.5,0.3c0.5,0.2,0.9,0.5,1.2,0.8c0.3,0.4,0.6,0.8,0.8,1.3c0.2,0.5,0.3,1.1,0.3,1.8c0,0.7-0.1,1.3-0.3,1.8
		c-0.2,0.5-0.4,1-0.8,1.4c-0.3,0.4-0.7,0.7-1.2,0.9C167.6,18.8,167.1,18.9,166.6,18.9z M166.6,17.3c0.6,0,1-0.2,1.3-0.7
		s0.5-1.2,0.5-2c0-0.8-0.2-1.5-0.5-1.9c-0.3-0.5-0.8-0.7-1.3-0.7s-1,0.2-1.3,0.7c-0.3,0.5-0.5,1.1-0.5,1.9c0,0.8,0.2,1.5,0.5,2
		S166,17.3,166.6,17.3z"/>
</g>
<g>
	<path class="st0" d="M171.9,10.5h1.9l2.2,4.1l0.8,1.8h0.1c0-0.4-0.1-0.9-0.1-1.5c-0.1-0.5-0.1-1.1-0.1-1.6v-2.9h1.8v8.3h-1.9
		l-2.2-4.1l-0.8-1.8h-0.1c0,0.5,0.1,0.9,0.1,1.5s0.1,1,0.1,1.5v2.9h-1.8V10.5z"/>
</g>
<g>
	<defs>
		<path id="SVGID_00000023264118907618389560000005729554571572015268_" d="M192.8,29.2V0h49.5c0.8,0,1.5,0.3,2.1,0.9
			c0.6,0.6,0.9,1.3,0.9,2.1v23.2c0,0.8-0.3,1.5-0.9,2.1c-0.6,0.6-1.3,0.9-2.1,0.9H192.8z"/>
	</defs>
	<clipPath id="SVGID_00000031169184862554574610000015278549700255088560_">
		<use xlink:href="#SVGID_00000023264118907618389560000005729554571572015268_"  style="overflow:visible;"/>
	</clipPath>
	
		<path style="clip-path:url(#SVGID_00000031169184862554574610000015278549700255088560_);fill-rule:evenodd;clip-rule:evenodd;fill:#C9C9C9;" d="
		M194.2,27.8V1.5h48c0.2,0,0.4,0,0.6,0.1c0.2,0.1,0.3,0.2,0.5,0.3c0.1,0.1,0.2,0.3,0.3,0.5s0.1,0.4,0.1,0.6v23.2
		c0,0.2,0,0.4-0.1,0.6c-0.1,0.2-0.2,0.3-0.3,0.5c-0.1,0.1-0.3,0.2-0.5,0.3c-0.2,0.1-0.4,0.1-0.6,0.1H194.2z M192.8,29.2V0h52.5v29.2
		H192.8z"/>
</g>
<g>
	<path class="st7" d="M208.5,14.7c0-0.7,0.1-1.3,0.3-1.8s0.5-1,0.9-1.4c0.4-0.4,0.8-0.7,1.3-0.9c0.5-0.2,1-0.3,1.5-0.3
		c0.5,0,1,0.1,1.4,0.3c0.4,0.2,0.8,0.5,1,0.8l-1,1.2c-0.2-0.2-0.4-0.3-0.6-0.5c-0.2-0.1-0.5-0.2-0.8-0.2c-0.3,0-0.6,0.1-0.8,0.2
		c-0.2,0.1-0.5,0.3-0.7,0.5c-0.2,0.2-0.3,0.5-0.4,0.8s-0.2,0.7-0.2,1.1c0,0.9,0.2,1.5,0.5,2c0.4,0.5,0.9,0.7,1.5,0.7
		c0.3,0,0.6-0.1,0.9-0.2c0.3-0.1,0.5-0.3,0.7-0.5l1,1.1c-0.3,0.4-0.7,0.7-1.2,0.9c-0.4,0.2-0.9,0.3-1.4,0.3c-0.5,0-1-0.1-1.5-0.3
		s-0.9-0.5-1.2-0.8s-0.6-0.8-0.8-1.3C208.6,16,208.5,15.4,208.5,14.7z"/>
</g>
<g>
	<path class="st7" d="M217,11.5c-0.3,0-0.6-0.1-0.8-0.3c-0.2-0.2-0.3-0.4-0.3-0.7c0-0.3,0.1-0.5,0.3-0.7c0.2-0.2,0.5-0.3,0.8-0.3
		c0.3,0,0.6,0.1,0.8,0.3c0.2,0.2,0.3,0.4,0.3,0.7c0,0.3-0.1,0.5-0.3,0.7C217.6,11.4,217.3,11.5,217,11.5z M216.1,12.4h1.9v6.3h-1.9
		V12.4z"/>
</g>
<g>
	<path class="st7" d="M219.9,13.9H219v-1.4l1-0.1l0.2-1.7h1.6v1.7h1.5v1.5h-1.5v2.5c0,0.4,0.1,0.6,0.2,0.8c0.1,0.2,0.3,0.2,0.6,0.2
		c0.1,0,0.2,0,0.3,0s0.2-0.1,0.3-0.1l0.3,1.4c-0.2,0.1-0.4,0.1-0.6,0.2c-0.2,0.1-0.5,0.1-0.8,0.1c-0.4,0-0.7-0.1-1-0.2
		s-0.5-0.3-0.7-0.5s-0.3-0.5-0.4-0.8c-0.1-0.3-0.1-0.6-0.1-1V13.9z"/>
</g>
<g>
	<path class="st7" d="M223.9,15.6c0-0.5,0.1-1,0.3-1.4c0.2-0.4,0.4-0.8,0.7-1c0.3-0.3,0.6-0.5,0.9-0.7c0.4-0.2,0.7-0.2,1.1-0.2
		c0.4,0,0.8,0.1,1.2,0.2c0.3,0.2,0.6,0.4,0.8,0.6c0.2,0.3,0.4,0.6,0.5,1c0.1,0.4,0.2,0.8,0.2,1.2c0,0.2,0,0.3,0,0.5
		c0,0.1,0,0.2-0.1,0.3h-3.8c0.1,0.5,0.3,0.8,0.6,1c0.3,0.2,0.7,0.3,1.1,0.3c0.4,0,0.9-0.1,1.4-0.4l0.6,1.1c-0.3,0.2-0.7,0.4-1.1,0.5
		s-0.8,0.2-1.2,0.2c-0.4,0-0.9-0.1-1.3-0.2c-0.4-0.1-0.7-0.4-1-0.6c-0.3-0.3-0.5-0.6-0.7-1C224,16.6,223.9,16.1,223.9,15.6z
		 M227.9,14.9c0-0.4-0.1-0.7-0.2-0.9c-0.2-0.2-0.4-0.3-0.8-0.3c-0.3,0-0.6,0.1-0.8,0.3s-0.4,0.5-0.4,0.9H227.9z"/>
</g>
<polygon class="st0" points="334.3,12.8 331.9,15.2 329.4,12.8 328.7,13.5 331.9,16.7 335,13.5 "/>
<rect x="325.5" y="8.2" class="st3" width="12.8" height="12.8"/>
</svg>
