<?xml version="1.0" encoding="UTF-8" standalone="no"?>
<!-- Created with Inkscape (http://www.inkscape.org/) -->

<svg
   version="1.1"
   id="svg2"
   width="818.66669"
   height="780"
   viewBox="0 0 818.66669 780"
   sodipodi:docname="logo_svom_black.svg"
   inkscape:version="1.1.2 (0a00cf5339, 2022-02-04)"
   xmlns:inkscape="http://www.inkscape.org/namespaces/inkscape"
   xmlns:sodipodi="http://sodipodi.sourceforge.net/DTD/sodipodi-0.dtd"
   xmlns="http://www.w3.org/2000/svg"
   xmlns:svg="http://www.w3.org/2000/svg">
  <defs
     id="defs6" />
  <sodipodi:namedview
     id="namedview4"
     pagecolor="#ffffff"
     bordercolor="#666666"
     borderopacity="1.0"
     inkscape:pageshadow="2"
     inkscape:pageopacity="0.0"
     inkscape:pagecheckerboard="0"
     showgrid="false"
     inkscape:snap-bbox="true"
     inkscape:snap-global="true"
     inkscape:zoom="0.79141567"
     inkscape:cx="-26.534729"
     inkscape:cy="339.89724"
     inkscape:window-width="2556"
     inkscape:window-height="1391"
     inkscape:window-x="0"
     inkscape:window-y="22"
     inkscape:window-maximized="1"
     inkscape:current-layer="g8" />
  <g
     inkscape:groupmode="layer"
     inkscape:label="Image"
     id="g8">
    <g
       id="g1518"
       transform="translate(-0.07550151,1.5660048)">
      <path
         style="fill:#febd00;stroke-width:1.33333"
         d="m 520.00001,455.16607 c -90.69157,-85.70654 -111.09707,-90.96987 -177.65424,-45.8236 -9.72351,6.59553 -20.52909,14.14913 -24.01243,16.78578 -11.41829,8.64288 -6.67746,3.76107 14.8225,-15.26332 48.20146,-42.65137 52.44368,-54.13529 28.2613,-76.50492 -11.8206,-10.9345 -31.57684,-22.64458 -74.36212,-44.07654 -19.21975,-9.62752 -34.76936,-17.68023 -34.55471,-17.89488 0.21467,-0.21467 11.43991,4.48537 24.945,10.44452 53.09999,23.43049 84.23713,34.50022 97.04281,34.50022 23.19541,0 30.59736,-18.32906 26.92245,-66.66666 -2.94689,-38.76176 -2.97232,-39.68686 -0.69644,-25.33334 16.21694,102.27711 26.69203,109.85956 88.98198,64.41016 36.34778,-26.52089 41.16949,-28.56356 14.69525,-6.2255 C 432.94552,343.80153 434.42024,359.497 520.03381,450 c 17.27914,18.26595 23.99385,26.072 22.34645,25.9784 -0.20914,-0.012 -10.28024,-9.37744 -22.38025,-20.81233 z M 403.07146,357.82145 c 10.04911,-2.6777 20.64359,-1.39501 30.65251,3.71116 2.86062,1.45938 5.51064,2.3439 5.88896,1.96559 0.66447,-0.66448 -7.43738,-6.14977 -9.09825,-6.15988 -0.45027,-0.003 -2.4702,-2.38815 -4.48873,-5.30091 -4.35915,-6.29024 -3.92171,-12.24649 1.36045,-18.52397 4.9746,-5.91199 4.01219,-5.9432 -4.27409,-0.13863 -10.57683,7.40908 -23.94542,6.71939 -33.35033,-1.72057 -1.59757,-1.43367 -3.68532,-2.34645 -4.63942,-2.02843 -1.09582,0.36528 -0.32227,1.50375 2.10021,3.09102 4.82041,3.15845 11.44391,12.18666 11.44391,15.59872 0,1.42016 -3.38236,5.88434 -7.51635,9.92041 l -7.51635,7.33831 5.27998,-2.69364 c 2.90398,-1.48151 9.27485,-3.75814 14.1575,-5.05918 z"
         id="path1524" />
      <path
         style="fill:#f67f00;stroke-width:1.33333"
         d="m 46.387423,350 c 2.365902,-4.41332 17.885304,-23.18541 30.313323,-36.66667 66.096394,-71.69781 162.625064,-126.90624 273.965934,-156.69157 49.13481,-13.14429 58.43984,-13.82545 90.77699,-6.64527 128.44043,28.51914 245.1113,94.38211 314.39334,177.48114 20.41969,24.49202 20.61748,26.37365 0.77241,7.34861 C 680.53921,261.89936 577.41866,212.56067 450.00001,188.127 c -41.5894,-7.97513 -36.05886,-8.00548 -80,0.43881 -44.97987,8.6439 -65.79327,13.89178 -98,24.70964 C 187.44331,241.67707 116.95159,282.52059 64.81227,333.32181 53.892351,343.96148 45.601169,351.46667 46.387423,350 Z"
         id="path1522" />
      <path
         style="fill:#3f3f3f;stroke-width:1.33333"
         d="m 98.701465,574.58243 c -2.370921,-8.113 -4.098672,-14.88411 -3.839448,-15.04691 0.259226,-0.1628 5.843823,-2.002 12.410213,-4.08712 57.42777,-18.23577 78.43492,-55.83533 47.56867,-85.14055 -4.12916,-3.92032 -15.81883,-12.73213 -25.97706,-19.5818 -28.79552,-19.41676 -39.428371,-32.10093 -42.247352,-50.39782 -4.850011,-31.4795 15.211122,-62.3554 56.716852,-87.2924 6.1897,-3.71883 34.56751,-15.7025 37.18413,-15.7025 1.48174,0 7.48254,21.29031 7.48254,26.54736 0,3.11251 -1.96855,4.20487 -19.33334,10.7282 -30.16917,11.3335 -49.95123,30.58123 -49.98697,48.63682 -0.0278,14.02166 9.79123,25.18637 40.2499,45.76626 30.08858,20.32983 38.77687,30.43326 42.47309,49.39104 7.11925,36.51438 -18.65162,75.51082 -65.40269,98.96726 -7.53062,3.77833 -29.47685,11.96306 -32.07733,11.96306 -0.50074,0 -2.85028,-6.6379 -5.221205,-14.7509 z M 428.00001,586.5374 c -40.37825,-5.80583 -59.93123,-47.43733 -41.11112,-87.53237 19.50681,-41.55802 83.25574,-50.37452 108.14118,-14.95598 23.49677,33.44214 4.85752,88.78068 -33.64726,99.89612 -10.47358,3.02348 -23.40172,4.02736 -33.3828,2.59223 z m 34.89744,-16.26573 c 9.33838,-4.56884 16.14642,-11.96215 21.58495,-23.4405 5.59669,-11.81217 6.22741,-36.40425 1.21236,-47.2705 -8.02169,-17.38084 -18.24288,-23.88203 -38.79177,-24.67351 -22.31375,-0.85945 -36.63966,7.75371 -46.09946,27.71635 -6.04033,12.74665 -6.16048,35.01394 -0.25789,47.79713 4.49546,9.7358 13.88252,18.97525 22.48715,22.13355 9.56905,3.51229 30.48805,2.32502 39.86466,-2.26252 z m 93.10257,15.4903 c -2.56667,-1.11126 -4.85427,-2.19992 -5.08356,-2.41924 -0.2293,-0.2193 8.40944,-27.26704 19.19717,-60.10605 19.53365,-59.46244 19.62421,-59.69477 22.08548,-56.65524 1.35927,1.67861 9.03447,16.03451 17.056,31.90196 18.5872,36.76749 23.22532,45.49248 24.19051,45.50583 0.42841,0.005 10.59895,-16.7887 22.60119,-37.32138 12.00224,-20.53268 22.25458,-36.88268 22.78301,-36.33333 1.48712,1.54603 43.83687,109.23331 43.83687,111.46873 0,1.51834 -13.78667,6.2873 -14.55978,5.03639 -0.47316,-0.7656 -7.71209,-20.61772 -16.08652,-44.11583 C 683.64597,519.22572 676.37494,500 675.86257,500 c -1.15879,0 -18.5502,27.93988 -32.57531,52.33333 -5.79746,10.08334 -10.8774,18.33334 -11.28876,18.33334 -1.4552,0 -14.60782,-23.65622 -26.87284,-48.33334 -6.83404,-13.75 -12.78891,-25 -13.23307,-25 -0.44415,0 -2.15799,4.95 -3.80852,11 -1.65055,6.05 -6.91165,23.6 -11.69136,39 -4.77971,15.4 -9.54664,30.85 -10.59319,34.33334 -2.05862,6.85192 -2.75778,7.1441 -9.7995,4.0953 z M 281.62277,575.65716 c -17.56392,-33.80325 -53.62276,-104.69781 -53.62276,-105.42664 0,-1.25696 13.27126,-7.76316 14.38332,-7.05137 0.5225,0.33444 11.44316,21.65594 24.2681,47.38113 12.82496,25.72517 23.62496,46.75951 24,46.74295 0.37506,-0.0165 11.18191,-20.75495 24.01525,-46.08528 12.83333,-25.33035 23.73916,-46.32491 24.23516,-46.65458 0.88097,-0.58553 15.76484,4.52235 15.76484,5.41022 0,2.55276 -65.19303,116.7034 -66.63963,116.68357 -0.38154,-0.005 -3.26347,-4.95524 -6.40428,-11 z"
         id="path1520" />
    </g>
  </g>
</svg>
