<svg version="1.1" id="Layer_1" xmlns="http://www.w3.org/2000/svg" xmlns:xlink="http://www.w3.org/1999/xlink" x="0px" y="0px"
	 width="100%" viewBox="0 0 1271 940" enable-background="new 0 0 1271 940" xml:space="preserve">
<path fill="#FFFFFF" opacity="1.000000" stroke="none" 
	d="
M1.000000,311.000000 
	C1.000000,207.333328 1.000000,104.166664 1.000000,1.000000 
	C424.666656,1.000000 848.333313,1.000000 1272.000000,1.000000 
	C1272.000000,314.333344 1272.000000,627.666687 1272.000000,941.000000 
	C848.333313,941.000000 424.666656,941.000000 1.000000,941.000000 
	C1.000000,731.166687 1.000000,521.333313 1.000000,311.000000 
M221.966614,337.813904 
	C210.996307,320.532257 200.026001,303.250580 188.986084,285.859283 
	C186.136887,287.481537 183.590851,288.931183 181.133362,289.607361 
	C193.704178,253.876923 214.443695,223.657150 243.859421,199.909988 
	C288.329803,164.009262 339.147156,150.650970 395.106659,162.869308 
	C459.597656,176.950424 502.625946,217.757477 529.631897,276.747223 
	C531.085754,279.922943 532.565369,281.096802 536.119568,281.087891 
	C587.448669,280.958984 638.778320,281.001831 690.107788,280.989014 
	C691.669678,280.988617 693.231506,280.831482 694.755005,280.749481 
	C694.755005,279.986847 694.826782,279.640961 694.744812,279.336456 
	C678.671753,219.629959 649.610107,167.085602 606.705933,122.578239 
	C552.853638,66.713715 487.650024,32.162086 410.628357,20.597504 
	C371.007690,14.648576 331.540253,15.899080 292.475098,24.488327 
	C216.135101,41.273186 153.104996,80.354752 102.764069,139.899017 
	C65.689583,183.751480 40.966072,233.922516 27.610189,289.758881 
	C18.346104,328.488892 16.259678,367.651093 18.728352,407.325928 
	C20.056557,428.671906 27.488247,446.762482 42.185368,461.933228 
	C57.983440,478.240387 77.279709,488.413544 100.032318,488.783844 
	C151.168091,489.616089 202.322662,489.369263 253.469727,489.413239 
	C334.796936,489.483185 416.124237,489.405884 497.451508,489.445709 
	C526.912476,489.460114 546.998779,509.665527 546.999573,539.103210 
	C547.001343,601.098572 547.030151,663.093933 546.986206,725.089294 
	C546.967102,752.069824 526.117188,772.824524 499.083191,772.831482 
	C411.423065,772.854065 323.762939,772.859985 236.102905,772.776855 
	C231.985703,772.772949 227.757217,772.292297 223.771271,771.281555 
	C201.607422,765.661438 187.975296,747.389465 187.949966,723.276367 
	C187.889435,665.614075 187.929901,607.951599 187.929596,550.289246 
	C187.929581,548.339722 187.929596,546.390198 187.929596,544.322327 
	C134.034836,544.322327 80.655289,544.322327 27.000456,544.322327 
	C27.000456,546.620361 27.000456,548.598389 27.000456,550.576355 
	C27.000450,629.903748 26.996269,709.231201 27.004539,788.558594 
	C27.005930,801.890442 26.710861,815.233948 27.152866,828.552185 
	C28.953318,882.802124 71.642250,923.993530 125.841583,923.996643 
	C283.663116,924.005615 441.484680,924.007446 599.306213,923.995667 
	C654.355042,923.991516 697.858887,880.851868 697.898804,825.910278 
	C697.993225,696.086670 698.055725,566.262634 697.697021,436.440002 
	C697.667236,425.645264 695.870178,414.330170 692.308777,404.162537 
	C677.917297,363.076569 641.933594,338.199554 598.344421,338.180359 
	C474.353699,338.125763 350.362946,338.160858 226.372208,338.166687 
	C225.041138,338.166748 223.710083,338.247650 221.966614,337.813904 
M753.166077,691.500000 
	C753.166077,769.264709 753.166077,847.029419 753.166077,924.965698 
	C804.680359,924.965698 855.602539,924.965698 907.051208,924.965698 
	C907.051208,865.113708 907.051208,805.459473 907.051208,744.574341 
	C908.401489,746.794800 909.107971,747.857605 909.717468,748.973328 
	C924.596436,776.207642 943.204895,800.657349 965.299805,822.386719 
	C1012.458313,868.765015 1068.525024,899.196533 1132.621948,915.022339 
	C1161.187378,922.075195 1190.263672,925.106323 1219.629028,925.905334 
	C1224.070923,926.026184 1223.862549,923.596313 1223.860352,920.558289 
	C1223.823486,869.565125 1223.835938,818.571899 1223.824829,767.578735 
	C1223.824463,766.118530 1223.686523,764.658386 1223.623169,763.404358 
	C1222.997681,763.049194 1222.723389,762.777344 1222.422119,762.743042 
	C1221.268799,762.611694 1220.107910,762.506958 1218.947876,762.480591 
	C1201.040405,762.074036 1183.494385,759.458740 1166.433350,753.890625 
	C1123.018433,739.721436 1088.849609,713.857178 1067.011230,673.338562 
	C1044.834351,632.192322 1041.950928,589.054138 1060.638794,546.306213 
	C1086.973267,486.066742 1135.630615,454.603699 1199.538696,445.082520 
	C1207.377686,443.914703 1215.373657,443.800171 1223.833984,443.156647 
	C1223.833984,441.069519 1223.833984,439.280212 1223.833984,437.490906 
	C1223.833984,407.328278 1223.833984,377.165649 1223.833984,347.003021 
	C1223.833984,326.339111 1223.827637,305.675232 1223.842041,285.011322 
	C1223.843872,282.411346 1224.112061,280.105316 1220.115967,280.198975 
	C1189.233154,280.922333 1158.671143,284.197693 1128.759644,292.098816 
	C1043.836426,314.531372 974.816956,360.180176 924.557617,432.890625 
	C918.472168,441.694519 913.175598,451.043671 906.902161,461.122009 
	C906.902161,400.221497 906.902161,340.370667 906.902161,280.432922 
	C855.491394,280.432922 804.583130,280.432922 753.166077,280.432922 
	C753.166077,417.299469 753.166077,553.899719 753.166077,691.500000 
M1123.000000,98.500000 
	C1123.000000,149.903168 1123.000000,201.306335 1123.000000,252.648499 
	C1139.682739,252.648499 1155.735840,252.648499 1172.269043,252.648499 
	C1172.269043,227.577362 1172.269043,202.855011 1172.269043,177.204193 
	C1176.041626,179.655960 1180.486084,175.264481 1183.179077,180.942520 
	C1192.793823,201.216003 1202.807617,221.300156 1212.671753,241.455246 
	C1214.405884,244.998291 1216.146973,248.537918 1218.015259,252.345001 
	C1233.457764,244.807556 1248.436646,237.496414 1263.594360,230.098007 
	C1253.148193,208.664505 1243.160156,187.838852 1232.797974,167.201019 
	C1230.811279,163.244217 1231.203979,161.001251 1234.201172,157.830505 
	C1263.445679,126.892288 1262.173584,73.861259 1231.756836,44.230061 
	C1218.441895,31.258986 1202.119019,26.259226 1184.063599,26.048841 
	C1165.242554,25.829536 1146.416992,25.994146 1127.593384,26.011345 
	C1126.155029,26.012659 1124.716797,26.176369 1123.000000,26.281679 
	C1123.000000,50.243206 1123.000000,73.871605 1123.000000,98.500000 
M762.000000,34.549217 
	C762.000000,78.034920 761.999390,121.520630 762.001404,165.006332 
	C762.001526,168.002472 762.205505,171.011307 761.999207,173.992416 
	C761.303589,184.045212 754.108826,192.056747 745.583313,192.459961 
	C737.432312,192.845459 729.968994,186.004303 728.245361,176.141342 
	C727.478577,171.753677 727.060425,167.247437 727.051697,162.793884 
	C726.966125,118.975014 727.000000,75.155899 727.000000,31.336859 
	C727.000000,29.597092 727.000000,27.857325 727.000000,26.263697 
	C710.261902,26.263697 694.325378,26.263697 678.148071,26.263697 
	C678.090210,27.311090 678.007507,28.110722 678.007385,28.910366 
	C678.000671,75.061981 677.857666,121.214249 678.068298,167.364899 
	C678.156921,186.775040 682.065979,205.266220 692.573059,222.111984 
	C717.472046,262.031952 766.712524,264.159058 794.397949,226.415176 
	C807.715881,208.258728 811.899536,187.510818 811.961731,165.633347 
	C812.089233,120.814995 812.002258,75.996025 811.991028,31.177311 
	C811.990601,29.565769 811.857666,27.954258 811.785461,26.320129 
	C795.052856,26.320129 778.665161,26.320129 762.000000,26.320129 
	C762.000000,28.947847 762.000000,31.257963 762.000000,34.549217 
M1094.999512,141.498077 
	C1094.999512,131.406174 1094.999512,121.314262 1094.999512,110.733170 
	C1070.591309,110.733170 1046.863647,110.733170 1023.253418,110.733170 
	C1023.253418,97.953430 1023.253418,85.679504 1023.253418,72.906418 
	C1050.895996,72.906418 1078.289551,72.906418 1105.655029,72.906418 
	C1105.655029,57.008801 1105.655029,41.617867 1105.655029,26.388491 
	C1061.587158,26.388491 1017.864868,26.388491 974.251770,26.388491 
	C974.251770,102.044685 974.251770,177.313187 974.251770,252.704926 
	C1018.224915,252.704926 1061.946533,252.704926 1105.659180,252.704926 
	C1105.659180,237.017502 1105.659180,221.626648 1105.659180,205.736755 
	C1077.928467,205.736755 1050.535522,205.736755 1023.251099,205.736755 
	C1023.251099,189.624878 1023.251099,174.018143 1023.251099,157.910751 
	C1047.224854,157.910751 1070.952515,157.910751 1094.999512,157.910751 
	C1094.999512,152.440277 1094.999512,147.468414 1094.999512,141.498077 
M828.000000,109.500000 
	C828.000000,157.252075 828.000000,205.004135 828.000000,252.618103 
	C844.734619,252.618103 860.793091,252.618103 877.171021,252.618103 
	C877.171021,227.630814 877.171021,203.024063 877.171021,178.120956 
	C882.114868,178.120956 886.745300,177.966309 891.362244,178.149918 
	C905.333557,178.705536 918.100403,175.121780 929.372314,166.869614 
	C948.919678,152.558945 958.836426,132.698578 960.411255,108.972221 
	C962.358765,79.631012 952.653687,54.968491 928.324890,37.151009 
	C916.666870,28.613129 903.073364,26.305502 889.117004,26.077450 
	C870.123962,25.767096 851.122070,25.994989 832.123962,26.011700 
	C830.848633,26.012821 829.573425,26.179087 828.000000,26.289459 
	C828.000000,53.896408 828.000000,81.198204 828.000000,109.500000 
M327.765381,542.875000 
	C328.291809,545.498291 329.491272,548.191162 329.228760,550.732971 
	C328.066132,561.988953 326.488251,573.202209 325.052155,584.429810 
	C320.448151,620.424194 316.002441,656.439880 311.174042,692.404175 
	C308.216675,714.432190 316.841705,726.886108 338.794739,730.447815 
	C351.492981,732.508057 364.060150,730.671509 376.324432,727.280334 
	C424.168121,714.051208 464.818573,688.905884 498.513031,652.563171 
	C507.722382,642.630066 515.578674,631.568359 519.503235,618.404480 
	C526.276672,595.684326 516.220276,583.301758 498.089691,577.705383 
	C451.113556,563.205383 403.830688,549.689026 356.566589,536.141724 
	C348.874084,533.936768 342.232849,531.374939 339.043549,523.450317 
	C338.945862,523.207642 338.529266,523.093323 337.996338,522.746826 
	C332.668030,526.126404 327.236481,529.571472 321.629547,533.127747 
	C323.664764,536.400940 325.491241,539.338440 327.765381,542.875000 
M56.870010,76.606895 
	C51.084991,67.496857 45.299973,58.386818 39.363731,49.038643 
	C33.758179,52.563957 28.296591,55.998730 22.435799,59.684563 
	C36.730152,82.298409 50.898411,104.712769 65.183975,127.312714 
	C70.975319,123.639931 76.413239,120.191284 82.061966,116.608948 
	C73.677628,103.339645 65.436783,90.297432 56.870010,76.606895 
z"/>
<path fill="#0099CC" opacity="1.000000" stroke="none" 
	d="
M222.379013,338.290833 
	C223.710083,338.247650 225.041138,338.166748 226.372208,338.166687 
	C350.362946,338.160858 474.353699,338.125763 598.344421,338.180359 
	C641.933594,338.199554 677.917297,363.076569 692.308777,404.162537 
	C695.870178,414.330170 697.667236,425.645264 697.697021,436.440002 
	C698.055725,566.262634 697.993225,696.086670 697.898804,825.910278 
	C697.858887,880.851868 654.355042,923.991516 599.306213,923.995667 
	C441.484680,924.007446 283.663116,924.005615 125.841583,923.996643 
	C71.642250,923.993530 28.953318,882.802124 27.152866,828.552185 
	C26.710861,815.233948 27.005930,801.890442 27.004539,788.558594 
	C26.996269,709.231201 27.000450,629.903748 27.000456,550.576355 
	C27.000456,548.598389 27.000456,546.620361 27.000456,544.322327 
	C80.655289,544.322327 134.034836,544.322327 187.929596,544.322327 
	C187.929596,546.390198 187.929581,548.339722 187.929596,550.289246 
	C187.929901,607.951599 187.889435,665.614075 187.949966,723.276367 
	C187.975296,747.389465 201.607422,765.661438 223.771271,771.281555 
	C227.757217,772.292297 231.985703,772.772949 236.102905,772.776855 
	C323.762939,772.859985 411.423065,772.854065 499.083191,772.831482 
	C526.117188,772.824524 546.967102,752.069824 546.986206,725.089294 
	C547.030151,663.093933 547.001343,601.098572 546.999573,539.103210 
	C546.998779,509.665527 526.912476,489.460114 497.451508,489.445709 
	C416.124237,489.405884 334.796936,489.483185 253.469727,489.413239 
	C202.322662,489.369263 151.168091,489.616089 100.032318,488.783844 
	C77.279709,488.413544 57.983440,478.240387 42.185368,461.933228 
	C27.488247,446.762482 20.056557,428.671906 18.728352,407.325928 
	C16.259678,367.651093 18.346104,328.488892 27.610189,289.758881 
	C40.966072,233.922516 65.689583,183.751480 102.764069,139.899017 
	C153.104996,80.354752 216.135101,41.273186 292.475098,24.488327 
	C331.540253,15.899080 371.007690,14.648576 410.628357,20.597504 
	C487.650024,32.162086 552.853638,66.713715 606.705933,122.578239 
	C649.610107,167.085602 678.671753,219.629959 694.744812,279.336456 
	C694.826782,279.640961 694.755005,279.986847 694.755005,280.749481 
	C693.231506,280.831482 691.669678,280.988617 690.107788,280.989014 
	C638.778320,281.001831 587.448669,280.958984 536.119568,281.087891 
	C532.565369,281.096802 531.085754,279.922943 529.631897,276.747223 
	C502.625946,217.757477 459.597656,176.950424 395.106659,162.869308 
	C339.147156,150.650970 288.329803,164.009262 243.859421,199.909988 
	C214.443695,223.657150 193.704178,253.876923 180.910492,290.265442 
	C177.851593,292.729370 175.015579,294.535248 172.179062,296.341431 
	C173.728806,299.107117 175.074188,301.508057 176.334274,304.314484 
	C174.008377,315.664154 171.767776,326.608398 169.426468,338.044556 
	C179.793732,338.044556 188.902222,338.044556 198.297333,338.221863 
	C203.948837,346.889801 209.313721,355.380432 214.765121,364.008026 
	C220.646271,360.306946 225.955704,356.965698 231.565277,353.435577 
	C228.370178,348.168030 225.374588,343.229431 222.379013,338.290833 
M304.675720,468.813202 
	C291.094055,447.365967 277.512421,425.918732 263.680328,404.076019 
	C257.921021,407.719849 252.518433,411.137939 246.795364,414.758820 
	C261.144257,437.444550 275.290588,459.809998 289.562988,482.374756 
	C294.704590,479.112701 299.397766,476.294464 303.867828,473.158264 
	C304.713776,472.564758 304.673950,470.708740 304.675720,468.813202 
M152.440323,237.853012 
	C153.765900,236.920410 155.091492,235.987823 156.765030,234.810440 
	C142.509628,212.261505 128.439041,190.004944 114.128212,167.368362 
	C108.294037,171.068420 102.902153,174.487976 97.242737,178.077209 
	C111.634880,200.868820 125.694405,223.133682 139.943771,245.699188 
	C144.250244,242.967804 148.017578,240.578384 152.440323,237.853012 
z"/>
<path fill="#003399" opacity="1.000000" stroke="none" 
	d="
M753.166077,691.000000 
	C753.166077,553.899719 753.166077,417.299469 753.166077,280.432922 
	C804.583130,280.432922 855.491394,280.432922 906.902161,280.432922 
	C906.902161,340.370667 906.902161,400.221497 906.902161,461.122009 
	C913.175598,451.043671 918.472168,441.694519 924.557617,432.890625 
	C974.816956,360.180176 1043.836426,314.531372 1128.759644,292.098816 
	C1158.671143,284.197693 1189.233154,280.922333 1220.115967,280.198975 
	C1224.112061,280.105316 1223.843872,282.411346 1223.842041,285.011322 
	C1223.827637,305.675232 1223.833984,326.339111 1223.833984,347.003021 
	C1223.833984,377.165649 1223.833984,407.328278 1223.833984,437.490906 
	C1223.833984,439.280212 1223.833984,441.069519 1223.833984,443.156647 
	C1215.373657,443.800171 1207.377686,443.914703 1199.538696,445.082520 
	C1135.630615,454.603699 1086.973267,486.066742 1060.638794,546.306213 
	C1041.950928,589.054138 1044.834351,632.192322 1067.011230,673.338562 
	C1088.849609,713.857178 1123.018433,739.721436 1166.433350,753.890625 
	C1183.494385,759.458740 1201.040405,762.074036 1218.947876,762.480591 
	C1220.107910,762.506958 1221.268799,762.611694 1222.422119,762.743042 
	C1222.723389,762.777344 1222.997681,763.049194 1223.623169,763.404358 
	C1223.686523,764.658386 1223.824463,766.118530 1223.824829,767.578735 
	C1223.835938,818.571899 1223.823486,869.565125 1223.860352,920.558289 
	C1223.862549,923.596313 1224.070923,926.026184 1219.629028,925.905334 
	C1190.263672,925.106323 1161.187378,922.075195 1132.621948,915.022339 
	C1068.525024,899.196533 1012.458313,868.765015 965.299805,822.386719 
	C943.204895,800.657349 924.596436,776.207642 909.717468,748.973328 
	C909.107971,747.857605 908.401489,746.794800 907.051208,744.574341 
	C907.051208,805.459473 907.051208,865.113708 907.051208,924.965698 
	C855.602539,924.965698 804.680359,924.965698 753.166077,924.965698 
	C753.166077,847.029419 753.166077,769.264709 753.166077,691.000000 
z"/>
<path fill="#0199CC" opacity="1.000000" stroke="none" 
	d="
M1123.000000,98.000000 
	C1123.000000,73.871605 1123.000000,50.243206 1123.000000,26.281679 
	C1124.716797,26.176369 1126.155029,26.012659 1127.593384,26.011345 
	C1146.416992,25.994146 1165.242554,25.829536 1184.063599,26.048841 
	C1202.119019,26.259226 1218.441895,31.258986 1231.756836,44.230061 
	C1262.173584,73.861259 1263.445679,126.892288 1234.201172,157.830505 
	C1231.203979,161.001251 1230.811279,163.244217 1232.797974,167.201019 
	C1243.160156,187.838852 1253.148193,208.664505 1263.594360,230.098007 
	C1248.436646,237.496414 1233.457764,244.807556 1218.015259,252.345001 
	C1216.146973,248.537918 1214.405884,244.998291 1212.671753,241.455246 
	C1202.807617,221.300156 1192.793823,201.216003 1183.179077,180.942520 
	C1180.486084,175.264481 1176.041626,179.655960 1172.269043,177.204193 
	C1172.269043,202.855011 1172.269043,227.577362 1172.269043,252.648499 
	C1155.735840,252.648499 1139.682739,252.648499 1123.000000,252.648499 
	C1123.000000,201.306335 1123.000000,149.903168 1123.000000,98.000000 
M1174.713135,130.999405 
	C1178.204834,130.999878 1181.771118,131.454880 1185.170898,130.896072 
	C1190.489502,130.021881 1196.321411,129.559479 1200.832275,126.987328 
	C1214.586304,119.144585 1218.105713,99.064400 1208.859375,85.311119 
	C1201.967529,75.059967 1186.947266,70.751007 1171.999512,74.815849 
	C1171.999512,92.397644 1171.967651,110.018410 1172.074951,127.638344 
	C1172.081665,128.757233 1173.171021,129.869537 1174.713135,130.999405 
z"/>
<path fill="#0099CC" opacity="1.000000" stroke="none" 
	d="
M762.000000,34.058647 
	C762.000000,31.257963 762.000000,28.947847 762.000000,26.320129 
	C778.665161,26.320129 795.052856,26.320129 811.785461,26.320129 
	C811.857666,27.954258 811.990601,29.565769 811.991028,31.177311 
	C812.002258,75.996025 812.089233,120.814995 811.961731,165.633347 
	C811.899536,187.510818 807.715881,208.258728 794.397949,226.415176 
	C766.712524,264.159058 717.472046,262.031952 692.573059,222.111984 
	C682.065979,205.266220 678.156921,186.775040 678.068298,167.364899 
	C677.857666,121.214249 678.000671,75.061981 678.007385,28.910366 
	C678.007507,28.110722 678.090210,27.311090 678.148071,26.263697 
	C694.325378,26.263697 710.261902,26.263697 727.000000,26.263697 
	C727.000000,27.857325 727.000000,29.597092 727.000000,31.336859 
	C727.000000,75.155899 726.966125,118.975014 727.051697,162.793884 
	C727.060425,167.247437 727.478577,171.753677 728.245361,176.141342 
	C729.968994,186.004303 737.432312,192.845459 745.583313,192.459961 
	C754.108826,192.056747 761.303589,184.045212 761.999207,173.992416 
	C762.205505,171.011307 762.001526,168.002472 762.001404,165.006332 
	C761.999390,121.520630 762.000000,78.034920 762.000000,34.058647 
z"/>
<path fill="#0099CC" opacity="1.000000" stroke="none" 
	d="
M1094.999512,141.997314 
	C1094.999512,147.468414 1094.999512,152.440277 1094.999512,157.910751 
	C1070.952515,157.910751 1047.224854,157.910751 1023.251099,157.910751 
	C1023.251099,174.018143 1023.251099,189.624878 1023.251099,205.736755 
	C1050.535522,205.736755 1077.928467,205.736755 1105.659180,205.736755 
	C1105.659180,221.626648 1105.659180,237.017502 1105.659180,252.704926 
	C1061.946533,252.704926 1018.224915,252.704926 974.251770,252.704926 
	C974.251770,177.313187 974.251770,102.044685 974.251770,26.388491 
	C1017.864868,26.388491 1061.587158,26.388491 1105.655029,26.388491 
	C1105.655029,41.617867 1105.655029,57.008801 1105.655029,72.906418 
	C1078.289551,72.906418 1050.895996,72.906418 1023.253418,72.906418 
	C1023.253418,85.679504 1023.253418,97.953430 1023.253418,110.733170 
	C1046.863647,110.733170 1070.591309,110.733170 1094.999512,110.733170 
	C1094.999512,121.314262 1094.999512,131.406174 1094.999512,141.997314 
z"/>
<path fill="#0199CC" opacity="1.000000" stroke="none" 
	d="
M828.000000,109.000000 
	C828.000000,81.198204 828.000000,53.896408 828.000000,26.289459 
	C829.573425,26.179087 830.848633,26.012821 832.123962,26.011700 
	C851.122070,25.994989 870.123962,25.767096 889.117004,26.077450 
	C903.073364,26.305502 916.666870,28.613129 928.324890,37.151009 
	C952.653687,54.968491 962.358765,79.631012 960.411255,108.972221 
	C958.836426,132.698578 948.919678,152.558945 929.372314,166.869614 
	C918.100403,175.121780 905.333557,178.705536 891.362244,178.149918 
	C886.745300,177.966309 882.114868,178.120956 877.171021,178.120956 
	C877.171021,203.024063 877.171021,227.630814 877.171021,252.618103 
	C860.793091,252.618103 844.734619,252.618103 828.000000,252.618103 
	C828.000000,205.004135 828.000000,157.252075 828.000000,109.000000 
M876.999207,91.501282 
	C876.999207,104.582954 876.999207,117.664627 876.999207,131.470795 
	C885.122681,130.931763 892.686646,131.160950 899.948425,129.789886 
	C913.453552,127.240067 922.239014,110.316437 918.476624,95.253845 
	C916.018250,85.412270 910.672058,77.501945 900.444763,75.257408 
	C892.986633,73.620613 885.067810,74.082764 876.999207,73.587410 
	C876.999207,79.899307 876.999207,85.200600 876.999207,91.501282 
z"/>
<path fill="#030304" opacity="1.000000" stroke="none" 
	d="
M327.541534,542.575439 
	C325.491241,539.338440 323.664764,536.400940 321.629547,533.127747 
	C327.236481,529.571472 332.668030,526.126404 337.996338,522.746826 
	C338.529266,523.093323 338.945862,523.207642 339.043549,523.450317 
	C342.232849,531.374939 348.874084,533.936768 356.566589,536.141724 
	C403.830688,549.689026 451.113556,563.205383 498.089691,577.705383 
	C516.220276,583.301758 526.276672,595.684326 519.503235,618.404480 
	C515.578674,631.568359 507.722382,642.630066 498.513031,652.563171 
	C464.818573,688.905884 424.168121,714.051208 376.324432,727.280334 
	C364.060150,730.671509 351.492981,732.508057 338.794739,730.447815 
	C316.841705,726.886108 308.216675,714.432190 311.174042,692.404175 
	C316.002441,656.439880 320.448151,620.424194 325.052155,584.429810 
	C326.488251,573.202209 328.066132,561.988953 329.228760,550.732971 
	C329.491272,548.191162 328.291809,545.498291 327.541534,542.575439 
M460.905334,667.430420 
	C462.452240,666.165833 464.018585,664.924255 465.542999,663.633118 
	C480.492920,650.970825 494.459045,637.415588 503.062622,619.427734 
	C511.244293,602.322021 504.794037,592.303223 485.911346,591.971436 
	C473.247681,591.748962 461.096588,594.392395 449.223358,598.319092 
	C413.746246,610.052246 382.545013,629.119019 355.352295,654.601257 
	C343.540588,665.669922 332.778168,677.839233 327.262939,693.519409 
	C322.686615,706.530151 328.121857,714.615662 341.895447,715.924438 
	C343.385101,716.065979 344.888245,716.075745 346.385895,716.122009 
	C358.353058,716.491882 369.879974,714.005188 381.174164,710.420410 
	C410.216034,701.202515 436.325592,686.471130 460.905334,667.430420 
M388.731537,610.195435 
	C409.465668,597.632996 431.185028,587.246338 455.870911,580.684265 
	C419.812805,570.156494 385.082520,560.011292 350.347992,549.880676 
	C344.908691,548.294128 344.758209,548.521484 344.030823,554.336609 
	C340.872375,579.587646 337.636322,604.828979 334.438141,630.075073 
	C333.283966,639.186218 332.157074,648.300842 330.863708,658.645630 
	C347.949768,638.919739 367.194794,623.742859 388.731537,610.195435 
z"/>
<path fill="#040404" opacity="1.000000" stroke="none" 
	d="
M57.032970,76.931061 
	C65.436783,90.297432 73.677628,103.339645 82.061966,116.608948 
	C76.413239,120.191284 70.975319,123.639931 65.183975,127.312714 
	C50.898411,104.712769 36.730152,82.298409 22.435799,59.684563 
	C28.296591,55.998730 33.758179,52.563957 39.363731,49.038643 
	C45.299973,58.386818 51.084991,67.496857 57.032970,76.931061 
z"/>
<path fill="#020304" opacity="1.000000" stroke="none" 
	d="
M222.172821,338.052368 
	C225.374588,343.229431 228.370178,348.168030 231.565277,353.435577 
	C225.955704,356.965698 220.646271,360.306946 214.765121,364.008026 
	C209.313721,355.380432 203.948837,346.889801 198.244598,337.874634 
	C190.743347,326.203094 183.581451,315.056061 176.419556,303.909027 
	C175.074188,301.508057 173.728806,299.107117 172.179062,296.341431 
	C175.015579,294.535248 177.851593,292.729370 180.866211,290.652161 
	C183.590851,288.931183 186.136887,287.481537 188.986084,285.859283 
	C200.026001,303.250580 210.996307,320.532257 222.172821,338.052368 
z"/>
<path fill="#000203" opacity="1.000000" stroke="none" 
	d="
M304.859253,469.124237 
	C304.673950,470.708740 304.713776,472.564758 303.867828,473.158264 
	C299.397766,476.294464 294.704590,479.112701 289.562988,482.374756 
	C275.290588,459.809998 261.144257,437.444550 246.795364,414.758820 
	C252.518433,411.137939 257.921021,407.719849 263.680328,404.076019 
	C277.512421,425.918732 291.094055,447.365967 304.859253,469.124237 
z"/>
<path fill="#000203" opacity="1.000000" stroke="none" 
	d="
M152.112610,238.020981 
	C148.017578,240.578384 144.250244,242.967804 139.943771,245.699188 
	C125.694405,223.133682 111.634880,200.868820 97.242737,178.077209 
	C102.902153,174.487976 108.294037,171.068420 114.128212,167.368362 
	C128.439041,190.004944 142.509628,212.261505 156.765030,234.810440 
	C155.091492,235.987823 153.765900,236.920410 152.112610,238.020981 
z"/>
<path fill="#FAFCFC" opacity="1.000000" stroke="none" 
	d="
M176.334259,304.314484 
	C183.581451,315.056061 190.743347,326.203094 197.957977,337.697327 
	C188.902222,338.044556 179.793732,338.044556 169.426468,338.044556 
	C171.767776,326.608398 174.008377,315.664154 176.334259,304.314484 
z"/>
<path fill="#FEFEFF" opacity="1.000000" stroke="none" 
	d="
M1174.234985,130.992157 
	C1173.171021,129.869537 1172.081665,128.757233 1172.074951,127.638344 
	C1171.967651,110.018410 1171.999512,92.397644 1171.999512,74.815849 
	C1186.947266,70.751007 1201.967529,75.059967 1208.859375,85.311119 
	C1218.105713,99.064400 1214.586304,119.144585 1200.832275,126.987328 
	C1196.321411,129.559479 1190.489502,130.021881 1185.170898,130.896072 
	C1181.771118,131.454880 1178.204834,130.999878 1174.234985,130.992157 
z"/>
<path fill="#FEFFFF" opacity="1.000000" stroke="none" 
	d="
M876.999207,91.001587 
	C876.999207,85.200600 876.999207,79.899307 876.999207,73.587410 
	C885.067810,74.082764 892.986633,73.620613 900.444763,75.257408 
	C910.672058,77.501945 916.018250,85.412270 918.476624,95.253845 
	C922.239014,110.316437 913.453552,127.240067 899.948425,129.789886 
	C892.686646,131.160950 885.122681,130.931763 876.999207,131.470795 
	C876.999207,117.664627 876.999207,104.582954 876.999207,91.001587 
z"/>
<path fill="#0000CB" opacity="1.000000" stroke="none" 
	d="
M460.621826,667.648926 
	C436.325592,686.471130 410.216034,701.202515 381.174164,710.420410 
	C369.879974,714.005188 358.353058,716.491882 346.385895,716.122009 
	C344.888245,716.075745 343.385101,716.065979 341.895447,715.924438 
	C328.121857,714.615662 322.686615,706.530151 327.262939,693.519409 
	C332.778168,677.839233 343.540588,665.669922 355.352295,654.601257 
	C382.545013,629.119019 413.746246,610.052246 449.223358,598.319092 
	C461.096588,594.392395 473.247681,591.748962 485.911346,591.971436 
	C504.794037,592.303223 511.244293,602.322021 503.062622,619.427734 
	C494.459045,637.415588 480.492920,650.970825 465.542999,663.633118 
	C464.018585,664.924255 462.452240,666.165833 460.621826,667.648926 
z"/>
<path fill="#FDFDFD" opacity="1.000000" stroke="none" 
	d="
M388.437683,610.411255 
	C367.194794,623.742859 347.949768,638.919739 330.863708,658.645630 
	C332.157074,648.300842 333.283966,639.186218 334.438141,630.075073 
	C337.636322,604.828979 340.872375,579.587646 344.030823,554.336609 
	C344.758209,548.521484 344.908691,548.294128 350.347992,549.880676 
	C385.082520,560.011292 419.812805,570.156494 455.870911,580.684265 
	C431.185028,587.246338 409.465668,597.632996 388.437683,610.411255 
z"/>
</svg>