<?xml version="1.0" encoding="utf-8"?>
<!-- Generator: Adobe Illustrator 17.0.0, SVG Export Plug-In . SVG Version: 6.00 Build 0)  -->
<!DOCTYPE svg PUBLIC "-//W3C//DTD SVG 1.1//EN" "http://www.w3.org/Graphics/SVG/1.1/DTD/svg11.dtd">
<svg version="1.1" id="图层_1" xmlns="http://www.w3.org/2000/svg" xmlns:xlink="http://www.w3.org/1999/xlink" x="0px" y="0px"
	 width="311.811px" height="311.811px" viewBox="0 0 311.811 311.811" enable-background="new 0 0 311.811 311.811"
	 xml:space="preserve">
<g>
	
		<linearGradient id="SVGID_2_" gradientUnits="userSpaceOnUse" x1="-1960.139" y1="4936.5532" x2="-2243.6035" y2="4936.5532" gradientTransform="matrix(4.489700e-11 -1 1 4.489700e-11 -4780.6475 -1945.9658)">
		<stop  offset="0" style="stop-color:#004386"/>
		<stop  offset="1" style="stop-color:#187FC4"/>
	</linearGradient>
	<circle fill="url(#SVGID_2_)" cx="155.906" cy="155.906" r="141.732"/>
	<g>
		<defs>
			<circle id="SVGID_17_" cx="155.906" cy="155.906" r="141.732"/>
		</defs>
		<clipPath id="SVGID_3_">
			<use xlink:href="#SVGID_17_"  overflow="visible"/>
		</clipPath>
		<g clip-path="url(#SVGID_3_)">
			<g>
				<path fill="#FFF6E9" d="M81.495,104.517c-0.006-0.083-0.074-0.149-0.158-0.149c-2.092,0-3.025-0.215-3.265-0.315l-0.001,0
					c-0.199-0.084-0.386-0.192-0.556-0.319c-0.102-0.077-0.199-0.16-0.289-0.25c-0.09-0.09-0.174-0.187-0.25-0.289
					c-0.128-0.171-0.235-0.357-0.319-0.556l-0.001-0.001c-0.1-0.24-0.315-1.173-0.315-3.265c0-0.084-0.066-0.153-0.149-0.158
					l-0.007-0.001h-0.004h0l-0.011,0.001c-0.083,0.006-0.149,0.074-0.149,0.158c0,2.092-0.215,3.025-0.315,3.265l-0.001,0.001
					c-0.084,0.199-0.192,0.385-0.319,0.556c-0.077,0.102-0.16,0.199-0.25,0.289c-0.09,0.09-0.187,0.174-0.289,0.25
					c-0.171,0.128-0.357,0.235-0.556,0.319l-0.001,0.001c-0.24,0.1-1.173,0.315-3.265,0.315c-0.084,0-0.153,0.066-0.158,0.149
					c-0.001,0.003-0.001,0.007-0.001,0.007v0.004v0c0,0.004,0,0.007,0,0.007c0.006,0.086,0.075,0.152,0.159,0.152
					c2.092,0,3.025,0.215,3.265,0.315l0.001,0.001c0.199,0.084,0.385,0.192,0.556,0.319c0.102,0.077,0.199,0.16,0.289,0.25
					c0.09,0.09,0.174,0.187,0.25,0.289c0.128,0.171,0.235,0.357,0.319,0.556l0.001,0.001c0.1,0.24,0.315,1.173,0.315,3.265
					c0,0.084,0.066,0.153,0.149,0.158l0.011,0.001h0h0l0.011-0.001c0.083-0.006,0.149-0.074,0.149-0.158
					c0-2.092,0.215-3.025,0.315-3.265l0.001-0.001c0.084-0.199,0.192-0.385,0.319-0.556c0.077-0.102,0.16-0.199,0.25-0.289
					c0.09-0.09,0.187-0.174,0.289-0.25c0.171-0.128,0.357-0.235,0.556-0.319l0.001-0.001c0.24-0.1,1.173-0.315,3.265-0.315
					c0.084,0,0.153-0.066,0.158-0.149c0,0,0.001-0.007,0.001-0.011v0v0C81.496,104.528,81.496,104.52,81.495,104.517z"/>
				<path fill="#FFF6E9" d="M70.865,150.582c-0.006-0.083-0.074-0.149-0.158-0.149c-2.092,0-3.025-0.215-3.265-0.315l-0.001,0
					c-0.199-0.084-0.386-0.192-0.556-0.319c-0.102-0.077-0.199-0.16-0.289-0.25c-0.09-0.09-0.174-0.187-0.25-0.289
					c-0.128-0.171-0.235-0.357-0.319-0.556l-0.001-0.001c-0.1-0.24-0.315-1.173-0.315-3.265c0-0.084-0.066-0.153-0.149-0.158
					l-0.007-0.001h-0.004h0l-0.011,0.001c-0.083,0.006-0.149,0.074-0.149,0.158c0,2.092-0.215,3.025-0.315,3.265l-0.001,0.001
					c-0.084,0.199-0.192,0.385-0.319,0.556c-0.077,0.102-0.16,0.199-0.25,0.289s-0.187,0.174-0.289,0.25
					c-0.171,0.128-0.357,0.235-0.556,0.319l-0.001,0.001c-0.24,0.1-1.173,0.315-3.265,0.315c-0.084,0-0.153,0.066-0.158,0.149
					c-0.001,0.003-0.001,0.007-0.001,0.007v0.004v0c0,0.004,0,0.007,0,0.007c0.006,0.086,0.075,0.152,0.159,0.152
					c2.092,0,3.025,0.215,3.265,0.315l0.001,0.001c0.199,0.084,0.385,0.192,0.556,0.319c0.102,0.077,0.199,0.16,0.289,0.25
					s0.174,0.187,0.25,0.289c0.128,0.171,0.235,0.357,0.319,0.556l0.001,0.001c0.1,0.24,0.315,1.173,0.315,3.265
					c0,0.084,0.066,0.153,0.149,0.158l0.011,0.001h0h0l0.011-0.001c0.083-0.006,0.149-0.074,0.149-0.158
					c0-2.092,0.215-3.025,0.315-3.265l0.001-0.001c0.084-0.199,0.192-0.385,0.319-0.556c0.077-0.102,0.16-0.199,0.25-0.289
					c0.09-0.09,0.187-0.174,0.289-0.25c0.171-0.128,0.357-0.235,0.556-0.319l0.001-0.001c0.24-0.1,1.173-0.315,3.265-0.315
					c0.084,0,0.153-0.066,0.158-0.149c0,0,0.001-0.007,0.001-0.011v0v0C70.866,150.593,70.866,150.586,70.865,150.582z"/>
				<path fill="#FFF6E9" d="M147.046,170.068c-0.006-0.083-0.074-0.149-0.158-0.149c-2.092,0-3.025-0.215-3.265-0.315l-0.001,0
					c-0.199-0.084-0.386-0.192-0.556-0.319c-0.102-0.077-0.199-0.16-0.289-0.25c-0.09-0.09-0.174-0.187-0.25-0.289
					c-0.128-0.171-0.235-0.357-0.319-0.556l-0.001-0.001c-0.1-0.24-0.315-1.173-0.315-3.265c0-0.084-0.066-0.153-0.149-0.158
					l-0.007-0.001h-0.004h0l-0.011,0.001c-0.083,0.006-0.149,0.074-0.149,0.158c0,2.092-0.215,3.025-0.315,3.265l-0.001,0.001
					c-0.084,0.199-0.192,0.385-0.319,0.556c-0.077,0.102-0.16,0.199-0.25,0.289c-0.09,0.09-0.187,0.174-0.289,0.25
					c-0.171,0.128-0.357,0.235-0.556,0.319l-0.001,0.001c-0.24,0.1-1.173,0.315-3.265,0.315c-0.084,0-0.153,0.066-0.158,0.149
					c-0.001,0.003-0.001,0.007-0.001,0.007v0.004v0c0,0.004,0,0.007,0,0.007c0.006,0.086,0.075,0.152,0.159,0.152
					c2.092,0,3.025,0.215,3.265,0.315l0.001,0.001c0.199,0.084,0.385,0.192,0.556,0.319c0.102,0.077,0.199,0.16,0.289,0.25
					c0.09,0.09,0.174,0.187,0.25,0.289c0.128,0.171,0.235,0.357,0.319,0.556l0.001,0.001c0.1,0.24,0.315,1.173,0.315,3.265
					c0,0.084,0.066,0.153,0.149,0.158l0.011,0.001h0h0l0.011-0.001c0.083-0.006,0.149-0.074,0.149-0.158
					c0-2.092,0.215-3.025,0.315-3.265l0.001-0.001c0.084-0.199,0.192-0.385,0.319-0.556c0.077-0.102,0.16-0.199,0.25-0.289
					c0.09-0.09,0.187-0.174,0.289-0.25c0.171-0.128,0.357-0.235,0.556-0.319l0.001-0.001c0.24-0.1,1.173-0.315,3.265-0.315
					c0.084,0,0.153-0.066,0.158-0.149c0,0,0.001-0.007,0.001-0.011v0v0C147.047,170.079,147.047,170.071,147.046,170.068z"/>
				<path fill="#FFF6E9" d="M216.141,226.761c-0.006-0.083-0.074-0.149-0.158-0.149c-2.092,0-3.025-0.215-3.265-0.315l-0.001-0.001
					c-0.199-0.084-0.385-0.192-0.556-0.319c-0.102-0.077-0.199-0.16-0.289-0.25c-0.09-0.09-0.174-0.187-0.25-0.289
					c-0.128-0.171-0.235-0.357-0.319-0.556l0-0.001c-0.1-0.24-0.315-1.174-0.315-3.266c0-0.084-0.066-0.153-0.149-0.158
					l-0.007-0.001h-0.004h0l-0.007,0c-0.086,0.006-0.152,0.075-0.152,0.159c0,2.092-0.215,3.025-0.315,3.265l-0.001,0.001
					c-0.084,0.199-0.192,0.385-0.319,0.556c-0.077,0.102-0.16,0.199-0.25,0.289s-0.187,0.174-0.289,0.25
					c-0.171,0.128-0.357,0.235-0.556,0.319l-0.001,0c-0.24,0.1-1.174,0.315-3.266,0.315c-0.084,0-0.153,0.066-0.158,0.149
					l-0.001,0.007v0.004v0c0,0.004,0,0.007,0,0.007c0.006,0.086,0.075,0.152,0.159,0.152c2.092,0,3.025,0.215,3.265,0.315
					l0.001,0.001c0.199,0.084,0.385,0.192,0.556,0.319c0.102,0.077,0.199,0.16,0.289,0.25s0.174,0.187,0.25,0.289
					c0.128,0.171,0.235,0.357,0.319,0.556l0,0.001c0.1,0.24,0.315,1.174,0.315,3.266c0,0.084,0.066,0.153,0.149,0.158l0.011,0.001h0
					h0l0.011-0.001c0.083-0.006,0.149-0.074,0.149-0.158c0-2.092,0.215-3.025,0.315-3.265l0.001-0.001
					c0.084-0.199,0.192-0.385,0.319-0.556c0.077-0.102,0.16-0.199,0.25-0.289c0.09-0.09,0.187-0.174,0.289-0.25
					c0.171-0.128,0.357-0.235,0.556-0.319l0.001-0.001c0.24-0.1,1.173-0.315,3.265-0.315c0.084,0,0.153-0.066,0.158-0.149
					c0,0,0.001-0.007,0.001-0.011v0v0L216.141,226.761z"/>
				<path fill="#FFF6E9" d="M212.597,178.926c-0.006-0.083-0.074-0.149-0.158-0.149c-2.092,0-3.025-0.215-3.265-0.315l-0.001-0.001
					c-0.199-0.084-0.385-0.192-0.556-0.319c-0.102-0.077-0.199-0.16-0.289-0.25c-0.09-0.09-0.174-0.187-0.25-0.289
					c-0.128-0.171-0.235-0.357-0.319-0.556l0-0.001c-0.1-0.24-0.315-1.174-0.315-3.266c0-0.084-0.066-0.153-0.149-0.158
					l-0.007-0.001h-0.004h0l-0.007,0c-0.086,0.006-0.152,0.075-0.152,0.159c0,2.092-0.215,3.025-0.315,3.265l-0.001,0.001
					c-0.084,0.199-0.192,0.385-0.319,0.556c-0.077,0.102-0.16,0.199-0.25,0.289s-0.187,0.174-0.289,0.25
					c-0.171,0.128-0.357,0.235-0.556,0.319l-0.001,0c-0.24,0.1-1.174,0.315-3.266,0.315c-0.084,0-0.153,0.066-0.158,0.149
					l-0.001,0.007v0.004v0c0,0.004,0,0.007,0,0.007c0.006,0.086,0.075,0.152,0.159,0.152c2.092,0,3.025,0.215,3.265,0.315
					l0.001,0.001c0.199,0.084,0.385,0.192,0.556,0.319c0.102,0.077,0.199,0.16,0.289,0.25s0.174,0.187,0.25,0.289
					c0.128,0.171,0.235,0.357,0.319,0.556l0,0.001c0.1,0.24,0.315,1.174,0.315,3.266c0,0.084,0.066,0.153,0.149,0.158l0.011,0.001h0
					h0l0.011-0.001c0.083-0.006,0.149-0.074,0.149-0.158c0-2.092,0.215-3.025,0.315-3.265l0.001-0.001
					c0.084-0.199,0.192-0.385,0.319-0.556c0.077-0.102,0.16-0.199,0.25-0.289c0.09-0.09,0.187-0.174,0.289-0.25
					c0.171-0.128,0.357-0.235,0.556-0.319l0.001-0.001c0.24-0.1,1.173-0.315,3.265-0.315c0.084,0,0.153-0.066,0.158-0.149
					c0,0,0.001-0.007,0.001-0.011v0v0L212.597,178.926z"/>
				<path fill="#FFF6E9" d="M260.432,186.013c-0.006-0.083-0.074-0.149-0.158-0.149c-2.092,0-3.025-0.215-3.265-0.315l-0.001-0.001
					c-0.199-0.084-0.385-0.192-0.556-0.319c-0.102-0.077-0.199-0.16-0.289-0.25s-0.174-0.187-0.25-0.289
					c-0.128-0.171-0.235-0.357-0.319-0.556l0-0.001c-0.1-0.24-0.315-1.174-0.315-3.266c0-0.084-0.066-0.153-0.149-0.158
					l-0.007-0.001h-0.004h0l-0.007,0c-0.086,0.006-0.152,0.075-0.152,0.159c0,2.092-0.215,3.025-0.315,3.265l-0.001,0.001
					c-0.084,0.199-0.192,0.385-0.319,0.556c-0.077,0.102-0.16,0.199-0.25,0.289c-0.09,0.09-0.187,0.174-0.289,0.25
					c-0.171,0.128-0.357,0.235-0.556,0.319l-0.001,0c-0.24,0.1-1.174,0.315-3.266,0.315c-0.084,0-0.153,0.066-0.158,0.149
					l-0.001,0.007v0.004v0c0,0.004,0,0.007,0,0.007c0.006,0.086,0.075,0.152,0.159,0.152c2.092,0,3.025,0.215,3.265,0.315
					l0.001,0.001c0.199,0.084,0.385,0.192,0.556,0.319c0.102,0.077,0.199,0.16,0.289,0.25c0.09,0.09,0.174,0.187,0.25,0.289
					c0.128,0.171,0.235,0.357,0.319,0.556l0,0.001c0.1,0.24,0.315,1.174,0.315,3.266c0,0.084,0.066,0.153,0.149,0.158l0.011,0.001h0
					h0l0.011-0.001c0.083-0.006,0.149-0.074,0.149-0.158c0-2.092,0.215-3.025,0.315-3.265l0.001-0.001
					c0.084-0.199,0.192-0.385,0.319-0.556c0.077-0.102,0.16-0.199,0.25-0.289s0.187-0.174,0.289-0.25
					c0.171-0.128,0.357-0.235,0.556-0.319l0.001-0.001c0.24-0.1,1.173-0.315,3.265-0.315c0.084,0,0.153-0.066,0.158-0.149
					c0,0,0.001-0.007,0.001-0.011v0v0L260.432,186.013z"/>
				<circle fill="#FFF6E9" cx="242.717" cy="170.079" r="1.772"/>
				<circle fill="#FFF6E9" cx="186.024" cy="210.826" r="1.772"/>
				<circle fill="#FFF6E9" cx="170.079" cy="170.079" r="1.772"/>
				<circle fill="#FFF6E9" cx="122.244" cy="122.244" r="1.772"/>
			</g>
			<g>
				<path fill="#FFF6E9" d="M190.01,92.485c-6.143,0-8.883-0.63-9.588-0.924l-0.003-0.001c-0.585-0.247-1.132-0.563-1.633-0.937
					c-0.3-0.225-0.584-0.47-0.849-0.735c-0.265-0.265-0.51-0.548-0.735-0.849c-0.374-0.501-0.69-1.048-0.937-1.631l-0.001-0.003
					c-0.294-0.706-0.924-3.446-0.924-9.589c0-0.352-0.286-0.638-0.638-0.638c-0.352,0-0.638,0.286-0.638,0.638
					c0,6.143-0.63,8.883-0.924,9.588l-0.001,0.003c-0.247,0.585-0.563,1.132-0.937,1.633c-0.225,0.3-0.47,0.584-0.735,0.849
					c-0.265,0.265-0.548,0.511-0.849,0.735c-0.501,0.374-1.048,0.69-1.631,0.937l-0.003,0.001c-0.706,0.294-3.446,0.924-9.589,0.924
					c-0.352,0-0.638,0.286-0.638,0.638c0,0.352,0.286,0.638,0.638,0.638c6.143,0,8.883,0.63,9.587,0.924l0.003,0.001
					c0.585,0.247,1.132,0.563,1.633,0.937c0.3,0.225,0.584,0.47,0.849,0.735c0.265,0.265,0.511,0.548,0.735,0.849
					c0.374,0.501,0.69,1.048,0.937,1.631l0.002,0.004c0.294,0.704,0.924,3.444,0.924,9.588c0,0.352,0.286,0.638,0.638,0.638
					c0.352,0,0.638-0.286,0.638-0.638c0-6.143,0.63-8.883,0.924-9.587l0.001-0.003c0.247-0.585,0.563-1.132,0.937-1.633
					c0.225-0.3,0.47-0.584,0.735-0.849c0.265-0.265,0.548-0.511,0.849-0.735c0.501-0.374,1.048-0.69,1.631-0.937l0.004-0.002
					c0.704-0.294,3.444-0.924,9.588-0.924c0.352,0,0.638-0.286,0.638-0.638C190.647,92.77,190.362,92.485,190.01,92.485z"/>
				<g>
					<linearGradient id="SVGID_8_" gradientUnits="userSpaceOnUse" x1="150.6818" y1="313.0159" x2="150.6818" y2="204.531">
						<stop  offset="0.3" style="stop-color:#EAF6FD;stop-opacity:0"/>
						<stop  offset="1" style="stop-color:#BAE3F9;stop-opacity:0.7"/>
					</linearGradient>
					<path fill="url(#SVGID_8_)" d="M165.637,309.126c-16.692-29.146-23.07-63.43-17.958-96.538c0.185-1.199,0.391-2.395,0.604-3.57
						c0.231-1.203-0.018-2.323-0.703-3.152c-0.711-0.86-1.805-1.334-3.081-1.334c-2.861,0-6.172,2.448-6.965,7.132
						c-3.575,21.63-2.383,44.195,3.447,65.256c3.248,11.732,8.165,23.391,14.614,34.652c0.549,0.958,1.631,1.444,3.217,1.444h0
						c1.926,0,6.031-0.945,6.812-2.292C165.917,310.22,165.922,309.622,165.637,309.126z"/>
					<linearGradient id="SVGID_9_" gradientUnits="userSpaceOnUse" x1="244.9532" y1="155.9055" x2="66.8587" y2="155.9055">
						<stop  offset="0" style="stop-color:#EAF6FD"/>
						<stop  offset="1" style="stop-color:#BAE3F9"/>
					</linearGradient>
					<path fill="url(#SVGID_9_)" d="M242.746,103.866c-2.115-2.41-5.626-3.632-10.435-3.632c-6.647,0-14.256,2.355-18.512,4.543
						c-11.624,5.977-22.554,13.972-32.486,23.761c-14.465,14.259-26.252,31.833-34.086,50.824l-0.061,0.143
						c-1.962,4.771-3.699,9.737-5.166,14.768c-8.112,3.771-16.195,6.867-24.032,9.205c-7.024,2.096-15.25,4.238-23.001,4.239
						c-7.567,0-13.149-2.144-16.592-6.373c-2.191-2.692-2.959-6.115-2.282-10.174c0.908-5.444,4.26-11.854,10.247-19.596
						c0.559-0.724,1.139-1.434,1.708-2.13c2.57-3.046,3.145-5.332,1.708-6.794c-0.572-0.583-1.301-0.891-2.108-0.891
						c-1.972,0-4.392,1.787-7.39,5.452c-3.775,4.477-6.938,9.059-9.404,13.619c-2.926,5.413-4.323,10.919-3.932,15.505
						c0.437,5.12,2.962,9.037,7.505,11.643c5.565,3.191,12.366,3.6,17.67,3.6l0.519-0.001c7.432-0.041,15.47-1.216,25.295-3.698
						c7.973-2.014,15.929-4.742,24.323-8.339c2.653-1.137,5.422-2.399,8.23-3.751c8.786-4.233,17.916-9.342,27.91-15.618
						c18.764-11.781,34.039-23.708,46.697-36.463c8.729-8.796,18.172-19.179,19.732-31.106
						C245.287,108.91,244.594,105.971,242.746,103.866z M222.796,135.783c-13.271,15.597-29.999,27.799-43.088,36.687
						c-9.401,6.383-18.174,11.736-26.742,16.314c1.575-4.691,3.415-9.364,5.481-13.923c6.744-14.877,15.838-28.479,27.03-40.425
						c2.585-2.759,5.252-5.403,7.926-7.858c2.476-2.273,24.522-22.208,35.983-22.208c2.854,0,4.691,1.308,5.616,3.998
						C238.203,117.674,228.56,129.007,222.796,135.783z"/>
					<linearGradient id="SVGID_11_" gradientUnits="userSpaceOnUse" x1="165.2894" y1="127.2566" x2="77.3209" y2="127.2566">
						<stop  offset="0" style="stop-color:#EAF6FD"/>
						<stop  offset="1" style="stop-color:#BAE3F9"/>
					</linearGradient>
					<path fill="url(#SVGID_11_)" d="M165.111,119.355c-0.535-1.137-2.167-1.713-4.853-1.713c-1.041,0-1.97,0.09-2.565,0.166
						c-7.829,0.997-15.501,4.935-22.271,8.409l-0.676,0.347c-9.269,4.752-18.815,10.731-28.375,17.769
						c-4.988,3.672-9.337,7.152-13.291,10.633c-1.442-0.006-2.723-0.168-3.91-0.496c-1.543-0.426-2.573-1.243-3.062-2.427
						c-1.211-2.935,1.04-7.272,1.758-8.531c6.303-11.043,18.216-19.217,29.879-26.642c13.977-8.898,26.872-14.71,39.423-17.769
						c0.021-0.005,2.061-0.565,2.089-1.555c0.008-0.294-0.141-0.693-0.9-0.924c-0.543-0.166-1.157-0.25-1.824-0.25
						c-1.242,0-2.496,0.281-3.574,0.543c-23.579,5.747-43.503,18.762-56.065,28.668c-7.413,5.845-14.787,12.375-18.519,20.507
						c-1.327,2.892-1.403,5.502-0.221,7.551c1.396,2.419,4.443,3.965,8.579,4.352c1.06,0.099,2.145,0.147,3.319,0.147
						c0.276,0,0.551-0.002,0.828-0.008c2.466-0.047,5.083-0.321,7.78-0.814c5.294-0.966,10.507-2.659,14.909-4.188
						c9.264-3.217,19.017-7.944,29.814-14.452c7.093-4.275,15.133-9.121,20.573-15.689
						C165.168,121.525,165.556,120.303,165.111,119.355z M156.135,122.508l-0.202,0.258c-2.157,2.836-5.201,5.074-8.145,7.238
						l-0.708,0.521c-11.828,8.728-25.411,15.972-39.282,20.949c-1.25,0.449-2.61,0.937-4.021,1.401
						c7.583-6.44,16.458-12.713,27.053-19.126l0.302-0.183c7.879-4.769,16.789-10.161,25.865-12.517
						C156.926,121.51,156.458,122.1,156.135,122.508z"/>
				</g>
			</g>
		</g>
	</g>
	<g>
		<g>
			<path fill="#D3EDFB" d="M53.855,221.6c0.631-0.46,1.329-0.771,2.093-0.933c0.764-0.163,1.543-0.163,2.338,0
				s1.58,0.498,2.354,1.009s1.489,1.213,2.141,2.107c0.648,0.889,1.099,1.787,1.353,2.694c0.254,0.906,0.331,1.777,0.23,2.612
				c-0.101,0.834-0.367,1.613-0.8,2.335c-0.433,0.722-1.006,1.344-1.722,1.865c-0.089,0.065-0.187,0.134-0.291,0.206
				c-0.104,0.072-0.203,0.133-0.294,0.185l-6.419-8.808c-0.206,0.303-0.343,0.651-0.412,1.043c-0.069,0.393-0.064,0.818,0.013,1.278
				c0.077,0.459,0.23,0.943,0.46,1.453c0.23,0.509,0.541,1.032,0.932,1.568s0.836,1.029,1.337,1.479
				c0.5,0.449,1.014,0.852,1.54,1.209l-1.208,2.089c-0.364-0.202-0.715-0.42-1.05-0.654c-0.336-0.234-0.664-0.495-0.982-0.783
				s-0.631-0.604-0.938-0.948c-0.307-0.344-0.61-0.721-0.91-1.131c-0.763-1.047-1.306-2.057-1.629-3.03
				c-0.322-0.974-0.459-1.885-0.41-2.734c0.049-0.85,0.271-1.624,0.665-2.321C52.64,222.692,53.176,222.095,53.855,221.6z
				 M61.292,229.896c0.196-0.272,0.342-0.578,0.437-0.917s0.13-0.701,0.104-1.084c-0.026-0.384-0.118-0.784-0.277-1.2
				c-0.158-0.417-0.389-0.833-0.692-1.248c-0.322-0.442-0.666-0.808-1.03-1.098c-0.364-0.29-0.73-0.511-1.098-0.662
				c-0.368-0.151-0.729-0.236-1.082-0.257c-0.354-0.021-0.685,0.017-0.993,0.113L61.292,229.896z"/>
			<path fill="#D3EDFB" d="M71.512,234.691l2,2.087l-8.32,7.973l-2-2.087L71.512,234.691z M73.648,234.647
				c-0.198-0.207-0.348-0.422-0.449-0.645c-0.102-0.223-0.158-0.442-0.169-0.656c-0.011-0.214,0.02-0.417,0.093-0.609
				s0.185-0.359,0.335-0.504c0.155-0.148,0.33-0.255,0.524-0.32c0.195-0.065,0.398-0.086,0.609-0.063s0.426,0.09,0.645,0.2
				c0.219,0.111,0.427,0.27,0.625,0.476c0.203,0.212,0.355,0.429,0.456,0.652s0.159,0.44,0.172,0.653
				c0.014,0.212-0.016,0.414-0.089,0.606s-0.187,0.362-0.342,0.511c-0.15,0.144-0.323,0.249-0.518,0.313
				c-0.195,0.065-0.399,0.087-0.613,0.066c-0.214-0.021-0.43-0.086-0.648-0.197C74.061,235.019,73.85,234.858,73.648,234.647z"/>
			<path fill="#D3EDFB" d="M78.715,241.993l2.261,1.8l-0.608,0.764c0.873,0.137,1.638,0.355,2.294,0.654
				c0.657,0.298,1.248,0.656,1.772,1.074c0.688,0.547,1.244,1.155,1.669,1.823s0.694,1.37,0.806,2.108
				c0.111,0.738,0.052,1.5-0.179,2.286c-0.231,0.786-0.656,1.568-1.277,2.348l-3.528,4.431l-2.253-1.794l3.236-4.064
				c0.393-0.494,0.675-0.992,0.845-1.493c0.17-0.501,0.23-0.99,0.181-1.466c-0.049-0.477-0.206-0.934-0.468-1.372
				s-0.626-0.842-1.089-1.211c-0.244-0.194-0.516-0.369-0.813-0.523c-0.298-0.154-0.608-0.282-0.93-0.384
				c-0.322-0.103-0.653-0.175-0.994-0.217s-0.676-0.05-1.007-0.021l-4.836,6.073l-2.261-1.801L78.715,241.993z"/>
			<path fill="#D3EDFB" d="M91.233,261.125c0.456,0.789,1.04,1.507,1.752,2.156c0.712,0.648,1.499,1.211,2.358,1.688
				c0.581,0.322,1.086,0.551,1.518,0.686c0.431,0.135,0.798,0.205,1.102,0.208c0.303,0.004,0.546-0.046,0.732-0.152
				c0.185-0.106,0.324-0.241,0.415-0.406c0.133-0.239,0.143-0.502,0.029-0.788c-0.113-0.286-0.409-0.562-0.887-0.827
				c-0.222-0.124-0.469-0.242-0.741-0.355c-0.272-0.113-0.558-0.233-0.856-0.358c-0.299-0.125-0.609-0.258-0.93-0.398
				c-0.32-0.14-0.637-0.297-0.95-0.471c-0.683-0.379-1.224-0.776-1.623-1.19c-0.399-0.415-0.678-0.834-0.838-1.258
				c-0.16-0.424-0.21-0.849-0.153-1.274c0.057-0.426,0.198-0.841,0.422-1.245c0.284-0.512,0.666-0.918,1.145-1.219
				c0.479-0.3,1.028-0.485,1.648-0.554c0.619-0.07,1.292-0.019,2.02,0.154c0.727,0.173,1.478,0.474,2.252,0.903
				c0.404,0.224,0.813,0.483,1.228,0.776s0.813,0.598,1.196,0.915s0.741,0.637,1.076,0.959c0.334,0.324,0.62,0.628,0.855,0.916
				l-1.884,1.523c-0.511-0.596-1.048-1.141-1.611-1.636c-0.563-0.495-1.183-0.93-1.861-1.306c-0.473-0.262-0.892-0.448-1.259-0.559
				c-0.367-0.11-0.686-0.164-0.955-0.161s-0.493,0.054-0.671,0.152c-0.178,0.099-0.312,0.231-0.404,0.396
				c-0.066,0.12-0.102,0.241-0.107,0.365s0.028,0.252,0.1,0.385c0.071,0.133,0.187,0.267,0.345,0.404
				c0.159,0.136,0.369,0.277,0.631,0.422c0.239,0.133,0.5,0.259,0.784,0.379c0.283,0.12,0.579,0.245,0.886,0.375
				c0.308,0.13,0.625,0.267,0.951,0.41s0.651,0.306,0.976,0.485c0.604,0.335,1.092,0.699,1.466,1.092
				c0.374,0.394,0.637,0.8,0.792,1.221c0.154,0.42,0.208,0.846,0.164,1.275s-0.181,0.849-0.408,1.259
				c-0.294,0.53-0.689,0.954-1.187,1.274s-1.081,0.512-1.749,0.576c-0.668,0.065-1.415-0.009-2.24-0.22
				c-0.824-0.212-1.709-0.58-2.654-1.104c-0.581-0.322-1.122-0.669-1.624-1.04s-0.963-0.753-1.384-1.147
				c-0.422-0.394-0.802-0.793-1.14-1.196c-0.338-0.404-0.632-0.797-0.88-1.181L91.233,261.125z"/>
			<path fill="#D3EDFB" d="M112.09,264.962l-2.599-0.997l0.776-2.024l2.599,0.997l1.284-3.346l2.699,1.035l-1.284,3.346l2.599,0.997
				l-0.776,2.024l-2.599-0.997l-3.351,8.735l-2.699-1.036L112.09,264.962z"/>
			<path fill="#D3EDFB" d="M122.126,272.345c0.17-0.763,0.489-1.457,0.956-2.083s1.052-1.141,1.756-1.544
				c0.704-0.403,1.515-0.668,2.435-0.796c0.919-0.128,1.919-0.072,2.999,0.17c1.074,0.24,2.005,0.617,2.794,1.13
				s1.421,1.117,1.897,1.81s0.789,1.454,0.941,2.281c0.152,0.828,0.131,1.674-0.062,2.538c-0.024,0.108-0.051,0.224-0.083,0.347
				c-0.031,0.123-0.064,0.234-0.099,0.333l-10.636-2.377c0.045,0.364,0.172,0.715,0.379,1.055c0.208,0.34,0.492,0.657,0.854,0.951
				c0.361,0.294,0.796,0.557,1.305,0.787c0.509,0.23,1.087,0.418,1.735,0.563c0.648,0.145,1.308,0.221,1.981,0.228
				c0.672,0.007,1.324-0.029,1.955-0.108l0.472,2.367c-0.407,0.089-0.814,0.157-1.221,0.202c-0.407,0.046-0.825,0.066-1.254,0.06
				s-0.873-0.037-1.33-0.092c-0.458-0.056-0.935-0.139-1.43-0.25c-1.265-0.283-2.339-0.683-3.224-1.201
				c-0.885-0.518-1.589-1.112-2.113-1.783c-0.524-0.67-0.868-1.398-1.033-2.182C121.934,273.967,121.943,273.164,122.126,272.345z
				 M133.188,273.667c-0.032-0.334-0.125-0.66-0.277-0.978c-0.152-0.318-0.365-0.612-0.638-0.883s-0.606-0.511-1-0.719
				c-0.394-0.208-0.842-0.368-1.343-0.48c-0.534-0.119-1.034-0.167-1.499-0.145c-0.465,0.023-0.886,0.099-1.262,0.229
				s-0.703,0.303-0.982,0.521s-0.502,0.465-0.671,0.741L133.188,273.667z"/>
			<path fill="#D3EDFB" d="M144.029,270.531l2.879,0.253l-1.011,11.479l-2.879-0.253L144.029,270.531z M145.607,269.092
				c-0.285-0.025-0.54-0.088-0.763-0.19c-0.223-0.101-0.41-0.229-0.559-0.382c-0.15-0.154-0.261-0.327-0.332-0.52
				s-0.098-0.393-0.079-0.6c0.019-0.214,0.08-0.41,0.184-0.587c0.104-0.177,0.243-0.327,0.417-0.448
				c0.174-0.122,0.38-0.213,0.617-0.274c0.237-0.061,0.499-0.079,0.784-0.053c0.292,0.025,0.549,0.089,0.772,0.19
				c0.223,0.102,0.41,0.227,0.56,0.378c0.15,0.15,0.261,0.322,0.332,0.514c0.071,0.193,0.097,0.396,0.079,0.61
				c-0.019,0.208-0.08,0.4-0.183,0.577c-0.104,0.177-0.243,0.328-0.417,0.454c-0.174,0.125-0.38,0.218-0.618,0.279
				S145.899,269.117,145.607,269.092z"/>
			<path fill="#D3EDFB" d="M154.312,271.284l2.888-0.119l0.04,0.976c0.75-0.467,1.471-0.803,2.163-1.008s1.373-0.321,2.043-0.348
				c0.878-0.037,1.697,0.059,2.455,0.285c0.759,0.226,1.422,0.581,1.989,1.066s1.021,1.1,1.361,1.845
				c0.34,0.745,0.531,1.615,0.572,2.611l0.234,5.659l-2.878,0.119l-0.214-5.191c-0.026-0.631-0.139-1.191-0.338-1.682
				c-0.2-0.49-0.474-0.899-0.823-1.227s-0.767-0.571-1.252-0.73s-1.024-0.227-1.616-0.202c-0.312,0.013-0.631,0.059-0.957,0.137
				c-0.326,0.079-0.644,0.185-0.955,0.318s-0.608,0.295-0.894,0.486c-0.286,0.191-0.544,0.405-0.775,0.643l0.32,7.757l-2.888,0.119
				L154.312,271.284z"/>
			<path fill="#D3EDFB" d="M192.497,282.366l-2.758,0.865l-4.856-15.487l2.758-0.865l0.324,1.034
				c0.19-0.244,0.426-0.492,0.708-0.744c0.282-0.252,0.595-0.494,0.939-0.725c0.344-0.23,0.707-0.442,1.091-0.634
				c0.383-0.192,0.777-0.351,1.181-0.478c0.932-0.292,1.83-0.424,2.696-0.395c0.865,0.029,1.655,0.204,2.37,0.526
				s1.338,0.779,1.869,1.374c0.531,0.595,0.928,1.311,1.19,2.149c0.275,0.876,0.358,1.718,0.25,2.526
				c-0.108,0.809-0.374,1.554-0.798,2.236c-0.424,0.682-0.993,1.284-1.706,1.804c-0.714,0.521-1.536,0.927-2.468,1.219
				c-0.397,0.125-0.798,0.223-1.202,0.295c-0.404,0.072-0.798,0.121-1.182,0.146c-0.385,0.025-0.753,0.026-1.104,0.003
				c-0.352-0.023-0.671-0.068-0.958-0.135L192.497,282.366z M190.004,274.418c0.35,0.136,0.704,0.233,1.063,0.291
				c0.359,0.058,0.716,0.086,1.07,0.084s0.703-0.031,1.047-0.088c0.344-0.057,0.671-0.134,0.981-0.231
				c0.634-0.199,1.171-0.461,1.611-0.787c0.44-0.326,0.783-0.691,1.028-1.095c0.245-0.404,0.394-0.836,0.448-1.297
				c0.053-0.46,0.006-0.927-0.142-1.399c-0.138-0.441-0.357-0.829-0.657-1.165s-0.663-0.599-1.087-0.79s-0.898-0.298-1.421-0.322
				c-0.523-0.023-1.076,0.056-1.66,0.239c-0.373,0.117-0.734,0.27-1.085,0.458c-0.35,0.188-0.677,0.402-0.981,0.64
				c-0.304,0.239-0.578,0.499-0.82,0.779s-0.44,0.571-0.591,0.871L190.004,274.418z"/>
			<path fill="#D3EDFB" d="M203.93,260.976l2.603-1.258l0.723,1.495c0.367-0.706,0.795-1.368,1.284-1.988
				c0.488-0.62,1.01-1.165,1.563-1.635l1.917,2.013c-0.954,0.584-1.727,1.234-2.317,1.95s-0.97,1.505-1.139,2.367l2.985,6.172
				l-2.603,1.258L203.93,260.976z"/>
			<path fill="#D3EDFB" d="M218.625,260.003c-0.465-0.684-0.762-1.418-0.892-2.205c-0.129-0.786-0.088-1.577,0.122-2.374
				c0.21-0.796,0.592-1.572,1.146-2.327s1.286-1.441,2.195-2.06c0.91-0.619,1.817-1.047,2.723-1.285
				c0.905-0.237,1.767-0.308,2.585-0.21c0.818,0.097,1.568,0.35,2.252,0.759c0.684,0.409,1.258,0.956,1.723,1.639
				s0.762,1.418,0.891,2.205c0.129,0.786,0.089,1.578-0.122,2.374c-0.21,0.796-0.592,1.572-1.146,2.326s-1.286,1.441-2.195,2.06
				s-1.817,1.047-2.722,1.285c-0.905,0.238-1.767,0.308-2.585,0.21c-0.818-0.097-1.569-0.35-2.252-0.759
				C219.664,261.234,219.089,260.687,218.625,260.003z M221.136,258.296c0.26,0.382,0.583,0.692,0.969,0.929
				c0.386,0.238,0.814,0.387,1.285,0.449c0.471,0.062,0.97,0.025,1.497-0.108c0.527-0.134,1.06-0.384,1.598-0.75
				c0.539-0.366,0.967-0.77,1.285-1.21c0.318-0.44,0.535-0.891,0.651-1.352c0.116-0.46,0.134-0.914,0.055-1.36
				c-0.079-0.446-0.249-0.86-0.508-1.242c-0.26-0.382-0.584-0.694-0.972-0.934c-0.388-0.24-0.817-0.391-1.288-0.453
				c-0.471-0.061-0.97-0.025-1.497,0.109c-0.527,0.134-1.06,0.384-1.598,0.75c-0.539,0.366-0.967,0.77-1.285,1.21
				c-0.318,0.441-0.536,0.892-0.651,1.352c-0.116,0.461-0.133,0.916-0.052,1.364C220.705,257.498,220.876,257.913,221.136,258.296z"
				/>
			<path fill="#D3EDFB" d="M228.5,240.078l2.076-2.011l4.01,4.138c0.06-0.303,0.159-0.63,0.298-0.983s0.311-0.709,0.514-1.069
				s0.434-0.712,0.69-1.056s0.537-0.663,0.84-0.957c0.702-0.68,1.445-1.201,2.231-1.563s1.571-0.562,2.354-0.595
				s1.545,0.096,2.287,0.388c0.741,0.293,1.418,0.754,2.029,1.386c0.639,0.659,1.091,1.375,1.358,2.145
				c0.267,0.771,0.363,1.556,0.291,2.356c-0.073,0.8-0.311,1.593-0.714,2.378c-0.404,0.786-0.956,1.518-1.658,2.198
				c-0.299,0.29-0.613,0.558-0.941,0.804c-0.329,0.246-0.659,0.466-0.991,0.661c-0.332,0.195-0.661,0.361-0.985,0.499
				c-0.325,0.138-0.63,0.241-0.917,0.31l0.578,0.596l-2.076,2.012L228.5,240.078z M239.328,247.099
				c0.374-0.036,0.734-0.108,1.081-0.218c0.347-0.109,0.678-0.245,0.994-0.405c0.316-0.161,0.614-0.344,0.896-0.549
				c0.282-0.205,0.54-0.421,0.773-0.647c0.477-0.462,0.839-0.938,1.086-1.426s0.389-0.969,0.426-1.44
				c0.038-0.471-0.023-0.924-0.182-1.36c-0.159-0.435-0.411-0.831-0.755-1.186c-0.321-0.332-0.692-0.581-1.11-0.746
				c-0.418-0.166-0.861-0.238-1.326-0.218c-0.465,0.02-0.937,0.137-1.414,0.351c-0.478,0.213-0.937,0.533-1.376,0.959
				c-0.28,0.272-0.535,0.57-0.763,0.896s-0.425,0.663-0.589,1.013c-0.164,0.35-0.292,0.705-0.383,1.064
				c-0.091,0.36-0.136,0.708-0.137,1.044L239.328,247.099z"/>
			<path fill="#D3EDFB" d="M249.818,233.123c-0.632-0.459-1.144-1.027-1.533-1.704c-0.39-0.677-0.63-1.418-0.721-2.225
				c-0.091-0.806-0.013-1.656,0.234-2.551c0.247-0.895,0.695-1.79,1.346-2.686c0.646-0.891,1.361-1.596,2.146-2.117
				c0.784-0.521,1.589-0.862,2.414-1.023c0.825-0.162,1.648-0.147,2.468,0.041c0.82,0.189,1.589,0.543,2.305,1.063
				c0.09,0.065,0.185,0.136,0.286,0.213c0.101,0.077,0.19,0.152,0.267,0.223l-6.401,8.821c0.352,0.103,0.725,0.126,1.12,0.07
				c0.394-0.056,0.798-0.191,1.211-0.406c0.413-0.215,0.827-0.51,1.24-0.886c0.414-0.376,0.815-0.833,1.205-1.37
				c0.39-0.537,0.722-1.113,0.995-1.728s0.498-1.227,0.676-1.838l2.36,0.505c-0.08,0.409-0.179,0.81-0.299,1.201
				c-0.119,0.392-0.267,0.784-0.442,1.175c-0.175,0.392-0.379,0.786-0.612,1.185c-0.232,0.398-0.498,0.803-0.796,1.214
				c-0.761,1.049-1.554,1.876-2.381,2.483s-1.651,1.018-2.475,1.232s-1.628,0.243-2.413,0.083S250.498,233.616,249.818,233.123z
				 M255.419,223.492c-0.319-0.103-0.655-0.147-1.007-0.133s-0.707,0.092-1.064,0.235c-0.357,0.143-0.709,0.354-1.057,0.633
				c-0.347,0.279-0.672,0.627-0.974,1.043c-0.321,0.443-0.563,0.882-0.728,1.318c-0.164,0.436-0.261,0.853-0.291,1.249
				c-0.03,0.396,0,0.766,0.089,1.108s0.228,0.646,0.414,0.91L255.419,223.492z"/>
		</g>
		<g>
			<g>
				<g>
					<path fill="#D3EDFB" d="M61.622,78.057c-2.008,0.134-2.489-1.173-1.329-2.814c0.536-0.758,1.125-1.487,1.686-2.226
						c1.459-1.923,2.998-3.768,4.756-5.425c0.805-0.759-0.52-1.855-1.316-1.104c-1.566,1.476-2.942,3.099-4.268,4.791
						c-1.166,1.487-2.523,3.004-3.273,4.753c-1.137,2.653,1.799,3.876,3.894,3.737C62.878,79.694,62.727,77.983,61.622,78.057
						L61.622,78.057z"/>
					<path fill="#D3EDFB" d="M59.704,74.873c1.355,1.037,3.034,0.809,4.624,0.661c1.104-0.102,0.955-1.814-0.15-1.711
						c-1.048,0.097-2.46,0.431-3.37-0.266C59.931,72.886,58.823,74.199,59.704,74.873L59.704,74.873z"/>
					<path fill="#D3EDFB" d="M62.649,71.833c1.718-0.031,3.434,0.121,5.152,0.037c1.109-0.054,0.955-1.765-0.15-1.711
						c-1.718,0.084-3.434-0.068-5.152-0.037C61.389,70.141,61.547,71.853,62.649,71.833L62.649,71.833z"/>
					<path fill="#D3EDFB" d="M69.11,87.301c-1.281-1.023-2.687-1.875-3.958-2.915c-0.676-0.552-2.063-1.66-1.709-2.699
						c0.465-1.362,1.715-2.625,2.636-3.703c1.425-1.668,2.895-3.528,4.534-4.993c2.225-1.988,5.417,2.632,7.135,4.014
						c0.862,0.694,1.968-0.621,1.104-1.316c-1.552-1.248-2.943-2.687-4.447-3.992c-0.852-0.739-1.862-1.465-3.053-1.075
						c-2.553,0.836-4.399,3.813-6.119,5.724c-1.516,1.684-4.651,4.64-3.146,7.157c1.37,2.291,3.896,3.497,5.918,5.113
						C68.87,89.308,69.976,87.993,69.11,87.301L69.11,87.301z"/>
					<path fill="#D3EDFB" d="M67.128,84.466c2.451-2.828,4.763-5.771,7.215-8.598c0.726-0.838-0.591-1.941-1.316-1.104
						c-2.451,2.827-4.764,5.77-7.215,8.598C65.086,84.2,66.403,85.303,67.128,84.466L67.128,84.466z"/>
					<path fill="#D3EDFB" d="M65.994,81.422c1.314-1.399,3.034-0.587,3.393,1.154c0.116,0.563,0.176,1.14,0.282,1.706
						c0.174,0.93,0.566,1.769,1.209,2.464c1.408,1.524,4.46,3.078,4.445,5.39c-0.007,1.109,1.704,0.949,1.711-0.15
						c0.01-1.576-0.983-2.724-2.043-3.788c-1.723-1.73-3.406-2.58-3.803-5.204c-0.26-1.715-0.732-3.152-2.352-3.983
						c-1.465-0.751-3.184,0.269-4.158,1.306C63.919,81.127,65.239,82.226,65.994,81.422L65.994,81.422z"/>
					<path fill="#D3EDFB" d="M72.621,82.597c0.796-0.978,1.562-2.434,2.757-2.969c0.517-0.231,0.579,2.467,0.551,2.804
						c-0.129,1.546-0.543,2.912-1.013,4.381c-0.333,1.04,1.225,1.77,1.563,0.715c0.615-1.923,1.145-3.719,1.192-5.758
						c0.029-1.258-0.226-3.29-1.605-3.794c-2.019-0.739-3.74,2.262-4.76,3.516C70.607,82.352,71.922,83.457,72.621,82.597
						L72.621,82.597z"/>
					<path fill="#D3EDFB" d="M73.943,85.699c0.753-0.94,1.404-1.953,2.223-2.839c1.04-1.124,2.135-0.734,3.278-0.17
						c1.524,0.752,2.981,1.699,4.749,1.538c1.104-0.1,0.955-1.812-0.15-1.711c-2.188,0.199-3.916-1.864-6.047-2.132
						c-2.555-0.321-4.05,2.562-5.369,4.21C71.935,85.459,73.249,86.565,73.943,85.699L73.943,85.699z"/>
				</g>
				<g>
					<path fill="#D3EDFB" d="M87.47,50.987c-0.154-1.413,3.363-2.832,4.386-3.369c1.442-0.757,6.532-4.628,7.778-2.938
						c1.533,2.079,2.729,4.472,4.041,6.693c1.723,2.918,4.301,5.837,4.192,9.414c-0.082,2.692-3.092,4.616-5.314,5.486
						c-2.371,0.929-4.78,0.476-6.579-1.316c-1.661-1.655-2.839-4.227-4.026-6.232c-1.515-2.559-2.92-5.176-4.43-7.737
						c-0.562-0.954-2.051-0.096-1.488,0.859c1.963,3.329,3.786,6.735,5.812,10.029c1.598,2.598,3.035,5.202,6.041,6.288
						c5.191,1.875,12.041-3.187,11.677-8.596c-0.257-3.821-3.386-7.29-5.226-10.47c-0.951-1.643-1.986-3.23-2.951-4.863
						c-0.49-0.829-1.215-1.812-2.263-1.905c-1.45-0.128-2.778,0.822-3.991,1.496c-1.658,0.921-3.303,1.857-4.977,2.75
						c-1.502,0.802-4.634,2.27-4.401,4.401C85.871,52.068,87.59,52.086,87.47,50.987L87.47,50.987z"/>
					<path fill="#D3EDFB" d="M93.546,56.472c0.485-3.697,4.099-6.075,7.616-4.726c1.035,0.397,1.469-1.267,0.445-1.659
						c-4.654-1.785-9.165,1.696-9.779,6.376C91.684,57.561,93.404,57.554,93.546,56.472L93.546,56.472z"/>
					<path fill="#D3EDFB" d="M93.358,49.115c2.669,4.636,5.671,9.396,4.236,14.927c-0.278,1.073,1.381,1.518,1.659,0.445
						c1.562-6.022-1.485-11.155-4.408-16.231C94.293,47.296,92.805,48.155,93.358,49.115L93.358,49.115z"/>
					<path fill="#D3EDFB" d="M96.251,53.925c2.229,3.559,5.88,5.761,9.689,7.318c1.024,0.419,1.457-1.246,0.445-1.659
						c-3.364-1.375-6.679-3.377-8.646-6.518C97.152,52.129,95.662,52.985,96.251,53.925L96.251,53.925z"/>
				</g>
				<g>
					<path fill="#D3EDFB" d="M125.684,35.138c2.905-0.803,5.794-1.588,8.814-1.789c1.105-0.074,0.795-1.765-0.298-1.692
						c-3.02,0.201-5.909,0.986-8.814,1.789C124.328,33.739,124.616,35.433,125.684,35.138L125.684,35.138z"/>
					<path fill="#D3EDFB" d="M127.891,37.54c1.739-0.481,3.528-0.777,5.303-1.09c1.091-0.192,0.793-1.884-0.298-1.692
						c-1.775,0.313-3.564,0.609-5.303,1.09C126.534,36.141,126.823,37.835,127.891,37.54L127.891,37.54z"/>
					<path fill="#D3EDFB" d="M128.656,40.119c1.662-0.217,3.272-0.717,4.917-1.022c1.089-0.202,0.791-1.894-0.298-1.692
						c-1.645,0.305-3.255,0.805-4.917,1.022C127.257,38.571,127.56,40.262,128.656,40.119L128.656,40.119z"/>
					<path fill="#D3EDFB" d="M125.896,31.174c0.455,2.583,0.865,5.179,1.375,7.752c0.409,2.06,1.452,3.874,3.713,4.041
						c5.855,0.433,2.341-10.007,2.15-12.738c-0.077-1.105-1.768-0.795-1.692,0.298c0.143,2.043,0.558,4.043,0.899,6.059
						c0.27,1.597,0.962,5.346-1.925,4.562c-1.476-0.401-1.591-3.258-1.805-4.471c-0.341-1.934-0.682-3.867-1.023-5.801
						C127.395,29.785,125.704,30.083,125.896,31.174L125.896,31.174z"/>
					<path fill="#D3EDFB" d="M127.649,46.282c2.707-0.477,5.414-0.955,8.121-1.432c1.091-0.192,0.793-1.884-0.298-1.692
						c-2.707,0.477-5.414,0.955-8.121,1.432C126.259,44.782,126.558,46.474,127.649,46.282L127.649,46.282z"/>
					<path fill="#D3EDFB" d="M129.389,45.103c0.599,3.383,0.695,6.046-0.075,9.457c-0.244,1.08,1.471,1.226,1.711,0.162
						c0.805-3.568,0.683-6.38,0.056-9.918C130.888,43.714,129.196,44.012,129.389,45.103L129.389,45.103z"/>
					<path fill="#D3EDFB" d="M132.347,44.73c0.597,3.272,1.761,6.757,3.524,9.583c0.579,0.928,2.139,0.203,1.552-0.737
						c-1.687-2.705-2.813-6.014-3.384-9.144C133.84,43.343,132.148,43.64,132.347,44.73L132.347,44.73z"/>
					<path fill="#D3EDFB" d="M137.95,29.951c1.007-0.202,2.096-0.552,3.124-0.305c0.633,0.152,0.737,1.223,0.025,1.438
						c-0.685,0.206-1.478,0.181-2.186,0.223c-2.349,0.139-3.36,1.741-3.318,4.011c0.053,2.84,1.096,5.845,1.478,8.674
						c0.402,2.971,0.417,5.991,0.652,8.977c0.087,1.105,1.778,0.796,1.692-0.298c-0.26-3.312-0.267-6.663-0.795-9.949
						c-0.293-1.822-0.534-3.657-0.973-5.451c-0.278-1.136-0.495-2.252-0.161-3.405c0.306-1.057,1.962-0.88,2.755-0.932
						c2.474-0.164,3.545-1.375,2.708-3.738c-0.727-2.053-3.797-1.237-5.3-0.937C136.567,28.477,136.863,30.169,137.95,29.951
						L137.95,29.951z"/>
					<path fill="#D3EDFB" d="M137.36,38.041c2.446-0.315,4.805-1.125,7.266-1.337c1.104-0.095,0.796-1.786-0.298-1.692
						c-2.461,0.212-4.819,1.022-7.266,1.337C135.962,36.491,136.265,38.182,137.36,38.041L137.36,38.041z"/>
					<path fill="#D3EDFB" d="M140.093,36.939c1.569,5.244,1.687,10.688,3.897,15.768c0.442,1.016,1.994,0.278,1.552-0.737
						c-2.147-4.936-2.233-10.233-3.757-15.329C141.471,35.592,139.776,35.879,140.093,36.939L140.093,36.939z"/>
				</g>
				<g>
					<path fill="#D3EDFB" d="M237.623,72.804c2.734-1.056,5.558-1.821,8.384-2.583c0.536-0.006,0.497-0.21-0.118-0.61
						c-0.087,0.232-0.181,0.461-0.282,0.687c-0.234,0.546-0.505,1.076-0.768,1.608c-0.517,1.045-1.112,2.081-1.469,3.195
						c-0.336,1.052,1.279,1.638,1.618,0.579c0.448-1.402,1.234-2.705,1.875-4.024c0.401-0.824,1.374-2.327,0.322-3.053
						c-0.992-0.685-3.019,0.415-4.013,0.646c-2.137,0.497-4.219,1.201-6.264,1.991C235.872,71.641,236.596,73.2,237.623,72.804
						L237.623,72.804z"/>
					<path fill="#D3EDFB" d="M239.52,72.423c0.765,1.02,1.631,1.953,2.454,2.925c0.716,0.845,2.032-0.259,1.316-1.104
						c-0.823-0.972-1.689-1.905-2.454-2.925C240.171,70.431,238.858,71.54,239.52,72.423L239.52,72.423z"/>
					<path fill="#D3EDFB" d="M234.932,74.379c1.446,1.711,2.96,3.363,4.407,5.074c0.715,0.846,2.031-0.258,1.316-1.104
						c-1.446-1.711-2.96-3.363-4.407-5.074C235.533,72.429,234.217,73.533,234.932,74.379L234.932,74.379z"/>
					<path fill="#D3EDFB" d="M240.492,72.779c-2.105,2.084-4.352,3.962-6.703,5.761c-1.8,1.378-2.61,3.425-1.973,5.663
						c0.3,1.056,1.996,0.775,1.694-0.289c-0.767-2.696,1.222-3.915,3.067-5.358c1.767-1.383,3.426-2.882,5.02-4.46
						C242.378,73.321,241.28,71.999,240.492,72.779L240.492,72.779z"/>
					<path fill="#D3EDFB" d="M243.27,78.198c2.013,2.342,4.283,4.431,6.143,6.906c0.666,0.887,1.979-0.222,1.316-1.104
						c-1.86-2.475-4.131-4.564-6.143-6.906C243.864,76.254,242.547,77.357,243.27,78.198L243.27,78.198z"/>
					<path fill="#D3EDFB" d="M252.803,74.86c-5.791,5.468-12.657,9.801-18.342,15.38c-0.785,0.771,0.313,2.093,1.104,1.316
						c5.685-5.579,12.551-9.913,18.342-15.38C254.71,75.419,253.61,74.098,252.803,74.86L252.803,74.86z"/>
				</g>
				<g>
					<path fill="#D3EDFB" d="M168.41,38.196c2.08,0.367,4.161,0.734,6.241,1.1c1.091,0.192,1.389-1.499,0.298-1.692
						c-2.08-0.367-4.161-0.734-6.241-1.1C167.617,36.312,167.319,38.003,168.41,38.196L168.41,38.196z"/>
					<path fill="#D3EDFB" d="M172.608,29.442c-0.425,5.606-1.859,11.108-2.923,16.614c-0.21,1.088,1.482,1.385,1.692,0.298
						c1.063-5.506,2.498-11.008,2.923-16.614C174.383,28.647,172.692,28.338,172.608,29.442L172.608,29.442z"/>
					<path fill="#D3EDFB" d="M166.58,46.596c2.531,0.304,5.06,0.591,7.572,1.025c1.092,0.189,1.39-1.503,0.298-1.692
						c-2.513-0.434-5.042-0.721-7.572-1.025C165.783,44.772,165.478,46.463,166.58,46.596L166.58,46.596z"/>
					<path fill="#D3EDFB" d="M178.373,38.635c2.004,0.497,4.032,0.866,6.064,1.224c1.091,0.193,1.389-1.499,0.298-1.692
						c-2.032-0.359-4.06-0.728-6.064-1.224C177.595,36.676,177.303,38.37,178.373,38.635L178.373,38.635z"/>
					<path fill="#D3EDFB" d="M173.549,51.042c3.626,0.219,7.147,0.823,10.674,1.684c1.077,0.263,1.369-1.431,0.298-1.692
						c-3.527-0.861-7.048-1.465-10.674-1.684C172.755,49.284,172.444,50.975,173.549,51.042L173.549,51.042z"/>
					<path fill="#D3EDFB" d="M177.985,32.809c-0.478,2.399-0.667,4.839-1.122,7.245c-0.347,1.833-0.43,3.703,0.714,5.261
						c1.678,2.285,5.463,1.742,6.838-0.557c1.298-2.172,1.221-4.698,1.595-7.124c0.229-1.481,1.004-3.328,0.12-4.714
						c-1.205-1.888-6.813-3.091-8.006-0.822c-0.517,0.983,1.039,1.714,1.552,0.737c0.293-0.557,2.413,0.049,2.9,0.154
						c1.252,0.268,2.376,0.632,2.141,2.092c-0.439,2.734-0.436,5.924-1.57,8.462c-0.511,1.144-1.74,1.635-2.911,1.48
						c-1.913-0.253-1.953-2.437-1.806-3.88c0.269-2.641,0.727-5.428,1.246-8.036C179.893,32.02,178.201,31.724,177.985,32.809
						L177.985,32.809z"/>
				</g>
				<g>
					<path fill="#D3EDFB" d="M210.295,44.524c-0.403,3.021,2.479,5.34,5.393,4.501c1.054-0.304,0.767-1.999-0.298-1.692
						c-1.86,0.536-3.649-0.667-3.382-2.669C212.154,43.566,210.442,43.427,210.295,44.524L210.295,44.524z"/>
					<path fill="#D3EDFB" d="M206.591,51.464c1.669,0.248,3.867,1.014,5.171,2.109c0.849,0.713,1.827-0.7,0.985-1.407
						c-1.537-1.292-4.054-2.123-6.016-2.415C205.635,49.589,205.498,51.302,206.591,51.464L206.591,51.464z"/>
					<path fill="#D3EDFB" d="M216.333,51.671c0.842-1.189,1.454-2.554,2.464-3.619c1.389-1.465,3.382,0.685,4.44,1.579
						c1.194,1.008,3.643,1.876,2.489,3.786c-0.684,1.131-1.64,2.072-2.294,3.225c-0.542,0.955,0.86,1.949,1.407,0.985
						c0.893-1.573,2.72-2.992,3.035-4.841c0.353-2.076-1.802-3.182-3.221-4.196c-1.666-1.191-2.974-2.936-5.203-2.795
						c-2.23,0.141-3.461,3.388-4.524,4.891C214.286,51.59,215.693,52.575,216.333,51.671L216.333,51.671z"/>
					<path fill="#D3EDFB" d="M218.44,52.184c1.141-0.522,2.35-0.839,3.348-1.635c0.868-0.693-0.231-2.014-1.095-1.324
						c-0.864,0.689-1.979,0.945-2.97,1.398C216.713,51.085,217.434,52.645,218.44,52.184L218.44,52.184z"/>
					<path fill="#D3EDFB" d="M222.358,50.593c-0.291,1.632-0.177,3.255,0.103,4.88c0.188,1.093,1.88,0.794,1.692-0.298
						c-0.257-1.494-0.349-2.941-0.082-4.441C224.264,49.644,222.551,49.51,222.358,50.593L222.358,50.593z"/>
					<path fill="#D3EDFB" d="M214.191,52.92c-0.913,2.254,0.224,4.732,2.299,5.875c1.614,0.89,4.368,1.43,5.86,0.071
						c0.818-0.745-0.276-2.07-1.095-1.324c-0.939,0.855-2.672,0.251-3.707-0.14c-1.542-0.582-2.347-2.403-1.738-3.906
						C216.226,52.469,214.607,51.894,214.191,52.92L214.191,52.92z"/>
					<path fill="#D3EDFB" d="M206.714,65.675c1.918-2.401,4.753-6.591,8.418-5.499c3.635,1.082-0.173,8.657-1.616,10.216
						c-0.742,0.802,0.345,2.134,1.095,1.324c1.595-1.724,2.771-4.002,3.255-6.311c0.344-1.643,0.944-5.046-0.868-6.161
						c-4.872-3.001-8.925,1.983-11.691,5.446C204.614,65.556,206.026,66.536,206.714,65.675L206.714,65.675z"/>
					<path fill="#D3EDFB" d="M218.907,53.846c-3.292,4.701-6.553,9.43-10.044,13.986c-0.675,0.88,0.735,1.862,1.407,0.985
						c3.492-4.556,6.753-9.285,10.044-13.986C220.949,53.924,219.542,52.938,218.907,53.846L218.907,53.846z"/>
					<path fill="#D3EDFB" d="M218.133,42.878c-1.511-0.717-2.915-0.04-3.953,1.158c-1.468,1.695-2.653,3.677-4.015,5.463
						c-1.743,2.285-3.255,4.728-5.233,6.83c-1.586,1.686-3.768,2.719-5.584,4.143c-0.874,0.685,0.226,2.006,1.095,1.324
						c1.503-1.178,3.202-2.076,4.675-3.28c1.732-1.416,3.092-3.356,4.387-5.155c1.313-1.824,2.664-3.617,3.989-5.433
						c0.878-1.202,2.237-4.297,4.063-3.431C218.556,44.971,219.126,43.349,218.133,42.878L218.133,42.878z"/>
				</g>
			</g>
		</g>
	</g>
</g>
</svg>
