<?xml version="1.0" encoding="utf-8"?>
<!-- Generator: Adobe Illustrator 26.0.3, SVG Export Plug-In . SVG Version: 6.00 Build 0)  -->
<svg version="1.1" id="Layer_1" xmlns="http://www.w3.org/2000/svg" xmlns:xlink="http://www.w3.org/1999/xlink" x="0px" y="0px"
	 viewBox="0 0 311.62 257.99" width="311.62" height="257.99" enable-background="new 0 0 311.62 257.99" xml:space="preserve">
<g>
	
		<ellipse transform="matrix(0.2227 -0.9749 0.9749 0.2227 -13.4965 241.0602)" fill="#0060A9" cx="144.42" cy="128.99" rx="128.99" ry="128.99"/>
	<path fill="#FFFFFF" d="M146.2,11.72c0,0.58-0.47,1.05-1.05,1.05c-0.58,0-1.05-0.47-1.05-1.05c0-0.58,0.47-1.05,1.05-1.05
		C145.72,10.67,146.2,11.14,146.2,11.72z"/>
	<path fill="#FFFFFF" d="M153.47,27.64c0,0.71-0.58,1.29-1.29,1.29c-0.71,0-1.29-0.58-1.29-1.29c0-0.71,0.58-1.29,1.29-1.29
		C152.89,26.35,153.47,26.93,153.47,27.64z"/>
	<path fill="#FFFFFF" d="M172.38,53.67c0,0.71-0.58,1.29-1.29,1.29c-0.71,0-1.29-0.58-1.29-1.29c0-0.71,0.58-1.29,1.29-1.29
		C171.8,52.37,172.38,52.96,172.38,53.67z"/>
	<path fill="#FFFFFF" d="M142,36.61c0,0.58-0.47,1.05-1.05,1.05c-0.58,0-1.05-0.47-1.05-1.05c0-0.58,0.47-1.05,1.05-1.05
		C141.52,35.56,142,36.04,142,36.61z"/>
	<path fill="#FFFFFF" d="M153.31,42.59c0,0.58-0.47,1.05-1.05,1.05c-0.58,0-1.05-0.47-1.05-1.05c0-0.58,0.47-1.05,1.05-1.05
		C152.84,41.54,153.31,42.02,153.31,42.59z"/>
	<path fill="#FFFFFF" d="M138.6,25.86c0,0.71-0.58,1.29-1.29,1.29c-0.71,0-1.29-0.58-1.29-1.29c0-0.71,0.58-1.29,1.29-1.29
		C138.02,24.57,138.6,25.15,138.6,25.86z"/>
	<path fill="#FFFFFF" d="M121.47,36.29c0,0.58-0.47,1.05-1.05,1.05c-0.58,0-1.05-0.47-1.05-1.05c0-0.58,0.47-1.05,1.05-1.05
		C120.99,35.24,121.47,35.71,121.47,36.29z"/>
	<circle fill="#FFFFFF" cx="123.49" cy="38.39" r="1.05"/>
	<path fill="#FFFFFF" d="M127.61,40.49c0,0.58-0.47,1.05-1.05,1.05c-0.58,0-1.05-0.47-1.05-1.05c0-0.58,0.47-1.05,1.05-1.05
		C127.13,39.44,127.61,39.92,127.61,40.49z"/>
	<path fill="#FFFFFF" d="M122.92,44.53c0,0.58-0.47,1.05-1.05,1.05c-0.58,0-1.05-0.47-1.05-1.05c0-0.58,0.47-1.05,1.05-1.05
		C122.45,43.48,122.92,43.96,122.92,44.53z"/>
	<path fill="#FFFFFF" d="M98.51,61.67c0,0.58-0.47,1.05-1.05,1.05c-0.58,0-1.05-0.47-1.05-1.05c0-0.58,0.47-1.05,1.05-1.05
		C98.04,60.62,98.51,61.09,98.51,61.67z"/>
	<path fill="#FFFFFF" d="M103.04,67.16c0,0.58-0.47,1.05-1.05,1.05c-0.58,0-1.05-0.47-1.05-1.05c0-0.58,0.47-1.05,1.05-1.05
		C102.56,66.11,103.04,66.59,103.04,67.16z"/>
	<path fill="#FFFFFF" d="M99.48,155.91c0,0.58-0.47,1.05-1.05,1.05c-0.58,0-1.05-0.47-1.05-1.05c0-0.58,0.47-1.05,1.05-1.05
		C99.01,154.86,99.48,155.33,99.48,155.91z"/>
	<path fill="#FFFFFF" d="M100.13,180.4c0,0.71-0.58,1.29-1.29,1.29c-0.71,0-1.29-0.58-1.29-1.29c0-0.71,0.58-1.29,1.29-1.29
		C99.54,179.1,100.13,179.69,100.13,180.4z"/>
	<path fill="#FFFFFF" d="M86.23,192.93c0,0.58-0.47,1.05-1.05,1.05c-0.58,0-1.05-0.47-1.05-1.05c0-0.58,0.47-1.05,1.05-1.05
		C85.75,191.87,86.23,192.35,86.23,192.93z"/>
	<path fill="#FFFFFF" d="M69.58,198.02c0,0.71-0.58,1.29-1.29,1.29c-0.71,0-1.29-0.58-1.29-1.29c0-0.71,0.58-1.29,1.29-1.29
		C68.99,196.72,69.58,197.31,69.58,198.02z"/>
	<path fill="#FFFFFF" d="M66.18,186.7c0,0.71-0.58,1.29-1.29,1.29c-0.71,0-1.29-0.58-1.29-1.29c0-0.71,0.58-1.29,1.29-1.29
		C65.6,185.41,66.18,185.99,66.18,186.7z"/>
	<path fill="#FFFFFF" d="M64.24,193.9c0,0.58-0.47,1.05-1.05,1.05c-0.58,0-1.05-0.47-1.05-1.05c0-0.58,0.47-1.05,1.05-1.05
		C63.77,192.84,64.24,193.32,64.24,193.9z"/>
	<path fill="#FFFFFF" d="M51.8,187.91c0,0.58-0.47,1.05-1.05,1.05c-0.58,0-1.05-0.47-1.05-1.05c0-0.58,0.47-1.05,1.05-1.05
		C51.32,186.86,51.8,187.34,51.8,187.91z"/>
	<path fill="#FFFFFF" d="M95.28,208.12c0,0.58-0.47,1.05-1.05,1.05c-0.58,0-1.05-0.47-1.05-1.05c0-0.58,0.47-1.05,1.05-1.05
		C94.81,207.07,95.28,207.54,95.28,208.12z"/>
	<path fill="#FFFFFF" d="M108.37,198.5c0,0.71-0.58,1.29-1.29,1.29c-0.71,0-1.29-0.58-1.29-1.29c0-0.71,0.58-1.29,1.29-1.29
		C107.79,197.21,108.37,197.79,108.37,198.5z"/>
	<path fill="#FFFFFF" d="M109.83,210.87c0,0.58-0.47,1.05-1.05,1.05c-0.58,0-1.05-0.47-1.05-1.05c0-0.58,0.47-1.05,1.05-1.05
		C109.35,209.82,109.83,210.29,109.83,210.87z"/>
	<path fill="#FFFFFF" d="M163.66,199.07c0,0.58-0.47,1.05-1.05,1.05c-0.58,0-1.05-0.47-1.05-1.05c0-0.58,0.47-1.05,1.05-1.05
		C163.18,198.02,163.66,198.49,163.66,199.07z"/>
	<path fill="#FFFFFF" d="M138.6,207.96c0,0.58-0.47,1.05-1.05,1.05c-0.58,0-1.05-0.47-1.05-1.05c0-0.58,0.47-1.05,1.05-1.05
		C138.13,206.91,138.6,207.38,138.6,207.96z"/>
	<path fill="#FFFFFF" d="M206.01,220.73c0,0.58-0.47,1.05-1.05,1.05c-0.58,0-1.05-0.47-1.05-1.05c0-0.58,0.47-1.05,1.05-1.05
		C205.53,219.68,206.01,220.15,206.01,220.73z"/>
	<path fill="#FFFFFF" d="M211.5,171.02c0,0.71-0.58,1.29-1.29,1.29c-0.71,0-1.29-0.58-1.29-1.29c0-0.71,0.58-1.29,1.29-1.29
		C210.92,169.73,211.5,170.31,211.5,171.02z"/>
	<circle fill="#FFFFFF" cx="200.11" cy="178.05" r="1.05"/>
	<path fill="#FFFFFF" d="M211.34,180.07c0,0.71-0.58,1.29-1.29,1.29s-1.29-0.58-1.29-1.29c0-0.71,0.58-1.29,1.29-1.29
		S211.34,179.36,211.34,180.07z"/>
	<path fill="#FFFFFF" d="M201.16,192.6c0,0.58-0.47,1.05-1.05,1.05c-0.58,0-1.05-0.47-1.05-1.05c0-0.58,0.47-1.05,1.05-1.05
		C200.68,191.55,201.16,192.03,201.16,192.6z"/>
	<path fill="#FFFFFF" d="M227.51,163.99c0,0.58-0.47,1.05-1.05,1.05c-0.58,0-1.05-0.47-1.05-1.05c0-0.58,0.47-1.05,1.05-1.05
		C227.03,162.94,227.51,163.41,227.51,163.99z"/>
	<path fill="#FFFFFF" d="M230.09,170.38c0,0.71-0.58,1.29-1.29,1.29c-0.71,0-1.29-0.58-1.29-1.29s0.58-1.29,1.29-1.29
		C229.51,169.08,230.09,169.67,230.09,170.38z"/>
	<path fill="#FFFFFF" d="M248.2,177.97c0,0.71-0.58,1.29-1.29,1.29c-0.71,0-1.29-0.58-1.29-1.29c0-0.71,0.58-1.29,1.29-1.29
		C247.61,176.68,248.2,177.26,248.2,177.97z"/>
	<path fill="#FFFFFF" d="M229.77,191.47c0,0.58-0.47,1.05-1.05,1.05c-0.58,0-1.05-0.47-1.05-1.05c0-0.58,0.47-1.05,1.05-1.05
		C229.29,190.42,229.77,190.89,229.77,191.47z"/>
	<path fill="#FFFFFF" d="M241.41,180.48c0,0.58-0.47,1.05-1.05,1.05c-0.58,0-1.05-0.47-1.05-1.05c0-0.58,0.47-1.05,1.05-1.05
		C240.93,179.43,241.41,179.9,241.41,180.48z"/>
	<path fill="#FFFFFF" d="M239.31,197.45c0,0.58-0.47,1.05-1.05,1.05c-0.58,0-1.05-0.47-1.05-1.05c0-0.58,0.47-1.05,1.05-1.05
		C238.83,196.4,239.31,196.87,239.31,197.45z"/>
	<path fill="#FFFFFF" d="M168.84,24.65c0.18-0.66,0.71-1.17,1.38-1.32l0.37-2.77l0.54,2.79c0.65,0.18,1.15,0.71,1.3,1.38l2.8,0.4
		l-2.83,0.5c-0.18,0.64-0.69,1.14-1.34,1.3l-0.48,2.85l-0.48-2.87c-0.63-0.18-1.12-0.69-1.28-1.33l-2.7-0.44L168.84,24.65z"/>
	<path fill="#FFFFFF" d="M96.37,222.94c0.18-0.66,0.71-1.17,1.38-1.32l0.37-2.77l0.54,2.79c0.65,0.18,1.15,0.71,1.3,1.38l2.8,0.4
		l-2.83,0.5c-0.18,0.64-0.69,1.14-1.34,1.29l-0.48,2.85l-0.48-2.87c-0.63-0.18-1.12-0.69-1.28-1.33l-2.7-0.44L96.37,222.94z"/>
	<path fill="#FFFFFF" d="M229.65,197.37c0.18-0.66,0.71-1.17,1.38-1.32l0.37-2.77l0.54,2.79c0.65,0.18,1.15,0.71,1.3,1.38l2.8,0.4
		l-2.83,0.5c-0.18,0.64-0.69,1.14-1.34,1.29l-0.48,2.85l-0.48-2.87c-0.63-0.18-1.12-0.69-1.28-1.33l-2.7-0.44L229.65,197.37z"/>
	<path fill="#FFFFFF" d="M240.2,168.86c0.18-0.66,0.71-1.17,1.38-1.32l0.37-2.77l0.54,2.79c0.65,0.18,1.15,0.71,1.3,1.38l2.8,0.4
		l-2.83,0.5c-0.18,0.64-0.69,1.14-1.34,1.3l-0.48,2.85l-0.48-2.87c-0.63-0.18-1.12-0.69-1.28-1.33l-2.7-0.44L240.2,168.86z"/>
	<path fill="#FFFFFF" d="M109.3,63.55c0.18-0.66,0.71-1.17,1.38-1.32l0.37-2.77l0.54,2.79c0.65,0.18,1.15,0.71,1.3,1.38l2.8,0.4
		l-2.83,0.5c-0.18,0.64-0.69,1.14-1.34,1.3l-0.48,2.85l-0.48-2.87c-0.63-0.18-1.12-0.69-1.28-1.33l-2.7-0.44L109.3,63.55z"/>
	<path fill="#FFFFFF" d="M100.75,123.57c9.53,16.65,20.64,28.83,29.58,40.41c7.94,10.27,23.41,15.42,17.96,20.3
		c-6.14,5.5-21.01-18.75-21.01-18.75c-9.88-11.92-19.34-24.56-28.99-41.1L100.75,123.57z"/>
	<path fill="#EF3E42" d="M0,167.26c46.04-30.24,126.4-49.76,192.59-76.04c50.29-19.96,95-45.02,119.04-79.53
		C250.71,135.77,81.06,121.08,3.31,168.42L0,167.26z"/>
	<g>
		<path fill="#FFFFFF" d="M122.74,135l-6.67-16.91L111.18,135H122.74z M107.05,105.73h23.06l16.53,41.63l5.51,5.53h-30.02l5.51-5.53
			l-1.96-5.08h-16.57l-1.7,5.81l3.95,4.8H95.7l5.51-5.53l10.62-36.82L107.05,105.73z"/>
		<path fill="#FFFFFF" d="M230.75,135l-6.67-16.91l-4.9,16.91H230.75z M214.17,105.73h23.93l16.53,41.63l5.51,5.53h-30.02l5.51-5.53
			l-1.96-5.08h-16.57l-1.7,5.81l3.95,4.8H203.7l5.51-5.53l10.62-36.82L214.17,105.73z"/>
		<path fill="#FFFFFF" d="M75.75,135.11c0-2.04,0-24.56,0-24.56l-4.79-4.82h15.95l-4.79,4.82v36.82l5.51,5.53H66.69l-18.06-30.54
			c0,1.17,0,25.01,0,25.01l4.64,5.53H36.6l5.51-5.53v-36.82l-4.79-4.82h20.88L75.75,135.11z"/>
		<path fill="#FFFFFF" d="M196.54,117.83l-0.49-14.69l-4.94,3.41c-6.96-2.44-15.07-2.34-20.75,0.35c-5.29,2.5-11,7.79-10.31,15.31
			c0.7,7.52,6.52,10.42,11.77,12.8c6.76,3.06,14.11,4.1,14,8.14c-0.07,2.57-4.34,4.42-7.66,4.31c-3.03-0.1-12.88-0.83-18.04-6.96
			l0.98,15.45l5.5-4.04c6.69,2.37,14.79,3.36,22.28,0.91c7.45-2.43,15.29-8.66,10.94-19.56c-1.87-4.69-7.02-7.58-10.1-8.84
			c-2.81-1.15-11.4-4.53-13.79-5.78c-2.8-1.46-2.49-6.09,4.25-7.03C186.28,110.79,194.73,115.67,196.54,117.83z"/>
	</g>
	<path fill="#EF3E42" d="M35.66,239.67c92.47-94.38,230.3-137.98,275.97-227.98c-27.5,87.5-174.78,135.76-276.22,232.42
		L35.66,239.67z"/>
	<path fill="#FFFFFF" d="M98.29,124.43c-1.08-1.86-2.17-3.76-3.26-5.72c-24.65-44.35-21.1-89.61,23.52-69.89
		c37.87,16.74,74.03,63.69,88.58,97.03c6.74,15.45,24.81,76.09-33.38,51.52l-0.11-0.35c54.96,22.63,45.46-34.72,16.04-78.68
		c-16.65-24.88-38.36-45.6-52.05-55.61c-45.58-33.3-73.39-12.93-41.38,52.37c1.45,2.96,2.95,5.78,4.5,8.48L98.29,124.43z"/>
</g>
</svg>
