<?xml version="1.0" encoding="UTF-8" standalone="no"?>
<svg
   xmlns:dc="http://purl.org/dc/elements/1.1/"
   xmlns:cc="http://creativecommons.org/ns#"
   xmlns:rdf="http://www.w3.org/1999/02/22-rdf-syntax-ns#"
   xmlns:svg="http://www.w3.org/2000/svg"
   xmlns="http://www.w3.org/2000/svg"
   viewBox="0 0 293.28113 256.38004"
   height="256.38004"
   width="293.28113"
   xml:space="preserve"
   version="1.1"
   id="svg2"><metadata
     id="metadata8"><rdf:RDF><cc:Work
         rdf:about=""><dc:format>image/svg+xml</dc:format><dc:type
           rdf:resource="http://purl.org/dc/dcmitype/StillImage" /><dc:title></dc:title></cc:Work></rdf:RDF></metadata><defs
     id="defs6"><clipPath
       id="clipPath648"
       clipPathUnits="userSpaceOnUse"><path
         id="path650"
         d="m 663.227,475.214 223.773,0 0,194.954 -223.773,0 0,-194.954 z" /></clipPath><clipPath
       id="clipPath780"
       clipPathUnits="userSpaceOnUse"><path
         id="path782"
         d="m 876.71,589.077 c -1.92,-2.243 -2.269,-5.09 -0.786,-6.352 l 0,0 c 1.479,-1.267 4.235,-0.471 6.152,1.775 l 0,0 c 1.916,2.243 2.266,5.088 0.783,6.354 l 0,0 c -0.478,0.407 -1.089,0.601 -1.761,0.601 l 0,0 c -1.411,0 -3.093,-0.855 -4.388,-2.378" /></clipPath><clipPath
       id="clipPath790"
       clipPathUnits="userSpaceOnUse"><path
         id="path792"
         d="m 870.75039,594.88803 13.59108,-3.43312 3.69018,-13.42992 -13.59108,3.43313 -3.69018,13.42991 z" /></clipPath><radialGradient
       id="radialGradient794"
       spreadMethod="pad"
       gradientTransform="matrix(5.748291,-1.4520264,1.4520264,-5.2844543,879.39093,586.78848)"
       gradientUnits="userSpaceOnUse"
       r="1"
       cy="0"
       cx="0"
       fy="0"
       fx="0"><stop
         id="stop796"
         offset="0"
         style="stop-opacity:1;stop-color:#d1d7ed" /><stop
         id="stop798"
         offset="0.483521"
         style="stop-opacity:1;stop-color:#59a3da" /><stop
         id="stop800"
         offset="1"
         style="stop-opacity:1;stop-color:#08446f" /></radialGradient><clipPath
       id="clipPath808"
       clipPathUnits="userSpaceOnUse"><path
         id="path810"
         d="m 663.227,475.214 223.773,0 0,194.954 -223.773,0 0,-194.954 z" /></clipPath><clipPath
       id="clipPath820"
       clipPathUnits="userSpaceOnUse"><path
         id="path822"
         d="m 668.406,495.784 c -3.08,-1.991 -1.269,-7.602 -0.726,-10.315 l 0,0 c 1.029,-5.143 2.896,-7.97 6.194,-6.268 l 0,0 c 4.905,2.519 53.869,25.77 61.639,96.425 l 0,0 c -24.821,-83.961 -56.674,-73.088 -67.107,-79.842" /></clipPath><clipPath
       id="clipPath830"
       clipPathUnits="userSpaceOnUse"><path
         id="path832"
         d="m 784.45587,523.11658 -86.50129,-80.62417 -81.57084,87.51697 86.5013,80.62416 81.57083,-87.51696 z" /></clipPath><radialGradient
       id="radialGradient834"
       spreadMethod="pad"
       gradientTransform="matrix(-66.305756,-61.800766,-61.800766,66.305756,727.56911,558.18536)"
       gradientUnits="userSpaceOnUse"
       r="1"
       cy="0"
       cx="0"
       fy="0"
       fx="0"><stop
         id="stop836"
         offset="0"
         style="stop-opacity:1;stop-color:#d1d7ed" /><stop
         id="stop838"
         offset="0.483521"
         style="stop-opacity:1;stop-color:#59a3da" /><stop
         id="stop840"
         offset="1"
         style="stop-opacity:1;stop-color:#08446f" /></radialGradient><clipPath
       id="clipPath848"
       clipPathUnits="userSpaceOnUse"><path
         id="path850"
         d="m 667.511,495.818 c -0.908,-0.169 -0.935,-4.131 -0.063,-8.848 l 0,0 c 0.872,-4.719 2.316,-8.408 3.225,-8.24 l 0,0 c 0.908,0.17 0.937,4.132 0.062,8.846 l 0,0 c -0.854,4.614 -2.253,8.247 -3.163,8.247 l 0,0 c -0.02,0 -0.04,-10e-4 -0.061,-0.005" /></clipPath><clipPath
       id="clipPath858"
       clipPathUnits="userSpaceOnUse"><path
         id="path860"
         d="m 674.43442,476.08675 -7.85875,2.47542 -2.82503,19.73694 7.85875,-2.47543 2.82503,-19.73693 z" /></clipPath><radialGradient
       id="radialGradient862"
       spreadMethod="pad"
       gradientTransform="matrix(-6.1372375,1.9331665,-2.9069977,20.309647,667.44841,486.96803)"
       gradientUnits="userSpaceOnUse"
       r="1"
       cy="0"
       cx="0"
       fy="0"
       fx="0"><stop
         id="stop864"
         offset="0"
         style="stop-opacity:1;stop-color:#08446f" /><stop
         id="stop866"
         offset="0.0824127"
         style="stop-opacity:1;stop-color:#08446f" /><stop
         id="stop868"
         offset="0.483521"
         style="stop-opacity:1;stop-color:#59a3da" /><stop
         id="stop870"
         offset="1"
         style="stop-opacity:1;stop-color:#59a3da" /></radialGradient><clipPath
       id="clipPath878"
       clipPathUnits="userSpaceOnUse"><path
         id="path880"
         d="m 663.227,475.214 223.773,0 0,194.954 -223.773,0 0,-194.954 z" /></clipPath><clipPath
       id="clipPath890"
       clipPathUnits="userSpaceOnUse"><path
         id="path892"
         d="m 700.204,572.56 c 13.879,-9.929 46.065,-17.025 61.405,-13.052 l 0,0 c 8.697,2.99 3.906,10.417 -11.005,15.672 l 0,0 c -7.458,2.629 -16.652,4.654 -24.624,4.944 l 0,0 c -8.18,-0.651 -12.069,-3.714 -8.195,-8.005 l 0,0 c -10.11,5.171 -7.441,9.98 3.803,9.955 l 0,0 c 11.246,-0.029 22.077,-1.93 34.023,-6.039 l 0,0 c 16.345,-6.056 22.773,-13.361 17.036,-17.494 l 0,0 c -4.568,-2.642 -13.181,-4.012 -23.794,-3.514 l 0,0 c 6.18,-0.448 11.896,-0.405 16.633,0.19 l 0,0 c 14.826,1.636 14.843,8.991 2.076,16.711 l 0,0 c -7.141,4.029 -17.56,7.799 -29.931,10.036 l 0,0 c -16.959,3.25 -28.615,1.408 -31.281,-3.4 l 0,0 c -2.153,-2.465 1.932,-5.819 9.181,-9.382 l 0,0 c 10.314,-4.24 21.041,-6.603 30.857,-5.827 l 0,0 c 9.814,0.78 6.248,6.472 -2.433,10.836 l 0,0 c 9.199,-2.028 16.242,-6.523 17.26,-9.201 l 0,0 c 0.81,-3.61 -5.942,-5.066 -14.017,-5.248 l 0,0 c -15.946,0.576 -34.129,5.564 -43.928,12.145 l 0,0 c -15.314,10.737 -0.986,17.39 23.964,15.185 l 0,0 c -0.601,0.104 -5.012,0.517 -13.413,0.676 l 0,0 c -15.428,-1.539 -26.169,-6.529 -13.617,-15.188 m 48.649,-17.533 c -6.762,0.491 -14.079,1.571 -21.285,3.16 l 0,0 c 7.53,-1.847 14.784,-2.854 21.285,-3.16" /></clipPath><clipPath
       id="clipPath900"
       clipPathUnits="userSpaceOnUse"><path
         id="path902"
         d="m 686.09712,592.55248 94.23139,-3.27589 1.55486,-38.02405 -94.23139,3.27589 -1.55486,38.02405 z" /></clipPath><radialGradient
       id="radialGradient904"
       spreadMethod="pad"
       gradientTransform="matrix(22.679962,-0.7884521,0.7884521,-19.281631,735.30591,570.74075)"
       gradientUnits="userSpaceOnUse"
       r="1"
       cy="0"
       cx="0"
       fy="0"
       fx="0"><stop
         id="stop906"
         offset="0"
         style="stop-opacity:1;stop-color:#d1d7ed" /><stop
         id="stop908"
         offset="0.483521"
         style="stop-opacity:1;stop-color:#59a3da" /><stop
         id="stop910"
         offset="1"
         style="stop-opacity:1;stop-color:#08446f" /></radialGradient><clipPath
       id="clipPath918"
       clipPathUnits="userSpaceOnUse"><path
         id="path920"
         d="m 729.134,572.073 c -0.173,-0.931 2.398,-2.203 5.752,-2.833 l 0,0 c 3.354,-0.628 6.214,-0.381 6.388,0.552 l 0,0 c 0.177,0.935 -2.399,2.207 -5.75,2.837 l 0,0 c -1.254,0.234 -2.438,0.346 -3.44,0.346 l 0,0 c -1.678,0 -2.842,-0.316 -2.95,-0.902" /></clipPath><clipPath
       id="clipPath928"
       clipPathUnits="userSpaceOnUse"><path
         id="path930"
         d="m 728.961,572.97476 12.49071,0 0,-4.36317 -12.49071,0 0,4.36317 z" /></clipPath><radialGradient
       id="radialGradient932"
       spreadMethod="pad"
       gradientTransform="matrix(4.5341949,0,0,-4.5341949,735.20418,570.9339)"
       gradientUnits="userSpaceOnUse"
       r="1"
       cy="0"
       cx="0"
       fy="0"
       fx="0"><stop
         id="stop934"
         offset="0"
         style="stop-opacity:1;stop-color:#d1d7ed" /><stop
         id="stop936"
         offset="0.483521"
         style="stop-opacity:1;stop-color:#59a3da" /><stop
         id="stop938"
         offset="1"
         style="stop-opacity:1;stop-color:#08446f" /></radialGradient><clipPath
       id="clipPath946"
       clipPathUnits="userSpaceOnUse"><path
         id="path948"
         d="m 663.227,475.214 223.773,0 0,194.954 -223.773,0 0,-194.954 z" /></clipPath><clipPath
       id="clipPath958"
       clipPathUnits="userSpaceOnUse"><path
         id="path960"
         d="m 802.882,666.328 c -0.783,0 -1.648,-0.09 -2.608,-0.26 l 0,0 c -5.429,-0.966 -54.783,-23.77 -65.144,-94.094 l 0,0 c 27.889,82.996 60.305,71.419 71.175,77.443 l 0,0 c 4.509,2.505 5.107,7.562 3.5,11.343 l 0,0 c -1.665,3.913 -3.55,5.568 -6.92,5.568 l 0,0 c -10e-4,0 -0.002,0 -0.003,0" /></clipPath><clipPath
       id="clipPath968"
       clipPathUnits="userSpaceOnUse"><path
         id="path970"
         d="m 688.44016,625.91864 90.30184,78.15571 79.35881,-91.69192 -90.30184,-78.15571 -79.35881,91.69192 z" /></clipPath><radialGradient
       id="radialGradient972"
       spreadMethod="pad"
       gradientTransform="matrix(80.252136,69.457748,69.457748,-80.252136,736.04749,577.33453)"
       gradientUnits="userSpaceOnUse"
       r="1"
       cy="0"
       cx="0"
       fy="0"
       fx="0"><stop
         id="stop974"
         offset="0"
         style="stop-opacity:1;stop-color:#d1d7ed" /><stop
         id="stop976"
         offset="0.483521"
         style="stop-opacity:1;stop-color:#59a3da" /><stop
         id="stop978"
         offset="1"
         style="stop-opacity:1;stop-color:#08446f" /></radialGradient><clipPath
       id="clipPath986"
       clipPathUnits="userSpaceOnUse"><path
         id="path988"
         d="m 803.108,666.335 c -3.294,-0.483 -5.401,-4.723 -4.708,-9.474 l 0,0 c 0.702,-4.744 3.943,-8.199 7.238,-7.714 l 0,0 c 3.296,0.486 5.402,4.726 4.702,9.476 l 0,0 c -0.65,4.446 -3.534,7.758 -6.608,7.758 l 0,0 c -0.207,0 -0.415,-0.016 -0.624,-0.046" /></clipPath><clipPath
       id="clipPath996"
       clipPathUnits="userSpaceOnUse"><path
         id="path998"
         d="m 797.7066,666.38088 13.33388,0 0,-17.71829 -13.33388,0 0,17.71829 z" /></clipPath><radialGradient
       id="radialGradient1000"
       spreadMethod="pad"
       gradientTransform="matrix(14.707306,0,0,-14.707306,810.34143,658.62238)"
       gradientUnits="userSpaceOnUse"
       r="1"
       cy="0"
       cx="0"
       fy="0"
       fx="0"><stop
         id="stop1002"
         offset="0"
         style="stop-opacity:1;stop-color:#08446f" /><stop
         id="stop1004"
         offset="0.5"
         style="stop-opacity:1;stop-color:#59a3da" /><stop
         id="stop1006"
         offset="1"
         style="stop-opacity:1;stop-color:#d1d7ed" /></radialGradient><clipPath
       id="clipPath1014"
       clipPathUnits="userSpaceOnUse"><path
         id="path1016"
         d="m 663.227,475.214 223.773,0 0,194.954 -223.773,0 0,-194.954 z" /></clipPath></defs><g
     transform="matrix(1.25,0,0,-1.25,-822.6084,843.88034)"
     id="g10"><g
       id="g644"><g
         clip-path="url(#clipPath648)"
         id="g646"><g
           transform="translate(755.9808,525.0119)"
           id="g652"><path
             id="path654"
             style="fill:#000000;fill-opacity:1;fill-rule:nonzero;stroke:none"
             d="m 0,0 c -1.484,-0.489 -2.982,-0.733 -4.493,-0.733 -3.176,0 -5.572,0.849 -7.187,2.544 -1.615,1.698 -2.423,3.795 -2.423,6.292 0,2.524 0.878,4.731 2.633,6.617 1.756,1.887 4.19,2.83 7.303,2.83 1.122,0 2.185,-0.131 3.19,-0.394 l -0.34,-2.252 c -1.493,0.36 -2.696,0.542 -3.61,0.542 -2.19,0 -3.866,-0.663 -5.029,-1.988 -1.163,-1.325 -1.744,-2.97 -1.744,-4.935 0,-1.972 0.667,-3.7 2.002,-5.184 1.335,-1.485 3.219,-2.227 5.653,-2.227 0.443,0 1.109,0.069 1.995,0.204 -0.154,0.942 -0.23,2.036 -0.23,3.285 0,1.051 -0.064,2.077 -0.191,3.081 L 0,7.682 C -0.073,6.488 -0.109,5.226 -0.109,3.895 -0.109,3.325 -0.073,2.027 0,0" /></g><g
           transform="translate(764.3296,526.4432)"
           id="g656"><path
             id="path658"
             style="fill:#000000;fill-opacity:1;fill-rule:nonzero;stroke:none"
             d="m 0,0 c -0.031,0.94 -0.047,1.783 -0.047,2.531 -1.161,0 -2.045,-0.087 -2.65,-0.26 -1.014,-0.309 -1.52,-0.899 -1.52,-1.77 0,-0.841 0.593,-1.261 1.779,-1.261 1.02,0 1.832,0.253 2.438,0.76 M 1.64,-1.797 0.185,-1.854 c -0.074,0.303 -0.111,0.59 -0.111,0.862 l -0.093,0 c -0.76,-0.691 -1.794,-1.038 -3.104,-1.038 -0.711,0 -1.323,0.209 -1.836,0.626 -0.513,0.417 -0.769,1.012 -0.769,1.784 0,0.952 0.402,1.717 1.205,2.293 0.803,0.58 2.296,0.883 4.476,0.914 0.019,0.149 0.028,0.318 0.028,0.51 0,0.76 -0.202,1.267 -0.606,1.519 -0.406,0.254 -1.019,0.381 -1.841,0.381 -0.97,0 -1.924,-0.12 -2.863,-0.361 l 0.157,1.278 c 0.927,0.266 1.993,0.399 3.198,0.399 1.1,0 1.949,-0.227 2.549,-0.681 C 1.174,6.177 1.473,5.404 1.473,4.31 1.473,4.02 1.46,3.492 1.432,2.729 1.404,1.966 1.39,1.458 1.39,1.205 1.39,0.08 1.473,-0.92 1.64,-1.797" /></g><g
           transform="translate(779.9651,530.0125)"
           id="g660"><path
             id="path662"
             style="fill:#000000;fill-opacity:1;fill-rule:nonzero;stroke:none"
             d="m 0,0 c 0,0.987 -0.171,1.641 -0.514,1.959 -0.343,0.319 -0.907,0.478 -1.691,0.478 -0.661,0 -1.345,-0.325 -2.049,-0.973 -0.025,-0.755 -0.037,-1.492 -0.037,-2.215 0,-1.032 0.018,-2.571 0.055,-4.616 l -1.686,0 c 0.136,1.762 0.204,3.55 0.204,5.367 0,0.987 -0.172,1.641 -0.515,1.959 -0.342,0.319 -0.891,0.478 -1.645,0.478 -0.772,0 -1.495,-0.325 -2.169,-0.973 0,-1.959 0.012,-4.236 0.037,-6.831 l -1.686,0 c 0.117,2.1 0.176,3.62 0.176,4.56 0,1.427 -0.139,2.829 -0.418,4.208 l 1.632,0.231 0.167,-1.121 0.092,0 c 0.804,0.821 1.696,1.233 2.679,1.233 1.464,0 2.407,-0.412 2.827,-1.233 l 0.101,0 c 0.934,0.821 1.854,1.233 2.763,1.233 1.038,0 1.822,-0.229 2.354,-0.686 C 1.208,2.601 1.474,1.795 1.474,0.639 1.474,0.522 1.468,0.289 1.455,-0.056 1.443,-0.403 1.437,-0.634 1.437,-0.751 c 0,-1.032 0.012,-2.571 0.037,-4.616 l -1.687,0 C -0.071,-3.748 0,-1.959 0,0" /></g><g
           transform="translate(795.509,530.0125)"
           id="g664"><path
             id="path666"
             style="fill:#000000;fill-opacity:1;fill-rule:nonzero;stroke:none"
             d="m 0,0 c 0,0.987 -0.172,1.641 -0.515,1.959 -0.342,0.319 -0.906,0.478 -1.691,0.478 -0.661,0 -1.344,-0.325 -2.049,-0.973 -0.025,-0.755 -0.036,-1.492 -0.036,-2.215 0,-1.032 0.018,-2.571 0.056,-4.616 l -1.688,0 c 0.136,1.762 0.204,3.55 0.204,5.367 0,0.987 -0.172,1.641 -0.514,1.959 -0.343,0.319 -0.891,0.478 -1.645,0.478 -0.773,0 -1.496,-0.325 -2.169,-0.973 0,-1.959 0.012,-4.236 0.037,-6.831 l -1.686,0 c 0.117,2.1 0.176,3.62 0.176,4.56 0,1.427 -0.14,2.829 -0.418,4.208 l 1.632,0.231 0.166,-1.121 0.093,0 c 0.803,0.821 1.695,1.233 2.678,1.233 1.465,0 2.407,-0.412 2.828,-1.233 l 0.101,0 c 0.934,0.821 1.854,1.233 2.762,1.233 1.038,0 1.823,-0.229 2.354,-0.686 C 1.208,2.601 1.473,1.795 1.473,0.639 1.473,0.522 1.467,0.289 1.455,-0.056 1.443,-0.403 1.436,-0.634 1.436,-0.751 c 0,-1.032 0.013,-2.571 0.037,-4.616 l -1.686,0 C -0.071,-3.748 0,-1.959 0,0" /></g><g
           transform="translate(804.7314,526.4432)"
           id="g668"><path
             id="path670"
             style="fill:#000000;fill-opacity:1;fill-rule:nonzero;stroke:none"
             d="m 0,0 c -0.031,0.94 -0.047,1.783 -0.047,2.531 -1.161,0 -2.045,-0.087 -2.65,-0.26 -1.014,-0.309 -1.52,-0.899 -1.52,-1.77 0,-0.841 0.593,-1.261 1.779,-1.261 1.02,0 1.832,0.253 2.438,0.76 M 1.641,-1.797 0.185,-1.854 c -0.074,0.303 -0.111,0.59 -0.111,0.862 l -0.092,0 c -0.761,-0.691 -1.796,-1.038 -3.105,-1.038 -0.711,0 -1.323,0.209 -1.836,0.626 -0.513,0.417 -0.769,1.012 -0.769,1.784 0,0.952 0.401,1.717 1.205,2.293 0.802,0.58 2.295,0.883 4.476,0.914 0.019,0.149 0.029,0.318 0.029,0.51 0,0.76 -0.203,1.267 -0.608,1.519 -0.405,0.254 -1.017,0.381 -1.84,0.381 -0.97,0 -1.924,-0.12 -2.863,-0.361 l 0.157,1.278 c 0.927,0.266 1.993,0.399 3.198,0.399 1.099,0 1.949,-0.227 2.549,-0.681 C 1.174,6.177 1.473,5.404 1.473,4.31 1.473,4.02 1.459,3.492 1.432,2.729 1.404,1.966 1.391,1.458 1.391,1.205 c 0,-1.125 0.082,-2.125 0.25,-3.002" /></g><g
           transform="translate(811.9424,530.03)"
           id="g672"><path
             id="path674"
             style="fill:#000000;fill-opacity:1;fill-rule:nonzero;stroke:none"
             d="m 0,0 -0.111,-1.195 -3.967,-0.13 0.083,1.186 L 0,0 Z" /></g><g
           transform="translate(819.1068,533.4507)"
           id="g676"><path
             id="path678"
             style="fill:#000000;fill-opacity:1;fill-rule:nonzero;stroke:none"
             d="m 0,0 -0.417,-1.473 c -0.482,0.19 -0.93,0.286 -1.344,0.286 -1.162,0 -1.916,-0.553 -2.261,-1.658 0,-2.843 0.018,-4.83 0.056,-5.96 l -1.641,0 c 0.099,1.958 0.148,3.478 0.148,4.559 0,1.465 -0.146,2.868 -0.436,4.208 l 1.623,0.232 c 0.116,-0.68 0.175,-1.134 0.175,-1.362 l 0.075,0 c 0.667,0.982 1.446,1.474 2.335,1.474 C -1.217,0.306 -0.655,0.203 0,0" /></g><g
           transform="translate(825.5575,526.4432)"
           id="g680"><path
             id="path682"
             style="fill:#000000;fill-opacity:1;fill-rule:nonzero;stroke:none"
             d="m 0,0 c -0.031,0.94 -0.047,1.783 -0.047,2.531 -1.161,0 -2.045,-0.087 -2.65,-0.26 -1.014,-0.309 -1.52,-0.899 -1.52,-1.77 0,-0.841 0.592,-1.261 1.779,-1.261 1.02,0 1.832,0.253 2.438,0.76 M 1.641,-1.797 0.185,-1.854 c -0.074,0.303 -0.111,0.59 -0.111,0.862 l -0.093,0 c -0.76,-0.691 -1.794,-1.038 -3.104,-1.038 -0.711,0 -1.323,0.209 -1.836,0.626 -0.513,0.417 -0.769,1.012 -0.769,1.784 0,0.952 0.401,1.717 1.205,2.293 0.802,0.58 2.296,0.883 4.476,0.914 0.019,0.149 0.028,0.318 0.028,0.51 0,0.76 -0.202,1.267 -0.607,1.519 -0.405,0.254 -1.017,0.381 -1.84,0.381 -0.97,0 -1.925,-0.12 -2.863,-0.361 l 0.157,1.278 c 0.927,0.266 1.993,0.399 3.198,0.399 1.1,0 1.949,-0.227 2.549,-0.681 C 1.173,6.177 1.473,5.404 1.473,4.31 1.473,4.02 1.459,3.492 1.432,2.729 1.404,1.966 1.391,1.458 1.391,1.205 c 0,-1.125 0.082,-2.125 0.25,-3.002" /></g><g
           transform="translate(836.7451,533.4507)"
           id="g684"><path
             id="path686"
             style="fill:#000000;fill-opacity:1;fill-rule:nonzero;stroke:none"
             d="m 0,0 c 0,-0.396 -0.467,-1.656 -1.4,-3.781 -1.069,-2.43 -1.733,-4.141 -1.993,-5.135 -0.426,-1.613 -0.821,-2.64 -1.186,-3.078 -0.494,-0.606 -1.375,-0.908 -2.642,-0.908 l -0.074,1.297 c 0.773,0 1.415,0.263 1.928,0.789 0.514,0.524 0.769,1.183 0.769,1.973 0,0.687 -0.568,2.318 -1.705,4.895 -1.136,2.576 -1.705,3.893 -1.705,3.948 l 1.918,0 c 0,-0.167 0.39,-1.292 1.168,-3.375 0.779,-2.082 1.168,-3.363 1.168,-3.845 l 0.093,0 c 0,0.401 0.329,1.566 0.987,3.494 0.658,1.928 0.987,3.17 0.987,3.726 L 0,0 Z" /></g><g
           transform="translate(740.1254,504.0729)"
           id="g688"><path
             id="path690"
             style="fill:#000000;fill-opacity:1;fill-rule:nonzero;stroke:none"
             d="m 0,0 c 0,-3.348 -2.33,-5.022 -6.99,-5.022 -1.702,0 -3.213,0.194 -4.534,0.583 l 0.475,2.131 c 1.521,-0.525 2.964,-0.787 4.33,-0.787 3.076,0 4.615,0.869 4.615,2.606 0,0.878 -0.398,1.629 -1.195,2.253 -0.534,0.417 -1.583,0.973 -3.148,1.67 -1.648,0.733 -2.801,1.408 -3.462,2.022 -0.914,0.85 -1.37,1.919 -1.37,3.204 0,1.339 0.465,2.43 1.398,3.272 1.04,0.94 2.511,1.41 4.411,1.41 2.153,0 3.629,-0.14 4.425,-0.42 l -0.326,-2.159 c -1.376,0.434 -2.837,0.652 -4.384,0.652 -2.326,0 -3.488,-0.778 -3.488,-2.334 0,-0.752 0.334,-1.381 1.004,-1.888 C -7.805,6.877 -6.845,6.398 -5.362,5.755 -3.67,5.022 -2.448,4.324 -1.697,3.665 -0.566,2.67 0,1.448 0,0" /></g><g
           transform="translate(749.449,504.0408)"
           id="g692"><path
             id="path694"
             style="fill:#000000;fill-opacity:1;fill-rule:nonzero;stroke:none"
             d="m 0,0 c 0,0.914 -0.241,1.697 -0.723,2.349 -0.482,0.652 -1.158,0.978 -2.03,0.978 -1.112,0 -1.909,-0.337 -2.391,-1.011 0.099,-2.076 0.148,-3.859 0.148,-5.347 0.501,-0.421 1.153,-0.63 1.956,-0.63 1.019,0 1.781,0.358 2.284,1.075 C -0.252,-1.869 0,-1.008 0,0 m 1.65,0.222 c 0,-1.335 -0.382,-2.504 -1.145,-3.509 -0.763,-1.003 -1.824,-1.506 -3.183,-1.506 -1.138,0 -1.885,0.205 -2.244,0.612 l -0.092,0 c 0,-1.717 0.018,-3.249 0.055,-4.598 l -1.742,0 c 0.142,1.645 0.213,3.675 0.213,6.091 0,2.978 -0.154,5.283 -0.463,6.914 l 1.631,0.231 0.139,-0.917 0.092,0 c 0.6,0.699 1.57,1.047 2.911,1.047 1.18,0 2.113,-0.431 2.799,-1.293 C 1.307,2.433 1.65,1.408 1.65,0.222" /></g><g
           transform="translate(758.5602,501.2968)"
           id="g696"><path
             id="path698"
             style="fill:#000000;fill-opacity:1;fill-rule:nonzero;stroke:none"
             d="m 0,0 c -0.031,0.94 -0.046,1.782 -0.046,2.531 -1.162,0 -2.046,-0.087 -2.651,-0.261 -1.014,-0.308 -1.52,-0.898 -1.52,-1.769 0,-0.841 0.593,-1.261 1.779,-1.261 1.02,0 1.832,0.253 2.438,0.76 M 1.641,-1.798 0.185,-1.854 c -0.073,0.303 -0.111,0.59 -0.111,0.862 l -0.093,0 c -0.76,-0.691 -1.795,-1.038 -3.104,-1.038 -0.711,0 -1.323,0.209 -1.836,0.626 -0.513,0.416 -0.769,1.012 -0.769,1.784 0,0.951 0.402,1.716 1.205,2.293 0.803,0.579 2.296,0.883 4.477,0.914 0.018,0.149 0.027,0.318 0.027,0.51 0,0.759 -0.202,1.267 -0.606,1.519 -0.406,0.254 -1.019,0.38 -1.841,0.38 -0.97,0 -1.924,-0.12 -2.863,-0.361 l 0.157,1.278 c 0.927,0.267 1.993,0.4 3.198,0.4 1.1,0 1.949,-0.227 2.549,-0.682 C 1.174,6.177 1.474,5.403 1.474,4.31 1.474,4.019 1.46,3.492 1.432,2.729 1.404,1.966 1.39,1.458 1.39,1.205 1.39,0.08 1.474,-0.921 1.641,-1.798" /></g><g
           transform="translate(769.2932,500.9167)"
           id="g700"><path
             id="path702"
             style="fill:#000000;fill-opacity:1;fill-rule:nonzero;stroke:none"
             d="m 0,0 -0.093,-1.242 c -0.5,-0.284 -1.171,-0.427 -2.011,-0.427 -1.6,0 -2.824,0.442 -3.67,1.326 -0.847,0.884 -1.27,1.949 -1.27,3.199 0,1.32 0.445,2.458 1.334,3.409 0.89,0.953 2.067,1.428 3.532,1.428 0.735,0 1.335,-0.075 1.798,-0.223 L -0.63,6.016 c -0.649,0.24 -1.307,0.36 -1.975,0.36 -0.877,0 -1.576,-0.305 -2.094,-0.917 -0.519,-0.612 -0.779,-1.378 -0.779,-2.298 0,-1.001 0.309,-1.835 0.927,-2.503 0.618,-0.667 1.492,-1.001 2.623,-1.001 0.464,0 1.106,0.114 1.928,0.343" /></g><g
           transform="translate(777.1807,504.921)"
           id="g704"><path
             id="path706"
             style="fill:#000000;fill-opacity:1;fill-rule:nonzero;stroke:none"
             d="m 0,0 c 0,1.736 -0.726,2.604 -2.178,2.604 -1.483,0 -2.358,-0.902 -2.623,-2.707 L 0,0 Z M 1.548,0.018 C 1.548,-0.241 1.535,-0.6 1.51,-1.057 l -6.367,-0.111 c 0.062,-0.903 0.411,-1.657 1.048,-2.266 0.636,-0.609 1.48,-0.913 2.53,-0.913 0.939,0 1.819,0.114 2.641,0.343 L 1.205,-5.311 c -0.606,-0.242 -1.48,-0.362 -2.623,-0.362 -1.607,0 -2.832,0.439 -3.675,1.316 -0.844,0.878 -1.265,1.947 -1.265,3.208 0,1.346 0.384,2.507 1.154,3.48 0.769,0.974 1.802,1.459 3.1,1.459 1.192,0 2.099,-0.351 2.72,-1.055 C 1.238,2.029 1.548,1.124 1.548,0.018" /></g><g
           transform="translate(797.6197,517.1716)"
           id="g708"><path
             id="path710"
             style="fill:#000000;fill-opacity:1;fill-rule:nonzero;stroke:none"
             d="m 0,0 -0.068,-1.915 c -1.792,0.09 -3.642,0.137 -5.551,0.137 -0.019,-1.738 -0.028,-3.942 -0.028,-6.611 0,-2.95 0.045,-6.045 0.136,-9.283 l -2.484,0 c 0.109,3.084 0.163,6.179 0.163,9.283 0,2.634 -0.027,4.837 -0.082,6.611 -1.339,0 -3.221,-0.055 -5.646,-0.164 L -13.491,0 0,0 Z" /></g><g
           transform="translate(805.1937,504.921)"
           id="g712"><path
             id="path714"
             style="fill:#000000;fill-opacity:1;fill-rule:nonzero;stroke:none"
             d="m 0,0 c 0,1.736 -0.726,2.604 -2.178,2.604 -1.483,0 -2.357,-0.902 -2.623,-2.707 L 0,0 Z M 1.548,0.018 C 1.548,-0.241 1.535,-0.6 1.51,-1.057 l -6.367,-0.111 c 0.062,-0.903 0.411,-1.657 1.048,-2.266 0.636,-0.609 1.479,-0.913 2.531,-0.913 0.938,0 1.819,0.114 2.641,0.343 L 1.206,-5.311 c -0.607,-0.242 -1.481,-0.362 -2.624,-0.362 -1.607,0 -2.832,0.439 -3.675,1.316 -0.843,0.878 -1.266,1.947 -1.266,3.208 0,1.346 0.385,2.507 1.155,3.48 0.769,0.974 1.802,1.459 3.1,1.459 1.193,0 2.099,-0.351 2.721,-1.055 0.62,-0.706 0.931,-1.611 0.931,-2.717" /></g><g
           transform="translate(810.6714,499.499)"
           id="g716"><path
             id="path718"
             style="fill:#000000;fill-opacity:1;fill-rule:nonzero;stroke:none"
             d="m 0,0 -1.779,0 c 0.111,2.038 0.167,4.343 0.167,6.914 0,2.496 -0.09,4.538 -0.269,6.127 L 0,13.133 C -0.117,11.452 -0.176,9.379 -0.176,6.914 -0.176,4.375 -0.117,2.07 0,0" /></g><g
           transform="translate(819.2821,504.921)"
           id="g720"><path
             id="path722"
             style="fill:#000000;fill-opacity:1;fill-rule:nonzero;stroke:none"
             d="m 0,0 c 0,1.736 -0.726,2.604 -2.178,2.604 -1.483,0 -2.357,-0.902 -2.623,-2.707 L 0,0 Z M 1.548,0.018 C 1.548,-0.241 1.535,-0.6 1.51,-1.057 l -6.367,-0.111 c 0.062,-0.903 0.411,-1.657 1.048,-2.266 0.637,-0.609 1.479,-0.913 2.531,-0.913 0.938,0 1.819,0.114 2.641,0.343 L 1.205,-5.311 c -0.606,-0.242 -1.48,-0.362 -2.622,-0.362 -1.608,0 -2.833,0.439 -3.676,1.316 -0.843,0.878 -1.266,1.947 -1.266,3.208 0,1.346 0.385,2.507 1.155,3.48 0.77,0.974 1.802,1.459 3.1,1.459 1.193,0 2.099,-0.351 2.721,-1.055 0.62,-0.706 0.931,-1.611 0.931,-2.717" /></g><g
           transform="translate(828.8564,502.0109)"
           id="g724"><path
             id="path726"
             style="fill:#000000;fill-opacity:1;fill-rule:nonzero;stroke:none"
             d="m 0,0 c 0,-1.805 -1.152,-2.708 -3.457,-2.708 -1.02,0 -1.971,0.103 -2.855,0.307 l 0.287,1.362 c 0.804,-0.309 1.675,-0.464 2.614,-0.464 1.347,0 2.021,0.384 2.021,1.15 0,0.371 -0.151,0.666 -0.45,0.886 -0.3,0.218 -0.795,0.464 -1.487,0.736 -0.878,0.347 -1.515,0.68 -1.911,1.001 -0.58,0.476 -0.87,1.051 -0.87,1.725 0,0.703 0.266,1.307 0.797,1.811 0.532,0.504 1.341,0.756 2.428,0.756 1.063,0 1.916,-0.09 2.559,-0.269 L -0.612,4.959 c -0.667,0.265 -1.44,0.398 -2.317,0.398 -1.187,0 -1.78,-0.343 -1.78,-1.029 0,-0.346 0.133,-0.625 0.399,-0.839 C -4.044,3.276 -3.525,3.017 -2.753,2.715 -1.919,2.388 -1.301,2.067 -0.899,1.752 -0.3,1.264 0,0.679 0,0" /></g><g
           transform="translate(837.6618,500.9167)"
           id="g728"><path
             id="path730"
             style="fill:#000000;fill-opacity:1;fill-rule:nonzero;stroke:none"
             d="m 0,0 -0.093,-1.242 c -0.501,-0.284 -1.171,-0.427 -2.011,-0.427 -1.6,0 -2.824,0.442 -3.671,1.326 -0.846,0.884 -1.269,1.949 -1.269,3.199 0,1.32 0.444,2.458 1.334,3.409 0.89,0.953 2.067,1.428 3.532,1.428 0.734,0 1.334,-0.075 1.798,-0.223 L -0.63,6.016 c -0.649,0.24 -1.307,0.36 -1.975,0.36 -0.877,0 -1.575,-0.305 -2.094,-0.917 -0.52,-0.612 -0.779,-1.378 -0.779,-2.298 0,-1.001 0.309,-1.835 0.927,-2.503 0.618,-0.667 1.492,-1.001 2.623,-1.001 0.463,0 1.106,0.114 1.928,0.343" /></g><g
           transform="translate(846.3555,503.8452)"
           id="g732"><path
             id="path734"
             style="fill:#000000;fill-opacity:1;fill-rule:nonzero;stroke:none"
             d="m 0,0 c 0,0.965 -0.242,1.821 -0.727,2.573 -0.485,0.75 -1.176,1.126 -2.072,1.126 -0.89,0 -1.574,-0.356 -2.052,-1.066 -0.48,-0.711 -0.719,-1.536 -0.719,-2.475 0,-0.97 0.242,-1.829 0.727,-2.578 0.485,-0.747 1.179,-1.12 2.081,-1.12 0.89,0 1.573,0.357 2.048,1.071 C -0.238,-1.755 0,-0.933 0,0 m 1.604,0.325 c 0,-1.582 -0.454,-2.817 -1.363,-3.703 -0.908,-0.887 -1.977,-1.33 -3.207,-1.33 -1.149,0 -2.136,0.392 -2.961,1.177 -0.825,0.784 -1.238,1.89 -1.238,3.318 0,1.594 0.457,2.839 1.368,3.736 0.911,0.895 1.981,1.343 3.211,1.343 1.15,0 2.135,-0.397 2.957,-1.191 0.822,-0.794 1.233,-1.911 1.233,-3.35" /></g><g
           transform="translate(856.8571,504.0408)"
           id="g736"><path
             id="path738"
             style="fill:#000000;fill-opacity:1;fill-rule:nonzero;stroke:none"
             d="m 0,0 c 0,0.914 -0.241,1.697 -0.723,2.349 -0.482,0.652 -1.158,0.978 -2.03,0.978 -1.113,0 -1.909,-0.337 -2.391,-1.011 0.099,-2.076 0.148,-3.859 0.148,-5.347 0.5,-0.421 1.153,-0.63 1.956,-0.63 1.019,0 1.781,0.358 2.285,1.075 C -0.252,-1.869 0,-1.008 0,0 m 1.65,0.222 c 0,-1.335 -0.382,-2.504 -1.145,-3.509 -0.763,-1.003 -1.824,-1.506 -3.184,-1.506 -1.137,0 -1.884,0.205 -2.243,0.612 l -0.093,0 c 0,-1.717 0.019,-3.249 0.056,-4.598 l -1.742,0 c 0.142,1.645 0.213,3.675 0.213,6.091 0,2.978 -0.155,5.283 -0.464,6.914 l 1.632,0.231 0.139,-0.917 0.092,0 c 0.6,0.699 1.57,1.047 2.911,1.047 1.179,0 2.113,-0.431 2.799,-1.293 C 1.306,2.433 1.65,1.408 1.65,0.222" /></g><g
           transform="translate(866.7,504.921)"
           id="g740"><path
             id="path742"
             style="fill:#000000;fill-opacity:1;fill-rule:nonzero;stroke:none"
             d="m 0,0 c 0,1.736 -0.726,2.604 -2.178,2.604 -1.483,0 -2.357,-0.902 -2.623,-2.707 L 0,0 Z m 1.548,0.018 c 0,-0.259 -0.013,-0.618 -0.037,-1.075 l -6.368,-0.111 c 0.063,-0.903 0.411,-1.657 1.048,-2.266 0.637,-0.609 1.48,-0.913 2.531,-0.913 0.938,0 1.819,0.114 2.641,0.343 L 1.206,-5.311 c -0.606,-0.242 -1.48,-0.362 -2.623,-0.362 -1.608,0 -2.832,0.439 -3.676,1.316 -0.843,0.878 -1.265,1.947 -1.265,3.208 0,1.346 0.385,2.507 1.154,3.48 0.77,0.974 1.802,1.459 3.101,1.459 1.192,0 2.098,-0.351 2.72,-1.055 C 1.238,2.029 1.548,1.124 1.548,0.018" /></g><g
           transform="translate(798.1818,572.3573)"
           id="g744"><path
             id="path746"
             style="fill:#000000;fill-opacity:1;fill-rule:nonzero;stroke:none"
             d="m 0,0 c 0,0.311 -0.127,0.539 -0.386,0.681 l -1.074,0.169 -0.988,0 c -0.973,0 -2.191,-0.572 -3.65,-1.717 -1.46,-1.146 -2.192,-2.134 -2.192,-2.965 l 0.988,-0.086 0.988,-0.042 c 1.004,0 2.249,0.412 3.739,1.236 C -0.858,-1.788 0,-0.88 0,0 m 4.596,-8.816 c -1.373,-2.246 -3.227,-4.024 -5.561,-5.334 -2.336,-1.31 -4.86,-1.966 -7.58,-1.966 -2.007,0 -3.509,0.33 -4.51,0.987 -1.006,0.66 -1.504,1.762 -1.504,3.31 0,3.578 1.847,6.942 5.539,10.092 3.464,2.892 6.758,4.339 9.88,4.339 0.631,0 1.187,-0.201 1.676,-0.602 0.514,-0.344 0.787,-0.716 0.815,-1.115 0,-1.118 -1.147,-2.379 -3.435,-3.781 -1.29,-0.773 -2.606,-1.361 -3.953,-1.762 -1.347,-0.401 -2.749,-0.6 -4.209,-0.6 l -0.774,0 -0.471,0.042 c -0.688,-0.773 -1.239,-1.589 -1.654,-2.448 -0.415,-0.859 -0.623,-1.674 -0.623,-2.448 0,-1.06 0.387,-2.048 1.159,-2.964 0.946,-1.117 2.235,-1.674 3.867,-1.674 1.632,0 3.471,0.612 5.518,1.837 2.046,1.226 3.645,2.703 4.79,4.433 l 1.03,-0.346 z" /></g><g
           transform="translate(798.1818,572.3573)"
           id="g748"><path
             id="path750"
             style="fill:none;stroke:#000000;stroke-width:1.49800003;stroke-linecap:butt;stroke-linejoin:miter;stroke-miterlimit:4;stroke-dasharray:none;stroke-opacity:1"
             d="m 0,0 c 0,0.311 -0.127,0.539 -0.386,0.681 l -1.074,0.169 -0.988,0 c -0.973,0 -2.191,-0.572 -3.65,-1.717 -1.46,-1.146 -2.192,-2.134 -2.192,-2.965 l 0.988,-0.086 0.988,-0.042 c 1.004,0 2.249,0.412 3.739,1.236 C -0.858,-1.788 0,-0.88 0,0 Z m 4.596,-8.816 c -1.373,-2.246 -3.227,-4.024 -5.561,-5.334 -2.336,-1.31 -4.86,-1.966 -7.58,-1.966 -2.007,0 -3.509,0.33 -4.51,0.987 -1.006,0.66 -1.504,1.762 -1.504,3.31 0,3.578 1.847,6.942 5.539,10.092 3.464,2.892 6.758,4.339 9.88,4.339 0.631,0 1.187,-0.201 1.676,-0.602 0.514,-0.344 0.787,-0.716 0.815,-1.115 0,-1.118 -1.147,-2.379 -3.435,-3.781 -1.29,-0.773 -2.606,-1.361 -3.953,-1.762 -1.347,-0.401 -2.749,-0.6 -4.209,-0.6 l -0.774,0 -0.471,0.042 c -0.688,-0.773 -1.239,-1.589 -1.654,-2.448 -0.415,-0.859 -0.623,-1.674 -0.623,-2.448 0,-1.06 0.387,-2.048 1.159,-2.964 0.946,-1.117 2.235,-1.674 3.867,-1.674 1.632,0 3.471,0.612 5.518,1.837 2.046,1.226 3.645,2.703 4.79,4.433 l 1.03,-0.346 z" /></g><g
           transform="translate(827.7767,576.3431)"
           id="g752"><path
             id="path754"
             style="fill:#000000;fill-opacity:1;fill-rule:nonzero;stroke:none"
             d="m 0,0 -0.085,-1.074 c -0.717,-0.773 -1.617,-1.532 -2.708,-2.275 -1.288,-0.774 -2.491,-1.161 -3.608,-1.161 -0.686,0 -1.347,0.28 -1.974,0.837 -0.631,0.56 -1.132,1.268 -1.504,2.127 -0.746,-0.516 -1.79,-2.277 -3.138,-5.282 -0.886,-2.063 -1.918,-4.726 -3.089,-7.991 l -1.418,-4.123 -0.859,-0.643 c -0.516,-0.345 -1.046,-0.517 -1.591,-0.517 l -0.686,0.13 c 0.686,2.175 1.331,4.638 1.934,7.387 0.599,2.75 0.901,5.168 0.901,7.258 0,1.605 -0.213,2.893 -0.646,3.867 -0.428,0.973 -1.13,1.46 -2.104,1.46 -0.486,0 -1.189,-0.214 -2.104,-0.644 l -1.546,-0.687 c 0.027,0.085 0.057,0.178 0.086,0.279 0.028,0.099 0.112,0.264 0.259,0.494 l 0.385,0.472 c 0.716,0.401 1.462,0.745 2.234,1.032 0.917,0.285 1.644,0.429 2.19,0.429 1.547,0 2.663,-0.488 3.351,-1.461 0.515,-0.745 0.772,-1.819 0.772,-3.222 l 0,-0.901 c -0.085,-0.516 -0.143,-0.93 -0.172,-1.245 l -0.127,-1.804 c 1.172,2.233 2.217,3.979 3.134,5.238 1.431,2.006 2.633,3.008 3.608,3.008 0.316,0 0.86,-0.615 1.633,-1.846 0.685,-1.204 1.431,-1.803 2.232,-1.803 0.544,0 1.161,0.256 1.847,0.771 C -1.274,-0.716 -0.345,-0.086 0,0" /></g><g
           transform="translate(827.7767,576.3431)"
           id="g756"><path
             id="path758"
             style="fill:none;stroke:#000000;stroke-width:1.49800003;stroke-linecap:butt;stroke-linejoin:miter;stroke-miterlimit:4;stroke-dasharray:none;stroke-opacity:1"
             d="m 0,0 -0.085,-1.074 c -0.717,-0.773 -1.617,-1.532 -2.708,-2.275 -1.288,-0.774 -2.491,-1.161 -3.608,-1.161 -0.686,0 -1.347,0.28 -1.974,0.837 -0.631,0.56 -1.132,1.268 -1.504,2.127 -0.746,-0.516 -1.79,-2.277 -3.138,-5.282 -0.886,-2.063 -1.918,-4.726 -3.089,-7.991 l -1.418,-4.123 -0.859,-0.643 c -0.516,-0.345 -1.046,-0.517 -1.591,-0.517 l -0.686,0.13 c 0.686,2.175 1.331,4.638 1.934,7.387 0.599,2.75 0.901,5.168 0.901,7.258 0,1.605 -0.213,2.893 -0.646,3.867 -0.428,0.973 -1.13,1.46 -2.104,1.46 -0.486,0 -1.189,-0.214 -2.104,-0.644 l -1.546,-0.687 c 0.027,0.085 0.057,0.178 0.086,0.279 0.028,0.099 0.112,0.264 0.259,0.494 l 0.385,0.472 c 0.716,0.401 1.462,0.745 2.234,1.032 0.917,0.285 1.644,0.429 2.19,0.429 1.547,0 2.663,-0.488 3.351,-1.461 0.515,-0.745 0.772,-1.819 0.772,-3.222 l 0,-0.901 c -0.085,-0.516 -0.143,-0.93 -0.172,-1.245 l -0.127,-1.804 c 1.172,2.233 2.217,3.979 3.134,5.238 1.431,2.006 2.633,3.008 3.608,3.008 0.316,0 0.86,-0.615 1.633,-1.846 0.685,-1.204 1.431,-1.803 2.232,-1.803 0.544,0 1.161,0.256 1.847,0.771 C -1.274,-0.716 -0.345,-0.086 0,0 Z" /></g><g
           transform="translate(868.0073,563.7155)"
           id="g760"><path
             id="path762"
             style="fill:#000000;fill-opacity:1;fill-rule:nonzero;stroke:none"
             d="m 0,0 -0.902,-1.46 c -1.804,-1.717 -3.307,-3.007 -4.51,-3.866 -2.091,-1.518 -3.81,-2.277 -5.154,-2.277 -0.861,0 -1.546,0.217 -2.062,0.646 -0.458,0.459 -0.689,1.02 -0.689,1.678 0,0.519 0.1,1.307 0.303,2.37 0.199,1.062 0.515,2.339 0.944,3.832 0.774,2.871 1.187,4.607 1.246,5.208 0,1.005 -0.093,1.93 -0.278,2.779 -0.189,0.846 -0.382,1.283 -0.581,1.313 -1.519,0 -3.38,-1.881 -5.583,-5.642 -1.832,-3.189 -3.86,-6.533 -5.007,-10.036 -0.485,0 -0.917,-0.114 -1.287,-0.345 l -1.932,-1.2 1.354,2.969 1.544,6.418 c 0.572,2.782 0.858,4.778 0.858,5.984 0,0.603 -0.048,1.047 -0.147,1.335 -0.101,0.288 -0.28,0.459 -0.537,0.517 -1.317,0 -3.367,-1.924 -6.146,-5.77 -2.316,-3.215 -4.931,-6.688 -6.763,-10.42 l -1.287,-0.689 -1.332,-0.43 c 1.144,2.087 2.641,4.502 3.412,7.235 0.776,2.735 1.162,5.062 1.162,6.981 0,1.232 -0.158,2.149 -0.474,2.751 -0.256,0.657 -0.745,0.985 -1.459,0.985 -0.771,0 -1.848,-0.558 -3.222,-1.673 -0.858,-0.688 -1.39,-1.075 -1.588,-1.161 l 0.514,1.333 2.32,1.889 c 1.632,1.288 2.633,1.931 3.008,1.931 1.315,0 2.274,-0.471 2.877,-1.415 0.487,-0.803 0.73,-1.934 0.73,-3.394 0,-1.09 -0.144,-2.392 -0.428,-3.91 l -0.389,-1.932 4.856,6.081 c 2.345,2.875 4.035,4.315 5.066,4.315 0.831,0 1.418,-0.359 1.762,-1.074 0.343,-0.717 0.515,-1.676 0.515,-2.879 l 0,-1.632 C -19.372,6.83 -19.435,6.321 -19.48,5.82 c -0.041,-0.501 -0.078,-0.88 -0.108,-1.138 -0.027,-0.258 -0.099,-0.674 -0.213,-1.246 1.805,2.349 3.25,4.123 4.338,5.327 2.203,2.491 4.01,3.737 5.412,3.737 0.6,0 1.115,-0.259 1.547,-0.774 0.428,-0.517 0.644,-1.103 0.644,-1.76 l -0.043,-0.387 -2.406,-12.928 0,-0.732 c 0,-0.573 0.13,-1.045 0.386,-1.416 0.258,-0.372 0.716,-0.559 1.375,-0.559 0.574,0 2.161,1.001 4.768,3.007 L 0,0 Z" /></g><g
           transform="translate(868.0073,563.7155)"
           id="g764"><path
             id="path766"
             style="fill:none;stroke:#000000;stroke-width:1.49800003;stroke-linecap:butt;stroke-linejoin:miter;stroke-miterlimit:4;stroke-dasharray:none;stroke-opacity:1"
             d="m 0,0 -0.902,-1.46 c -1.804,-1.717 -3.307,-3.007 -4.51,-3.866 -2.091,-1.518 -3.81,-2.277 -5.154,-2.277 -0.861,0 -1.546,0.217 -2.062,0.646 -0.458,0.459 -0.689,1.02 -0.689,1.678 0,0.519 0.1,1.307 0.303,2.37 0.199,1.062 0.515,2.339 0.944,3.832 0.774,2.871 1.187,4.607 1.246,5.208 0,1.005 -0.093,1.93 -0.278,2.779 -0.189,0.846 -0.382,1.283 -0.581,1.313 -1.519,0 -3.38,-1.881 -5.583,-5.642 -1.832,-3.189 -3.86,-6.533 -5.007,-10.036 -0.485,0 -0.917,-0.114 -1.287,-0.345 l -1.932,-1.2 1.354,2.969 1.544,6.418 c 0.572,2.782 0.858,4.778 0.858,5.984 0,0.603 -0.048,1.047 -0.147,1.335 -0.101,0.288 -0.28,0.459 -0.537,0.517 -1.317,0 -3.367,-1.924 -6.146,-5.77 -2.316,-3.215 -4.931,-6.688 -6.763,-10.42 l -1.287,-0.689 -1.332,-0.43 c 1.144,2.087 2.641,4.502 3.412,7.235 0.776,2.735 1.162,5.062 1.162,6.981 0,1.232 -0.158,2.149 -0.474,2.751 -0.256,0.657 -0.745,0.985 -1.459,0.985 -0.771,0 -1.848,-0.558 -3.222,-1.673 -0.858,-0.688 -1.39,-1.075 -1.588,-1.161 l 0.514,1.333 2.32,1.889 c 1.632,1.288 2.633,1.931 3.008,1.931 1.315,0 2.274,-0.471 2.877,-1.415 0.487,-0.803 0.73,-1.934 0.73,-3.394 0,-1.09 -0.144,-2.392 -0.428,-3.91 l -0.389,-1.932 4.856,6.081 c 2.345,2.875 4.035,4.315 5.066,4.315 0.831,0 1.418,-0.359 1.762,-1.074 0.343,-0.717 0.515,-1.676 0.515,-2.879 l 0,-1.632 C -19.372,6.83 -19.435,6.321 -19.48,5.82 c -0.041,-0.501 -0.078,-0.88 -0.108,-1.138 -0.027,-0.258 -0.099,-0.674 -0.213,-1.246 1.805,2.349 3.25,4.123 4.338,5.327 2.203,2.491 4.01,3.737 5.412,3.737 0.6,0 1.115,-0.259 1.547,-0.774 0.428,-0.517 0.644,-1.103 0.644,-1.76 l -0.043,-0.387 -2.406,-12.928 0,-0.732 c 0,-0.573 0.13,-1.045 0.386,-1.416 0.258,-0.372 0.716,-0.559 1.375,-0.559 0.574,0 2.161,1.001 4.768,3.007 L 0,0 Z" /></g><g
           transform="translate(883.5538,565.0903)"
           id="g768"><path
             id="path770"
             style="fill:#000000;fill-opacity:1;fill-rule:nonzero;stroke:none"
             d="m 0,0 c -0.858,-1.909 -2.303,-3.806 -4.337,-5.685 -2.264,-2.109 -4.109,-3.164 -5.54,-3.164 -0.917,0 -1.76,0.249 -2.535,0.742 -0.773,0.493 -1.161,1.122 -1.161,1.886 l 0.043,0.507 4.384,17.568 c 0.483,0.487 0.997,0.845 1.54,1.074 l 2.14,0.559 0.385,-0.769 -2.137,-6.092 -2.034,-6.193 -0.889,-2.606 c -0.255,-0.77 -0.381,-1.58 -0.381,-2.437 0,-0.798 0.134,-1.438 0.408,-1.924 0.273,-0.482 0.751,-0.726 1.439,-0.726 1.001,0 2.304,0.756 3.908,2.264 1.604,1.509 2.992,3.175 4.167,4.996 L 0,0 Z" /></g><g
           transform="translate(883.5538,565.0903)"
           id="g772"><path
             id="path774"
             style="fill:none;stroke:#000000;stroke-width:1.49800003;stroke-linecap:butt;stroke-linejoin:miter;stroke-miterlimit:4;stroke-dasharray:none;stroke-opacity:1"
             d="m 0,0 c -0.858,-1.909 -2.303,-3.806 -4.337,-5.685 -2.264,-2.109 -4.109,-3.164 -5.54,-3.164 -0.917,0 -1.76,0.249 -2.535,0.742 -0.773,0.493 -1.161,1.122 -1.161,1.886 l 0.043,0.507 4.384,17.568 c 0.483,0.487 0.997,0.845 1.54,1.074 l 2.14,0.559 0.385,-0.769 -2.137,-6.092 -2.034,-6.193 -0.889,-2.606 c -0.255,-0.77 -0.381,-1.58 -0.381,-2.437 0,-0.798 0.134,-1.438 0.408,-1.924 0.273,-0.482 0.751,-0.726 1.439,-0.726 1.001,0 2.304,0.756 3.908,2.264 1.604,1.509 2.992,3.175 4.167,4.996 L 0,0 Z" /></g></g></g><g
       id="g776"><g
         clip-path="url(#clipPath780)"
         id="g778"><g
           id="g784"><g
             id="g786"><g
               clip-path="url(#clipPath790)"
               id="g788"><path
                 id="path802"
                 style="fill:url(#radialGradient794);stroke:none"
                 d="m 876.71,589.077 c -1.92,-2.243 -2.269,-5.09 -0.786,-6.352 l 0,0 c 1.479,-1.267 4.235,-0.471 6.152,1.775 l 0,0 c 1.916,2.243 2.266,5.088 0.783,6.354 l 0,0 c -0.478,0.407 -1.089,0.601 -1.761,0.601 l 0,0 c -1.411,0 -3.093,-0.855 -4.388,-2.378" /></g></g></g></g></g><g
       id="g804"><g
         clip-path="url(#clipPath808)"
         id="g806"><g
           transform="translate(876.7098,589.0774)"
           id="g812"><path
             id="path814"
             style="fill:none;stroke:#000000;stroke-width:1.03900003;stroke-linecap:butt;stroke-linejoin:miter;stroke-miterlimit:4;stroke-dasharray:none;stroke-opacity:1"
             d="M 0,0 C -1.92,-2.243 -2.269,-5.09 -0.785,-6.353 0.693,-7.619 3.45,-6.823 5.367,-4.578 7.282,-2.335 7.631,0.511 6.149,1.777 4.665,3.04 1.912,2.247 0,0 Z" /></g></g></g><g
       id="g816"><g
         clip-path="url(#clipPath820)"
         id="g818"><g
           id="g824"><g
             id="g826"><g
               clip-path="url(#clipPath830)"
               id="g828"><path
                 id="path842"
                 style="fill:url(#radialGradient834);stroke:none"
                 d="m 668.406,495.784 c -3.08,-1.991 -1.269,-7.602 -0.726,-10.315 l 0,0 c 1.029,-5.143 2.896,-7.97 6.194,-6.268 l 0,0 c 4.905,2.519 53.869,25.77 61.639,96.425 l 0,0 c -24.821,-83.961 -56.674,-73.088 -67.107,-79.842" /></g></g></g></g></g><g
       id="g844"><g
         clip-path="url(#clipPath848)"
         id="g846"><g
           id="g852"><g
             id="g854"><g
               clip-path="url(#clipPath858)"
               id="g856"><path
                 id="path872"
                 style="fill:url(#radialGradient862);stroke:none"
                 d="m 667.511,495.818 c -0.908,-0.169 -0.935,-4.131 -0.063,-8.848 l 0,0 c 0.872,-4.719 2.316,-8.408 3.225,-8.24 l 0,0 c 0.908,0.17 0.937,4.132 0.062,8.846 l 0,0 c -0.854,4.614 -2.253,8.247 -3.163,8.247 l 0,0 c -0.02,0 -0.04,-10e-4 -0.061,-0.005" /></g></g></g></g></g><g
       id="g874"><g
         clip-path="url(#clipPath878)"
         id="g876"><g
           transform="translate(667.4484,486.9698)"
           id="g882"><path
             id="path884"
             style="fill:none;stroke:#ffffff;stroke-width:1.449;stroke-linecap:butt;stroke-linejoin:miter;stroke-miterlimit:4;stroke-dasharray:none;stroke-opacity:1"
             d="M 0,0 C -0.873,4.717 -0.846,8.679 0.063,8.848 0.971,9.016 2.413,5.323 3.286,0.607 4.161,-4.108 4.132,-8.071 3.224,-8.24 2.315,-8.408 0.872,-4.719 0,0 Z" /></g></g></g><g
       id="g886"><g
         clip-path="url(#clipPath890)"
         id="g888"><g
           id="g894"><g
             id="g896"><g
               clip-path="url(#clipPath900)"
               id="g898"><path
                 id="path912"
                 style="fill:url(#radialGradient904);stroke:none"
                 d="m 700.204,572.56 c 13.879,-9.929 46.065,-17.025 61.405,-13.052 l 0,0 c 8.697,2.99 3.906,10.417 -11.005,15.672 l 0,0 c -7.458,2.629 -16.652,4.654 -24.624,4.944 l 0,0 c -8.18,-0.651 -12.069,-3.714 -8.195,-8.005 l 0,0 c -10.11,5.171 -7.441,9.98 3.803,9.955 l 0,0 c 11.246,-0.029 22.077,-1.93 34.023,-6.039 l 0,0 c 16.345,-6.056 22.773,-13.361 17.036,-17.494 l 0,0 c -4.568,-2.642 -13.181,-4.012 -23.794,-3.514 l 0,0 c 6.18,-0.448 11.896,-0.405 16.633,0.19 l 0,0 c 14.826,1.636 14.843,8.991 2.076,16.711 l 0,0 c -7.141,4.029 -17.56,7.799 -29.931,10.036 l 0,0 c -16.959,3.25 -28.615,1.408 -31.281,-3.4 l 0,0 c -2.153,-2.465 1.932,-5.819 9.181,-9.382 l 0,0 c 10.314,-4.24 21.041,-6.603 30.857,-5.827 l 0,0 c 9.814,0.78 6.248,6.472 -2.433,10.836 l 0,0 c 9.199,-2.028 16.242,-6.523 17.26,-9.201 l 0,0 c 0.81,-3.61 -5.942,-5.066 -14.017,-5.248 l 0,0 c -15.946,0.576 -34.129,5.564 -43.928,12.145 l 0,0 c -15.314,10.737 -0.986,17.39 23.964,15.185 l 0,0 c -0.601,0.104 -5.012,0.517 -13.413,0.676 l 0,0 c -15.428,-1.539 -26.169,-6.529 -13.617,-15.188 m 48.649,-17.533 c -6.762,0.491 -14.079,1.571 -21.285,3.16 l 0,0 c 7.53,-1.847 14.784,-2.854 21.285,-3.16" /></g></g></g></g></g><g
       id="g914"><g
         clip-path="url(#clipPath918)"
         id="g916"><g
           id="g922"><g
             id="g924"><g
               clip-path="url(#clipPath928)"
               id="g926"><path
                 id="path940"
                 style="fill:url(#radialGradient932);stroke:none"
                 d="m 729.134,572.073 c -0.173,-0.931 2.398,-2.203 5.752,-2.833 l 0,0 c 3.354,-0.628 6.214,-0.381 6.388,0.552 l 0,0 c 0.177,0.935 -2.399,2.207 -5.75,2.837 l 0,0 c -1.254,0.234 -2.438,0.346 -3.44,0.346 l 0,0 c -1.678,0 -2.842,-0.316 -2.95,-0.902" /></g></g></g></g></g><g
       id="g942"><g
         clip-path="url(#clipPath946)"
         id="g944"><g
           transform="translate(741.2744,569.7916)"
           id="g950"><path
             id="path952"
             style="fill:none;stroke:#ffffff;stroke-width:0.884;stroke-linecap:butt;stroke-linejoin:miter;stroke-miterlimit:4;stroke-dasharray:none;stroke-opacity:1"
             d="m 0,0 c -0.174,-0.932 -3.034,-1.18 -6.389,-0.551 -3.353,0.63 -5.924,1.901 -5.752,2.832 0.173,0.936 3.036,1.183 6.391,0.556 C -2.399,2.207 0.177,0.935 0,0 Z" /></g></g></g><g
       id="g954"><g
         clip-path="url(#clipPath958)"
         id="g956"><g
           id="g962"><g
             id="g964"><g
               clip-path="url(#clipPath968)"
               id="g966"><path
                 id="path980"
                 style="fill:url(#radialGradient972);stroke:none"
                 d="m 802.882,666.328 c -0.783,0 -1.648,-0.09 -2.608,-0.26 l 0,0 c -5.429,-0.966 -54.783,-23.77 -65.144,-94.094 l 0,0 c 27.889,82.996 60.305,71.419 71.175,77.443 l 0,0 c 4.509,2.505 5.107,7.562 3.5,11.343 l 0,0 c -1.665,3.913 -3.55,5.568 -6.92,5.568 l 0,0 c -10e-4,0 -0.002,0 -0.003,0" /></g></g></g></g></g><g
       id="g982"><g
         clip-path="url(#clipPath986)"
         id="g984"><g
           id="g990"><g
             id="g992"><g
               clip-path="url(#clipPath996)"
               id="g994"><path
                 id="path1008"
                 style="fill:url(#radialGradient1000);stroke:none"
                 d="m 803.108,666.335 c -3.294,-0.483 -5.401,-4.723 -4.708,-9.474 l 0,0 c 0.702,-4.744 3.943,-8.199 7.238,-7.714 l 0,0 c 3.296,0.486 5.402,4.726 4.702,9.476 l 0,0 c -0.65,4.446 -3.534,7.758 -6.608,7.758 l 0,0 c -0.207,0 -0.415,-0.016 -0.624,-0.046" /></g></g></g></g></g><g
       id="g1010"><g
         clip-path="url(#clipPath1014)"
         id="g1012"><g
           transform="translate(810.3405,658.6226)"
           id="g1018"><path
             id="path1020"
             style="fill:none;stroke:#ffffff;stroke-width:1.44799995;stroke-linecap:butt;stroke-linejoin:miter;stroke-miterlimit:4;stroke-dasharray:none;stroke-opacity:1"
             d="m 0,0 c 0.7,-4.749 -1.406,-8.99 -4.702,-9.475 -3.296,-0.485 -6.537,2.969 -7.238,7.714 -0.694,4.751 1.413,8.989 4.708,9.473 C -3.935,8.2 -0.695,4.746 0,0 Z" /></g></g></g></g></svg>