<svg xmlns="http://www.w3.org/2000/svg" viewBox="0 0 1532.31 633.66"><defs><style>.cls-1{fill:#5b8cc1;}</style></defs><title>KAGRA-logo</title><g id="レイヤー_3" data-name="レイヤー 3"><path d="M348.57,431.14h0l-84.25-124.9L331.56,239c21.56-22.58-9.31-58.23-35.27-35.27h0L181.88,318.14V220.39c-.69-31.11-47.62-34.78-49.88,0h0V444.52h0c.69,31.1,47.61,34.78,49.88,0V388.68l44.49-44.49L304.89,460.6C322.86,486,366.06,461.27,348.57,431.14Z" transform="translate(-1.57 -1.34)"/><path d="M623.58,435.68,545.09,225.74l-.09,0a43.31,43.31,0,0,0-83,1.07L384,435.68a24.94,24.94,0,0,0,46.73,17.47l19.08-51h108l19.08,51a24.94,24.94,0,0,0,46.72-17.47ZM465,361.38l38.78-103.71,38.78,103.71Z" transform="translate(-1.57 -1.34)"/><path d="M1493.31,435.68l-78.49-209.94-.09,0a43.31,43.31,0,0,0-83,1.07l-78.08,208.84a24.94,24.94,0,0,0,46.72,17.47l19.09-51h108l19.09,51a24.94,24.94,0,0,0,46.72-17.47Zm-158.59-74.3,38.78-103.71,38.78,103.71Z" transform="translate(-1.57 -1.34)"/><path d="M1222.64,429.27h0s-22.19-38.89-31.17-50.93c-19.1-25.6-36.87-33.18-36.87-33.18l-2,.14h0a71.85,71.85,0,0,0-3.65-143.6v0H1034.18v0H1034a26.77,26.77,0,0,0-26.74,25.69h0V442.1a26.77,26.77,0,1,0,53.53,0V351.39s19.62,0,29.18,1.76,13.72,1.25,24.42,10.3a81.23,81.23,0,0,1,16.65,19.6l43.54,69.67a26.77,26.77,0,1,0,48.07-23.45Zm-161.86-187h66.39c23.66.83,40.24,16.73,40.24,35.71,0,19.74-14.84,35.77-48.43,35.74h-29.64l0,0h-28.59Z" transform="translate(-1.57 -1.34)"/></g><g id="Layer_2" data-name="Layer 2"><path class="cls-1" d="M969.56,309.48H824.7a9.9,9.9,0,0,0,0,19.8H949.17A142,142,0,0,1,808,456c-4.36,0-8.67-.21-12.93-.6V172.74c4.26-.38,8.57-.59,12.93-.59,45.61,0,86.14,19.17,116.76,61.67a9.9,9.9,0,0,0,16.09-11.55c-33.22-45.11-80-70.46-132.85-69.92-89.18.9-161.75,72.56-161.75,161.74S718.84,475.84,808,475.84A161.75,161.75,0,0,0,969.7,319C969.74,317.56,969.56,309.48,969.56,309.48Z" transform="translate(-1.57 -1.34)"/><path class="cls-1" d="M72,424c-36.4,31.1-60.9,63.6-68.2,90.7-2.8,10.5-3,28.2-.4,36.8,6.5,21.8,23,38.7,51.1,52.5,42.3,20.8,103.7,31,186.4,31,182.2,0,438.76-56.66,631-148l-14-.1c-178.28,79-374.32,121.66-509.4,135A981.51,981.51,0,0,1,242,627.3c-47.6.1-76.4-2-111-7.9C70.7,609.1,29,587.7,14.9,559.8,2.2,534.7,9.6,504.2,36.4,471c8.1-10.1,30.47-33.4,44.25-45.29l-.15-8.91Z" transform="translate(-1.57 -1.34)"/><path class="cls-1" d="M1214.5,1.6c-53.3,2.7-93.6,7-141,15C938.7,39.4,805.1,86.1,708.8,144l-8.3,5h13.27l14.43-7.6c19.4-11,62.2-32,86.3-42.2C926.1,51.8,1052.3,21.3,1180,10.9c21.7-1.7,91.4-2.3,113.3-1,81.6,5.2,144.4,21.8,185.7,49.2,12.3,8.1,29,24.7,35.5,35.2,11.9,19.4,15.2,42.1,9.4,65-3.7,14.8-12.7,33.2-23.6,48.5-5.5,7.7-24.12,29.35-30.22,35.15L1470,253.4l6.6-6.4c29.9-29.4,50-62.4,56-91.9,2.2-11.4,1.5-31.4-1.6-42.1-17.2-59.8-96.7-98.9-222.3-109.5C1291.6,2,1230.1.8,1214.5,1.6Z" transform="translate(-1.57 -1.34)"/></g></svg>